<svg width="171" height="163" viewBox="0 0 171 163" fill="none" xmlns="http://www.w3.org/2000/svg">
<path d="M148.12 16.317C164.862 30.4104 174.337 54.4202 168.36 72.4191C162.349 90.4519 140.852 102.44 124.076 118.639C107.334 134.804 95.3458 155.18 77.4148 161.123C59.4839 167.032 35.6099 158.508 20.226 142.309C4.84202 126.144 -2.1198 102.27 0.563048 81.1129C3.2459 59.9557 15.5395 41.4475 30.9574 27.354C46.3413 13.2605 64.8496 3.5819 86.0747 0.797164C107.334 -1.95361 131.344 2.22349 148.12 16.317Z" fill="#D6FFE1"/>
<path d="M148.12 16.317C164.862 30.4104 174.337 54.4202 168.36 72.4191C162.349 90.4519 140.852 102.44 124.076 118.639C107.334 134.804 95.3458 155.18 77.4148 161.123C59.4839 167.032 35.6099 158.508 20.226 142.309C4.84202 126.144 -2.1198 102.27 0.563048 81.1129C3.2459 59.9557 15.5395 41.4475 30.9574 27.354C46.3413 13.2605 64.8496 3.5819 86.0747 0.797164C107.334 -1.95361 131.344 2.22349 148.12 16.317Z" fill="#D6FFE1"/>
</svg>
