<svg width="623" height="480" viewBox="0 0 623 480" fill="none" xmlns="http://www.w3.org/2000/svg">
<path d="M436.631 48.0601C485.931 89.5601 513.831 160.26 496.231 213.26C478.531 266.36 415.231 301.66 365.831 349.36C316.531 396.96 281.231 456.96 228.431 474.46C175.631 491.86 105.331 466.76 60.0313 419.06C14.7313 371.46 -5.76864 301.16 2.13136 238.86C10.0314 176.56 46.2314 122.06 91.6314 80.5601C136.931 39.0601 191.431 10.5601 253.931 2.36011C316.531 -5.73989 387.231 6.56012 436.631 48.0601Z" fill="#3BD8A9"/>
<path d="M154.545 178.636C153.788 176.182 152.742 173.985 151.409 172.045C150.106 170.076 148.53 168.394 146.682 167C144.864 165.606 142.773 164.561 140.409 163.864C138.045 163.136 135.47 162.773 132.682 162.773C127.682 162.773 123.227 164.03 119.318 166.545C115.409 169.061 112.333 172.758 110.091 177.636C107.879 182.485 106.773 188.394 106.773 195.364C106.773 202.394 107.879 208.348 110.091 213.227C112.303 218.106 115.379 221.818 119.318 224.364C123.258 226.879 127.833 228.136 133.045 228.136C137.773 228.136 141.864 227.227 145.318 225.409C148.803 223.591 151.485 221.015 153.364 217.682C155.242 214.318 156.182 210.379 156.182 205.864L160 206.455H134.727V193.273H172.5V204.455C172.5 212.424 170.803 219.318 167.409 225.136C164.015 230.955 159.348 235.439 153.409 238.591C147.47 241.712 140.652 243.273 132.955 243.273C124.379 243.273 116.848 241.348 110.364 237.5C103.909 233.621 98.8636 228.121 95.2273 221C91.6212 213.848 89.8182 205.364 89.8182 195.545C89.8182 188.03 90.8788 181.318 93 175.409C95.1515 169.5 98.1515 164.485 102 160.364C105.848 156.212 110.364 153.061 115.545 150.909C120.727 148.727 126.364 147.636 132.455 147.636C137.606 147.636 142.409 148.394 146.864 149.909C151.318 151.394 155.273 153.515 158.727 156.273C162.212 159.03 165.076 162.303 167.318 166.091C169.561 169.879 171.03 174.061 171.727 178.636H154.545ZM188.08 242V172.182H204.034V183.818H204.761C206.034 179.788 208.216 176.682 211.307 174.5C214.428 172.288 217.989 171.182 221.989 171.182C222.898 171.182 223.913 171.227 225.034 171.318C226.186 171.379 227.14 171.485 227.898 171.636V186.773C227.201 186.53 226.095 186.318 224.58 186.136C223.095 185.924 221.655 185.818 220.261 185.818C217.261 185.818 214.564 186.47 212.17 187.773C209.807 189.045 207.943 190.818 206.58 193.091C205.216 195.364 204.534 197.985 204.534 200.955V242H188.08ZM266.864 243.364C259.864 243.364 253.818 241.909 248.727 239C243.667 236.061 239.773 231.909 237.045 226.545C234.318 221.152 232.955 214.803 232.955 207.5C232.955 200.318 234.318 194.015 237.045 188.591C239.803 183.136 243.652 178.894 248.591 175.864C253.53 172.803 259.333 171.273 266 171.273C270.303 171.273 274.364 171.97 278.182 173.364C282.03 174.727 285.424 176.848 288.364 179.727C291.333 182.606 293.667 186.273 295.364 190.727C297.061 195.152 297.909 200.424 297.909 206.545V211.591H240.682V200.5H282.136C282.106 197.348 281.424 194.545 280.091 192.091C278.758 189.606 276.894 187.652 274.5 186.227C272.136 184.803 269.379 184.091 266.227 184.091C262.864 184.091 259.909 184.909 257.364 186.545C254.818 188.152 252.833 190.273 251.409 192.909C250.015 195.515 249.303 198.379 249.273 201.5V211.182C249.273 215.242 250.015 218.727 251.5 221.636C252.985 224.515 255.061 226.727 257.727 228.273C260.394 229.788 263.515 230.545 267.091 230.545C269.485 230.545 271.652 230.212 273.591 229.545C275.53 228.848 277.212 227.833 278.636 226.5C280.061 225.167 281.136 223.515 281.864 221.545L297.227 223.273C296.258 227.333 294.409 230.879 291.682 233.909C288.985 236.909 285.53 239.242 281.318 240.909C277.106 242.545 272.288 243.364 266.864 243.364ZM342.739 243.364C335.739 243.364 329.693 241.909 324.602 239C319.542 236.061 315.648 231.909 312.92 226.545C310.193 221.152 308.83 214.803 308.83 207.5C308.83 200.318 310.193 194.015 312.92 188.591C315.678 183.136 319.527 178.894 324.466 175.864C329.405 172.803 335.208 171.273 341.875 171.273C346.178 171.273 350.239 171.97 354.057 173.364C357.905 174.727 361.299 176.848 364.239 179.727C367.208 182.606 369.542 186.273 371.239 190.727C372.936 195.152 373.784 200.424 373.784 206.545V211.591H316.557V200.5H358.011C357.981 197.348 357.299 194.545 355.966 192.091C354.633 189.606 352.769 187.652 350.375 186.227C348.011 184.803 345.254 184.091 342.102 184.091C338.739 184.091 335.784 184.909 333.239 186.545C330.693 188.152 328.708 190.273 327.284 192.909C325.89 195.515 325.178 198.379 325.148 201.5V211.182C325.148 215.242 325.89 218.727 327.375 221.636C328.86 224.515 330.936 226.727 333.602 228.273C336.269 229.788 339.39 230.545 342.966 230.545C345.36 230.545 347.527 230.212 349.466 229.545C351.405 228.848 353.087 227.833 354.511 226.5C355.936 225.167 357.011 223.515 357.739 221.545L373.102 223.273C372.133 227.333 370.284 230.879 367.557 233.909C364.86 236.909 361.405 239.242 357.193 240.909C352.981 242.545 348.163 243.364 342.739 243.364ZM404.159 201.091V242H387.705V172.182H403.432V184.045H404.25C405.856 180.136 408.417 177.03 411.932 174.727C415.477 172.424 419.856 171.273 425.068 171.273C429.886 171.273 434.083 172.303 437.659 174.364C441.265 176.424 444.053 179.409 446.023 183.318C448.023 187.227 449.008 191.97 448.977 197.545V242H432.523V200.091C432.523 195.424 431.311 191.773 428.886 189.136C426.492 186.5 423.174 185.182 418.932 185.182C416.053 185.182 413.492 185.818 411.25 187.091C409.038 188.333 407.295 190.136 406.023 192.5C404.78 194.864 404.159 197.727 404.159 201.091Z" fill="white"/>
<path d="M169.455 366V296.182H185.182V308.045H186C187.455 304.045 189.864 300.924 193.227 298.682C196.591 296.409 200.606 295.273 205.273 295.273C210 295.273 213.985 296.424 217.227 298.727C220.5 301 222.803 304.106 224.136 308.045H224.864C226.409 304.167 229.015 301.076 232.682 298.773C236.379 296.439 240.758 295.273 245.818 295.273C252.242 295.273 257.485 297.303 261.545 301.364C265.606 305.424 267.636 311.348 267.636 319.136V366H251.136V321.682C251.136 317.348 249.985 314.182 247.682 312.182C245.379 310.152 242.561 309.136 239.227 309.136C235.258 309.136 232.152 310.379 229.909 312.864C227.697 315.318 226.591 318.515 226.591 322.455V366H210.455V321C210.455 317.394 209.364 314.515 207.182 312.364C205.03 310.212 202.212 309.136 198.727 309.136C196.364 309.136 194.212 309.742 192.273 310.955C190.333 312.136 188.788 313.818 187.636 316C186.485 318.152 185.909 320.667 185.909 323.545V366H169.455ZM304.42 367.409C299.996 367.409 296.011 366.621 292.466 365.045C288.951 363.439 286.163 361.076 284.102 357.955C282.072 354.833 281.057 350.985 281.057 346.409C281.057 342.47 281.784 339.212 283.239 336.636C284.693 334.061 286.678 332 289.193 330.455C291.708 328.909 294.542 327.742 297.693 326.955C300.875 326.136 304.163 325.545 307.557 325.182C311.648 324.758 314.966 324.379 317.511 324.045C320.057 323.682 321.905 323.136 323.057 322.409C324.239 321.652 324.83 320.485 324.83 318.909V318.636C324.83 315.212 323.814 312.561 321.784 310.682C319.754 308.803 316.83 307.864 313.011 307.864C308.981 307.864 305.784 308.742 303.42 310.5C301.087 312.258 299.511 314.333 298.693 316.727L283.33 314.545C284.542 310.303 286.542 306.758 289.33 303.909C292.117 301.03 295.527 298.879 299.557 297.455C303.587 296 308.042 295.273 312.92 295.273C316.284 295.273 319.633 295.667 322.966 296.455C326.299 297.242 329.345 298.545 332.102 300.364C334.86 302.152 337.072 304.591 338.739 307.682C340.436 310.773 341.284 314.636 341.284 319.273V366H325.466V356.409H324.92C323.92 358.348 322.511 360.167 320.693 361.864C318.905 363.53 316.648 364.879 313.92 365.909C311.223 366.909 308.057 367.409 304.42 367.409ZM308.693 355.318C311.996 355.318 314.86 354.667 317.284 353.364C319.708 352.03 321.572 350.273 322.875 348.091C324.208 345.909 324.875 343.53 324.875 340.955V332.727C324.36 333.152 323.481 333.545 322.239 333.909C321.027 334.273 319.663 334.591 318.148 334.864C316.633 335.136 315.133 335.379 313.648 335.591C312.163 335.803 310.875 335.985 309.784 336.136C307.33 336.47 305.133 337.015 303.193 337.773C301.254 338.53 299.723 339.591 298.602 340.955C297.481 342.288 296.92 344.015 296.92 346.136C296.92 349.167 298.027 351.455 300.239 353C302.451 354.545 305.269 355.318 308.693 355.318ZM392.693 296.182V308.909H352.557V296.182H392.693ZM362.466 279.455H378.92V345C378.92 347.212 379.254 348.909 379.92 350.091C380.617 351.242 381.527 352.03 382.648 352.455C383.769 352.879 385.011 353.091 386.375 353.091C387.405 353.091 388.345 353.015 389.193 352.864C390.072 352.712 390.739 352.576 391.193 352.455L393.966 365.318C393.087 365.621 391.83 365.955 390.193 366.318C388.587 366.682 386.617 366.894 384.284 366.955C380.163 367.076 376.451 366.455 373.148 365.091C369.845 363.697 367.223 361.545 365.284 358.636C363.375 355.727 362.436 352.091 362.466 347.727V279.455ZM436.614 367.364C429.614 367.364 423.568 365.909 418.477 363C413.417 360.061 409.523 355.909 406.795 350.545C404.068 345.152 402.705 338.803 402.705 331.5C402.705 324.318 404.068 318.015 406.795 312.591C409.553 307.136 413.402 302.894 418.341 299.864C423.28 296.803 429.083 295.273 435.75 295.273C440.053 295.273 444.114 295.97 447.932 297.364C451.78 298.727 455.174 300.848 458.114 303.727C461.083 306.606 463.417 310.273 465.114 314.727C466.811 319.152 467.659 324.424 467.659 330.545V335.591H410.432V324.5H451.886C451.856 321.348 451.174 318.545 449.841 316.091C448.508 313.606 446.644 311.652 444.25 310.227C441.886 308.803 439.129 308.091 435.977 308.091C432.614 308.091 429.659 308.909 427.114 310.545C424.568 312.152 422.583 314.273 421.159 316.909C419.765 319.515 419.053 322.379 419.023 325.5V335.182C419.023 339.242 419.765 342.727 421.25 345.636C422.735 348.515 424.811 350.727 427.477 352.273C430.144 353.788 433.265 354.545 436.841 354.545C439.235 354.545 441.402 354.212 443.341 353.545C445.28 352.848 446.962 351.833 448.386 350.5C449.811 349.167 450.886 347.515 451.614 345.545L466.977 347.273C466.008 351.333 464.159 354.879 461.432 357.909C458.735 360.909 455.28 363.242 451.068 364.909C446.856 366.545 442.038 367.364 436.614 367.364ZM536.761 314.636L521.761 316.273C521.337 314.758 520.595 313.333 519.534 312C518.504 310.667 517.11 309.591 515.352 308.773C513.595 307.955 511.443 307.545 508.898 307.545C505.473 307.545 502.595 308.288 500.261 309.773C497.958 311.258 496.822 313.182 496.852 315.545C496.822 317.576 497.564 319.227 499.08 320.5C500.625 321.773 503.17 322.818 506.716 323.636L518.625 326.182C525.231 327.606 530.14 329.864 533.352 332.955C536.595 336.045 538.231 340.091 538.261 345.091C538.231 349.485 536.943 353.364 534.398 356.727C531.883 360.061 528.383 362.667 523.898 364.545C519.413 366.424 514.261 367.364 508.443 367.364C499.898 367.364 493.019 365.576 487.807 362C482.595 358.394 479.489 353.379 478.489 346.955L494.534 345.409C495.261 348.561 496.807 350.939 499.17 352.545C501.534 354.152 504.61 354.955 508.398 354.955C512.307 354.955 515.443 354.152 517.807 352.545C520.201 350.939 521.398 348.955 521.398 346.591C521.398 344.591 520.625 342.939 519.08 341.636C517.564 340.333 515.201 339.333 511.989 338.636L500.08 336.136C493.383 334.742 488.428 332.394 485.216 329.091C482.004 325.758 480.413 321.545 480.443 316.455C480.413 312.152 481.58 308.424 483.943 305.273C486.337 302.091 489.655 299.636 493.898 297.909C498.17 296.152 503.095 295.273 508.67 295.273C516.852 295.273 523.292 297.015 527.989 300.5C532.716 303.985 535.64 308.697 536.761 314.636Z" fill="#263238"/>
</svg>
