<svg xmlns="http://www.w3.org/2000/svg" xmlns:xlink="http://www.w3.org/1999/xlink" viewBox="0 0 500 500"><defs><clipPath id="freepik--clip-path--inject-33"><path d="M398.88,185.85A3.63,3.63,0,0,1,397,186c-2.46-.31-5.92-2.14-6.59-4.76a4.11,4.11,0,0,0-.17-.53,4.66,4.66,0,0,0-3.28-3.32s-1.62-1.32-1.62-2.19,1.07-2.86.81-4.4.51-4.28,1.72-4.94a5.35,5.35,0,0,1,5.82.77c2,1.75,3.85,8,5.72,11.2S400.86,185,398.88,185.85Z" style="fill:#7E57C2;stroke:#263238;stroke-linecap:round;stroke-linejoin:round"></path></clipPath><clipPath id="freepik--clip-path-2--inject-33"><path d="M393.8,231.83,384,205.63c-.09-.26-.18-.52-.25-.79-1.52-5.43.5-12.74,1.79-17.29a33.49,33.49,0,0,0,.89-4.56,75.61,75.61,0,0,0,.59-7.61c3.37-2.49,6,1.67,6,1.67s-.88,3.31,1.54,18.09S400.31,228.49,393.8,231.83Z" style="fill:#fff;stroke:#263238;stroke-linecap:round;stroke-linejoin:round"></path></clipPath><clipPath id="freepik--clip-path-3--inject-33"><path d="M374.16,218.6c-14.73,6.15-59.34-23.08-60.44-23.31,0,0,35.6-6.29,40.89-7.53a2.59,2.59,0,0,0,.65-.2c.16.16,1.8,1.42,4.14,3.35C367.87,197.92,385.46,213.87,374.16,218.6Z" style="fill:#fff;stroke:#263238;stroke-linecap:round;stroke-linejoin:round"></path></clipPath><clipPath id="freepik--clip-path-4--inject-33"><path d="M396.94,220.6c1.08,8.56-2.24,13.36-9.05,12.06l-.77-.16c-11.93-2.55-13.46-9.55-28.74-22-5.29-4.33-10.47-7.79-14.89-10.88-7-4.93-12.17-8.94-12.85-14-1.1-8.29-11.31-20.31,7.75-27.49,14.32-5.38,38.79,22.25,49.5,39.86a87,87,0,0,1,5.1,9.64" style="fill:#fff;stroke:#263238;stroke-linecap:round;stroke-linejoin:round"></path></clipPath><clipPath id="freepik--clip-path-5--inject-33"><path d="M264.74,185.35c-1.59,3.27-9.45,5.86-10,7.43a7.46,7.46,0,0,1-2.61,3,2.06,2.06,0,0,1,0-2.78c1.27-1.43,1.41-4.49,1.41-4.49a27.74,27.74,0,0,0-3.33-1.28c-.38-.09-1.19-.24-2.14-.4-1.9-.33-4.36-.72-5-.89a5.26,5.26,0,0,1-2-1.29c-1.28.1-3.24-2.57-2.07-2.39a40.44,40.44,0,0,0,9.43,0c-8.14-2-7.37-4-7.37-4,2.55,1.33,9.78,1.75,9.78,1.75s-4.36-1.88-5.12-2.87a1.7,1.7,0,0,1-.14-1.65A29.07,29.07,0,0,0,252,178.1a30.78,30.78,0,0,0,11.85.09h0v0Z" style="fill:#fff;stroke:#263238;stroke-linecap:round;stroke-linejoin:round"></path></clipPath><clipPath id="freepik--clip-path-6--inject-33"><path d="M422.28,145.37S397,158.68,391.52,158.68c-7.36,0-29.23,12.89-29.23,12.89l-8.79-21.19s19.13-3.07,24.39-2.92c5.93.16,10.33-5.31,20-6.23,13.18-1.26,20.88-2.45,20.88-2.45" style="fill:#fff;stroke:#263238;stroke-linecap:round;stroke-linejoin:round"></path></clipPath><clipPath id="freepik--clip-path-7--inject-33"><path d="M368.22,171.57l-3,1.16-12.84,5s-5.06,10.77-9.67,15.83S321,201,312.18,199.26s-22.19,5.49-28.39,0-21.27-12.31-27.2-21.54c-1.81-2.82-1.2-5.78.53-8.53,3.95-6.27,13.68-11.46,13.68-11.46a128,128,0,0,1,39.87-10.39,108,108,0,0,1,31.71,2c3.38.68,5.38,1.13,5.84.73,1.78-1.55,5.16-1.08,5.82-1l.12,0s-.4-2.52,1.33-3c1.15-.34,3.24.22,7,3C372,156.12,368.22,171.57,368.22,171.57Z" style="fill:#7E57C2;stroke:#263238;stroke-linecap:round;stroke-linejoin:round"></path></clipPath><clipPath id="freepik--clip-path-8--inject-33"><path d="M393.07,409.84l-8,12.05a18.38,18.38,0,0,0,.8,1.89c1.07,2.24,3.25,5.85,6.75,7.49,4.87,2.29,6.09,5.06,8.92,4.18a4,4,0,0,0,.69-.26c3.34-1.58.81-4.22,1.9-6.33s5.92-2.72,7.68-4.4.72-4,1.64-6.16-1.44-4.16-2.69-4.67-1.1-4.54-3.77-4-3.11-1.86-3.68-2.44S394.42,409.13,393.07,409.84Z" style="fill:#fff;stroke:#263238;stroke-linecap:round;stroke-linejoin:round"></path></clipPath><clipPath id="freepik--clip-path-9--inject-33"><path d="M396,411.28l-21.52-10.5c-5.38-2.63-16.69-7.77-22.36-10.59a13.83,13.83,0,0,0-5.3-1.58c-2.2-.14-3.66.46-5.28.26-2.63-.33-22.16-.95-22.16-.95L316,400.3l-6.85,25.15,7.2-2.41L344,413.77s10.65,4.7,21.18,4.58c8.35-.1,18.7,4.41,22.64,6.29,1,.49,1.62.8,1.62.8" style="fill:#fff;stroke:#263238;stroke-linecap:round;stroke-linejoin:round"></path></clipPath><clipPath id="freepik--clip-path-10--inject-33"><path d="M70,312.93V327.4a17.31,17.31,0,0,1-1.71,1.13c-2.13,1.27-6,3.07-9.77,2.5-5.32-.79-7.87.84-9.74-1.45a4.88,4.88,0,0,1-.43-.6c-1.91-3.17,1.66-4,1.92-6.33s-3.43-5.54-4-7.91,1.59-3.7,2-6,3.5-2.67,4.82-2.4,3.43-3.17,5.35-1.23,3.62.17,4.41,0S69.23,311.59,70,312.93Z" style="fill:#fff;stroke:#263238;stroke-linecap:round;stroke-linejoin:round"></path></clipPath><clipPath id="freepik--clip-path-11--inject-33"><path d="M66.71,312.5l23.74,3.16c5.93.79,18.2,2.77,24.48,3.56a13.79,13.79,0,0,1,5.29,1.61c1.91,1.1,2.8,2.41,4.25,3.14,2.38,1.18,19,11.47,19,11.47l-4.05,12.18-8.21,24.74-4.66-6-17.89-23s-11.47-2-20.18-7.91c-6.9-4.7-18-6.67-22.34-7.29-1.13-.16-1.79-.23-1.79-.23" style="fill:#fff;stroke:#263238;stroke-linecap:round;stroke-linejoin:round"></path></clipPath><clipPath id="freepik--clip-path-12--inject-33"><path d="M159.93,337.61l-7.87,60-.38,2.93s-19.68-15.67-32-35.92c-.67-1.11-1.27-2.19-1.79-3.26-9-18.43,4.42-30.61,16.39-34.3,12.65-3.9,7.48,3.95,7.48,3.95C150.83,329.78,159.93,337.61,159.93,337.61Z" style="fill:#757575;stroke:#263238;stroke-linecap:round;stroke-linejoin:round"></path></clipPath><clipPath id="freepik--clip-path-13--inject-33"><path d="M336.87,415.54a36.46,36.46,0,0,1-12.33,6.86c-15.88,5.35-54.85,9.6-54.85,9.6l2.23-4.28,26.35-50.64s31.64,2.79,37.9,8.87c0,0-.79-9.34,6.31,4.21C347.43,399.61,344.48,408.94,336.87,415.54Z" style="fill:#757575;stroke:#263238;stroke-linecap:round;stroke-linejoin:round"></path></clipPath><clipPath id="freepik--clip-path-14--inject-33"><path d="M136.14,377.08c-9-19.79,18.71-42.9,18.71-42.9L166,332.34c1.14-18.66,39.87-35.07,52.83-36.35,20.62-2,61.72,25.7,71.7,40.08s6.06,32,6.06,32,24.34,19.57,25.82,32.47-41,42.13-88,28.49S156.92,422.54,136.14,377.08Z" style="fill:#757575;stroke:#263238;stroke-linecap:round;stroke-linejoin:round"></path></clipPath><clipPath id="freepik--clip-path-15--inject-33"><path d="M206,371.14s4.55,12.85,10.07,17.53l2,6.82s4.22-7.14,9.09-3.57,3.23,14.94,3.23,14.94,15-7.14,15.28-15.26A34.51,34.51,0,0,1,248.87,378s-3.25,1.31-4.55,3.72c0,0,7.15-15.44,2.6-19.34S206,371.14,206,371.14Z" style="fill:#7E57C2;stroke:#263238;stroke-linecap:round;stroke-linejoin:round"></path></clipPath><clipPath id="freepik--clip-path-16--inject-33"><path d="M245.3,371.46,229,377.09a57.61,57.61,0,0,1-26.57-.43c-14-3.84-21.75-10.82-23.35-12.36l-.31-.31c1,3.9,4.49,8.77,4.49,8.77-10.11-1-15.22-11-15.22-11-3.57,4.55-3,14.62-3,14.62-5.91-14.51-.29-22.09-.29-22.09-2.31-12,2-16.56,2-16.56l3.53,2.27c6.45-14.29,25.19-13.89,25.19-13.89l-2.74,3.17c15.59-7.14,48.06,0,48.06,0l1.63,13.64,5.19-1.62c.15.38.29.78.41,1.18a63.88,63.88,0,0,1,2.51,15.22c0,.1,0,.16,0,.16l1.88-1.29,3.31-2.28S256,364,245.3,371.46Z" style="fill:#7E57C2;stroke:#263238;stroke-linecap:round;stroke-linejoin:round"></path></clipPath></defs><g id="freepik--background-simple--inject-33"><path d="M67.93,167.09s-27.88,72,11.3,144.5S199.11,422.39,263.7,455.14s131.66,16.8,163.53-36.84-11.84-91.93-11.9-168.42,11.45-96.74-30-161.36-143.06-78.93-219.9-31S67.93,167.09,67.93,167.09Z" style="fill:#F5F0FF;opacity:0.7000000000000001"></path><path d="M445,285.55A108.58,108.58,0,0,0,439.17,221c-11.55-28.56-36.36-48.85-64.17-60.69-40.41-17.2-80.07-17.53-112.92-51.24-10.13-10.4-18.63-22.31-29-32.5-30.51-30-75.19-26.39-108.54-2.57C55,123.73,29.94,222.14,33.81,303.5,35.55,340,53,374,80.57,398c62.4,54.18,168.36,45.07,240,16.79C374,393.65,432.41,344.45,445,285.55Z" style="fill:#7E57C2"></path><path d="M445,285.55A108.58,108.58,0,0,0,439.17,221c-11.55-28.56-36.36-48.85-64.17-60.69-40.41-17.2-80.07-17.53-112.92-51.24-10.13-10.4-18.63-22.31-29-32.5-30.51-30-75.19-26.39-108.54-2.57C55,123.73,29.94,222.14,33.81,303.5,35.55,340,53,374,80.57,398c62.4,54.18,168.36,45.07,240,16.79C374,393.65,432.41,344.45,445,285.55Z" style="fill:#fff;opacity:0.7000000000000001"></path></g><g id="freepik--Clouds--inject-33"><path d="M81.05,135.21H63.4s1.76-4.37,15.49-2.91c0,0,6.84-7.84,16.81-7.84a8.33,8.33,0,0,1,7.13-7.39c6.81-1.32,8.13,4.75,8.13,4.75a14.89,14.89,0,0,1,11.78,0c6.75,2.67,5.38,10.46,5.38,10.46s19.48-.64,22.83,2.93H141" style="fill:none;stroke:#263238;stroke-linecap:round;stroke-linejoin:round"></path><path d="M384.68,234.73h-77s3.19-7.87,27.91-5.24c0,0,12.31-14.12,30.27-14.12,0,0,.6-11,12.86-13.33s14.64,8.58,14.64,8.58,9.06-4.8,21.22,0,9.7,18.83,9.7,18.83,35.09-1.15,41.1,5.28H447.59" style="fill:none;stroke:#263238;stroke-linecap:round;stroke-linejoin:round"></path><path d="M335.07,330h61.41s-2.53-6.27-22.25-4.18c0,0-9.83-11.26-24.15-11.26,0,0-.48-8.75-10.25-10.63s-11.68,6.84-11.68,6.84-7.23-3.83-16.92,0-7.74,15-7.74,15-28-.92-32.79,4.21h18.59" style="fill:none;stroke:#263238;stroke-linecap:round;stroke-linejoin:round"></path><path d="M113.46,301.29H49.09c4.81-5.13,32.79-4.21,32.79-4.21s-2-11.19,7.74-15,16.92,0,16.92,0,1.9-8.72,11.68-6.84,10.25,10.63,10.25,10.63c14.33,0,24.15,11.26,24.15,11.26,19.72-2.09,22.26,4.18,22.26,4.18h-7.19" style="fill:none;stroke:#263238;stroke-linecap:round;stroke-linejoin:round"></path><path d="M196.3,205.16H170.48s1.51-3.73,13.22-2.48c0,0,5.83-6.69,14.34-6.69a7.13,7.13,0,0,1,6.09-6.31c5.81-1.12,6.94,4.06,6.94,4.06a12.65,12.65,0,0,1,10.05,0c5.76,2.27,4.59,8.92,4.59,8.92s16.63-.55,19.48,2.5H239" style="fill:none;stroke:#263238;stroke-linecap:round;stroke-linejoin:round"></path><line x1="84.13" y1="135.21" x2="87.07" y2="135.21" style="fill:none;stroke:#263238;stroke-linecap:round;stroke-linejoin:round"></line><line x1="103.33" y1="135.17" x2="130.3" y2="135.17" style="fill:none;stroke:#263238;stroke-linecap:round;stroke-linejoin:round"></line><line x1="202.39" y1="204.97" x2="206.08" y2="204.97" style="fill:none;stroke:#263238;stroke-linecap:round;stroke-linejoin:round"></line><path d="M194.47,80.26H168.65s1.51-3.73,13.22-2.48c0,0,5.83-6.69,14.34-6.69a7.13,7.13,0,0,1,6.09-6.31c5.81-1.12,6.94,4.06,6.94,4.06a12.65,12.65,0,0,1,10,0c5.76,2.27,4.59,8.92,4.59,8.92s16.63-.54,19.48,2.5h-6.25" style="fill:none;stroke:#263238;stroke-linecap:round;stroke-linejoin:round"></path><line x1="200.55" y1="80.08" x2="204.25" y2="80.08" style="fill:none;stroke:#263238;stroke-linecap:round;stroke-linejoin:round"></line><line x1="162.3" y1="301.29" x2="159.57" y2="301.29" style="fill:none;stroke:#263238;stroke-linecap:round;stroke-linejoin:round"></line><line x1="124.6" y1="301.29" x2="134" y2="301.29" style="fill:none;stroke:#263238;stroke-linecap:round;stroke-linejoin:round"></line><line x1="294.29" y1="330.04" x2="303.35" y2="330.04" style="fill:none;stroke:#263238;stroke-linecap:round;stroke-linejoin:round"></line><line x1="392.04" y1="234.73" x2="399.2" y2="234.73" style="fill:none;stroke:#263238;stroke-linecap:round;stroke-linejoin:round"></line></g><g id="freepik--character-1--inject-33"><path d="M130.47,210.77S110,223.1,104.38,223.66s-18.95,0-18.95,0-2.69.82-4.49,1.53c-2,.8-6,1.83-5.12-.42s5-5.91,7.38-5.88c.59,0,2,1.18,2,1.18l14.42-1.18,8.25-3.87s-1.86-.36-4.47-.84h-.06c-5.41-1-14-2.57-15.89-2.65-2.87-.12-13.46-11.62-14.57-13s-6.76.25-8.16-.31-.48-1.88-.48-1.88A22.52,22.52,0,0,1,72.34,193c3.79-.73,3.48,2.23,3.48,2.23s11,8.08,13.24,8.08,22.68-.65,25.46-1.77c2.35-1,12.13,6.3,15.09,8.56C130.16,210.52,130.47,210.77,130.47,210.77Z" style="fill:#757575;stroke:#263238;stroke-linecap:round;stroke-linejoin:round"></path><path d="M72.9,198.54c-1.12-1.35-6.76.25-8.16-.31s-.48-1.88-.48-1.88A22.52,22.52,0,0,1,72.34,193c3.79-.73,3.48,2.23,3.48,2.23S72.68,195.86,72.9,198.54Z" style="fill:#263238"></path><path d="M130.47,210.77S110,223.1,104.38,223.66s-18.95,0-18.95,0-2.69.82-4.49,1.53c-2,.8-6,1.83-5.12-.42s5-5.91,7.38-5.88c.59,0,2,1.18,2,1.18l14.42-1.18,8.25-3.87s-1.86-.36-4.47-.84h.09l8.9.46s-4.43-1.35-4-2.14,6,2.11,13.52-.73a22.47,22.47,0,0,1,7.64-1.67C130.16,210.52,130.47,210.77,130.47,210.77Z" style="fill:#263238"></path><path d="M135.25,191.48l9.31,12.44,14.8,10.93s4.95,1.31,5.57,2.58c.12.23,1,3.1.53,3-2.16-.41-3.15-1.4-3.74-1.09-1.9,1,.67,2.83,0,3-1.86.33-4.17-5.1-4.17-5.1s-12.64-7.88-15.37-9.47-12.35-9-12.35-9S132.47,192.88,135.25,191.48Z" style="fill:#bfbfbf;stroke:#263238;stroke-miterlimit:10"></path><path d="M148.54,201.2l1.78,3.69s1.05-1,1.05,0-6.73,7.44-9.1,6.86-2.76-1.92-2.76-1.92,3.36-7.12,4.74-7.91S148.54,201.2,148.54,201.2Z" style="fill:#7E57C2;stroke:#263238;stroke-linecap:round;stroke-linejoin:round"></path><path d="M112.41,194.87s22.32,11.6,21.61,15.49-1.31,4.29-1.31,4.29,8.11-2.72,9.24-7.92S129,187.81,112.41,194.87Z" style="fill:#263238"></path><path d="M120.69,182.55a32.75,32.75,0,0,1,16.9,6.52c6.53,5,10.59,10.49,10.09,12.85-.79,3.76-13.75,8.61-22.05,10.78s-17.28-4-17.18-7.93,4.71-3.54,4.71-3.54S117.33,185.71,120.69,182.55Z" style="fill:#263238"></path><path d="M132.8,188.48a5.86,5.86,0,0,0-6.57,2.15,17.94,17.94,0,0,1-10.39,7.22c-9.1,2.19-22.65-.71-22.65-.71a70.24,70.24,0,0,1,3.56-9.5c2.47-5.5,8.4-9.16,14.73-10,2.69-.37,15.34,4.46,15.34,4.46,19.36-5.46,22.73,15.8,22.73,15.8h-1.83a6.91,6.91,0,0,1,.79,3.76l-5.59,5c-4.18,9.37-13.76,10-14.83,8.4,0,0,12.38-.13,15.58-19.73C144.15,192.35,137.22,189.89,132.8,188.48Z" style="fill:#7E57C2;stroke:#263238;stroke-linecap:round;stroke-linejoin:round"></path><path d="M120.69,182.55l-15.27-2.85-16.35-8.44s-3.37-3.85-4.78-3.85c-.26,0-3.21.5-2.94.85C82.68,170,84,170.47,84,171.13c0,2.14-2.84.66-2.66,1.29.52,1.81,6.42,1.48,6.42,1.48s12.66,7.85,15.29,9.6,13.51,7.1,13.51,7.1S120.67,185.66,120.69,182.55Z" style="fill:#bfbfbf;stroke:#263238;stroke-miterlimit:10"></path><path d="M122.56,188.87c-2.24,3.62-8.18,4-8.18,4l-4.87-4.63-2.25-.62c.93-1.68,1.19-8.64,1.19-8.64s11.2,2.55,12.92,2.15,2.25,4.22,2.25,4.22" style="fill:#7E57C2;stroke:#263238;stroke-linecap:round;stroke-linejoin:round"></path><path d="M125.63,188.87s2.27-3.87,0-6.32c0,0,5.78-3.21,13.09.58s9.87,8.87,10.83,14.72c0,0-4.18-1.53-6,3.61" style="fill:none;stroke:#263238;stroke-linecap:round;stroke-linejoin:round"></path><path d="M149.26,181.75c1.65.47,3.76,3,2.05,3.76s-.84,1.84-.72,2.24.19,1.32-1.33,1.45-1.64-.53-2.24.39.38.37-1.09,1-1.21.69-2.34.73-2.43.7-3.12-1.14S146.3,180.89,149.26,181.75Z" style="fill:#263238"></path><path d="M136.69,176.6c-7.37-.41-9.1,11.77-3.29,19.19S156.47,177.73,136.69,176.6Z" style="fill:#bfbfbf;stroke:#263238;stroke-miterlimit:10"></path><path d="M134.49,184c.81-1.24,3.7,2.5,4,1.58s1.71,1.08,2.31,1.3a4.67,4.67,0,0,0,2.77-.44c.79-.4,3.69,1.37,4.61.52a1.51,1.51,0,0,0,.53-1.71s2.18-.33,2.57-1.25-1.32.42-.46-1.44,3-3,1.44-3.77-2.69-1.65-2.1-3.1.2-3.63-1.12-3.63-4.68.93-4.55-.72-5.27-2.18-6.07-1.12-3-.57-4.15-.55-4.48,2.39-4,3.91-.65,1.56-1.12,3a3.8,3.8,0,0,0,.33,3.28c.4.36-2-.36-1.12,1.68s.92,2.95,1.25,3.08.47-2.29,1.85-2.82.92,3.43.92,3.43S133.51,185.51,134.49,184Z" style="fill:#263238"></path><path d="M134,186.82a4,4,0,0,1,3.28.31" style="fill:none;stroke:#263238;stroke-linecap:round;stroke-linejoin:round"></path><path d="M141.35,187.88a2.13,2.13,0,0,1,2.9,1" style="fill:none;stroke:#263238;stroke-linecap:round;stroke-linejoin:round"></path><path d="M139.51,190.25c-.2,2.11.66,3.63-1.58,3.17" style="fill:none;stroke:#263238;stroke-linecap:round;stroke-linejoin:round"></path><path d="M136,189.66c-.09.38-.36.63-.61.58s-.39-.41-.31-.78.36-.63.61-.57S136,189.29,136,189.66Z" style="fill:#263238"></path><path d="M142.4,190.71c-.08.37-.35.62-.61.57s-.39-.41-.3-.78.36-.63.61-.57S142.49,190.33,142.4,190.71Z" style="fill:#263238"></path></g><g id="freepik--character-3--inject-33"><path d="M398.88,185.85A3.63,3.63,0,0,1,397,186c-2.46-.31-5.92-2.14-6.59-4.76a4.11,4.11,0,0,0-.17-.53,4.66,4.66,0,0,0-3.28-3.32s-1.62-1.32-1.62-2.19,1.07-2.86.81-4.4.51-4.28,1.72-4.94a5.35,5.35,0,0,1,5.82.77c2,1.75,3.85,8,5.72,11.2S400.86,185,398.88,185.85Z" style="fill:#7E57C2"></path><g style="clip-path:url(#freepik--clip-path--inject-33)"><path d="M397,186c-2.46-.31-5.92-2.14-6.59-4.76a4.11,4.11,0,0,0-.17-.53c1.63-.13,4.49-1,4.94-5C395.2,175.69,400.07,181.7,397,186Z" style="fill-opacity:0.7000000000000001;opacity:0.30000000000000004"></path></g><path d="M398.88,185.85A3.63,3.63,0,0,1,397,186c-2.46-.31-5.92-2.14-6.59-4.76a4.11,4.11,0,0,0-.17-.53,4.66,4.66,0,0,0-3.28-3.32s-1.62-1.32-1.62-2.19,1.07-2.86.81-4.4.51-4.28,1.72-4.94a5.35,5.35,0,0,1,5.82.77c2,1.75,3.85,8,5.72,11.2S400.86,185,398.88,185.85Z" style="fill:none;stroke:#263238;stroke-linecap:round;stroke-linejoin:round"></path><path d="M395.2,174.59s-.24,5.12-2.3,5.36" style="fill:none;stroke:#263238;stroke-linecap:round;stroke-linejoin:round"></path><path d="M393.8,231.83,384,205.63c-.09-.26-.18-.52-.25-.79-1.52-5.43.5-12.74,1.79-17.29a33.49,33.49,0,0,0,.89-4.56,75.61,75.61,0,0,0,.59-7.61c3.37-2.49,6,1.67,6,1.67s-.88,3.31,1.54,18.09S400.31,228.49,393.8,231.83Z" style="fill:#fff"></path><g style="clip-path:url(#freepik--clip-path-2--inject-33)"><path d="M391.24,209.2l-7.45-4.36c-1.52-5.43.5-12.74,1.79-17.29a33.49,33.49,0,0,0,.89-4.56C392.52,190.69,391.24,209.2,391.24,209.2Z" style="fill:#7E57C2;opacity:0.4"></path></g><path d="M393.8,231.83,384,205.63c-.09-.26-.18-.52-.25-.79-1.52-5.43.5-12.74,1.79-17.29a33.49,33.49,0,0,0,.89-4.56,75.61,75.61,0,0,0,.59-7.61c3.37-2.49,6,1.67,6,1.67s-.88,3.31,1.54,18.09S400.31,228.49,393.8,231.83Z" style="fill:none;stroke:#263238;stroke-linecap:round;stroke-linejoin:round"></path><path d="M374.16,218.6c-14.73,6.15-59.34-23.08-60.44-23.31,0,0,35.6-6.29,40.89-7.53a2.59,2.59,0,0,0,.65-.2c.16.16,1.8,1.42,4.14,3.35C367.87,197.92,385.46,213.87,374.16,218.6Z" style="fill:#fff"></path><g style="clip-path:url(#freepik--clip-path-3--inject-33)"><path d="M374.16,218.6c-14.73,6.15-59.34-23.08-60.44-23.31,0,0,35.6-6.29,40.89-7.53q2.38,1.49,4.79,3.15C367.87,197.92,385.46,213.87,374.16,218.6Z" style="fill:#7E57C2;opacity:0.4"></path></g><path d="M374.16,218.6c-14.73,6.15-59.34-23.08-60.44-23.31,0,0,35.6-6.29,40.89-7.53a2.59,2.59,0,0,0,.65-.2c.16.16,1.8,1.42,4.14,3.35C367.87,197.92,385.46,213.87,374.16,218.6Z" style="fill:none;stroke:#263238;stroke-linecap:round;stroke-linejoin:round"></path><path d="M396.94,220.6c1.08,8.56-2.24,13.36-9.05,12.06l-.77-.16c-11.93-2.55-13.46-9.55-28.74-22-5.29-4.33-10.47-7.79-14.89-10.88-7-4.93-12.17-8.94-12.85-14-1.1-8.29-11.31-20.31,7.75-27.49,14.32-5.38,38.79,22.25,49.5,39.86a87,87,0,0,1,5.1,9.64" style="fill:#fff"></path><g style="clip-path:url(#freepik--clip-path-4--inject-33)"><path d="M387.12,232.5c-11.93-2.55-13.46-9.55-28.74-22-5.29-4.33-10.47-7.79-14.89-10.88l6.21-1.8,3.8,1.39a189.67,189.67,0,0,1,18.82,20.27A48.33,48.33,0,0,0,387.12,232.5Z" style="fill:#7E57C2;opacity:0.4"></path></g><path d="M396.94,220.6c1.08,8.56-2.24,13.36-9.05,12.06l-.77-.16c-11.93-2.55-13.46-9.55-28.74-22-5.29-4.33-10.47-7.79-14.89-10.88-7-4.93-12.17-8.94-12.85-14-1.1-8.29-11.31-20.31,7.75-27.49,14.32-5.38,38.79,22.25,49.5,39.86a87,87,0,0,1,5.1,9.64" style="fill:none;stroke:#263238;stroke-linecap:round;stroke-linejoin:round"></path><path d="M353.5,158.68c6.81,1.24,22,15.25,22.63,16.7s2.42,4.54,2.42,4.54h1.76s-3.08,12.75-8.13,17.58-25.85,5.49-27.87,4.84a14.7,14.7,0,0,1-4.22-2.64l-15.16-4.41Z" style="fill:#263238"></path><path d="M264.74,185.35c-1.59,3.27-9.45,5.86-10,7.43a7.46,7.46,0,0,1-2.61,3,2.06,2.06,0,0,1,0-2.78c1.27-1.43,1.41-4.49,1.41-4.49a27.74,27.74,0,0,0-3.33-1.28c-.38-.09-1.19-.24-2.14-.4-1.9-.33-4.36-.72-5-.89a5.26,5.26,0,0,1-2-1.29c-1.28.1-3.24-2.57-2.07-2.39a40.44,40.44,0,0,0,9.43,0c-8.14-2-7.37-4-7.37-4,2.55,1.33,9.78,1.75,9.78,1.75s-4.36-1.88-5.12-2.87a1.7,1.7,0,0,1-.14-1.65A29.07,29.07,0,0,0,252,178.1a30.78,30.78,0,0,0,11.85.09h0v0Z" style="fill:#fff"></path><g style="clip-path:url(#freepik--clip-path-5--inject-33)"><path d="M264.74,185.35c-1.59,3.27-9.45,5.86-10,7.43a7.46,7.46,0,0,1-2.61,3,2.06,2.06,0,0,1,0-2.78c1.27-1.43,1.41-4.49,1.41-4.49a27.74,27.74,0,0,0-3.33-1.28c-.38-.09-1.19-.24-2.14-.4,3.88-.07,8.75-.33,10.13-1.23,0,0-1.95-3.83-1.58-6.88a3.85,3.85,0,0,1,1.5-2.78c1.2-.88,3.32.32,5.59,2.28l.05,0Z" style="fill:#7E57C2;opacity:0.4"></path></g><path d="M264.74,185.35c-1.59,3.27-9.45,5.86-10,7.43a7.46,7.46,0,0,1-2.61,3,2.06,2.06,0,0,1,0-2.78c1.27-1.43,1.41-4.49,1.41-4.49a27.74,27.74,0,0,0-3.33-1.28c-.38-.09-1.19-.24-2.14-.4-1.9-.33-4.36-.72-5-.89a5.26,5.26,0,0,1-2-1.29c-1.28.1-3.24-2.57-2.07-2.39a40.44,40.44,0,0,0,9.43,0c-8.14-2-7.37-4-7.37-4,2.55,1.33,9.78,1.75,9.78,1.75s-4.36-1.88-5.12-2.87a1.7,1.7,0,0,1-.14-1.65A29.07,29.07,0,0,0,252,178.1a30.78,30.78,0,0,0,11.85.09h0v0Z" style="fill:none;stroke:#263238;stroke-linecap:round;stroke-linejoin:round"></path><path d="M241.17,184.62s-.86-.15,3-.28a47.92,47.92,0,0,0,5.06-.35" style="fill:none;stroke:#263238;stroke-linecap:round;stroke-linejoin:round"></path><path d="M416.62,139.11c1.87-.44,7.58-4.4,9.67-6.93a28.93,28.93,0,0,0,3.56-5.84,1.71,1.71,0,0,1,.84,1.43c-.05,1.25-2.53,5.29-2.53,5.29s5.66-4.51,7-7.06c0,0,1.81,1.23-3.68,7.56a40.39,40.39,0,0,0,7.71-5.42c.86-.82.79,2.49-.31,3.15a5.2,5.2,0,0,1-.88,2.19c-.65.77-4.33,4.31-5.1,5.19a27.35,27.35,0,0,0-2,3s1.86,2.42,3.73,2.86a2.06,2.06,0,0,1,1.65,2.24,7.45,7.45,0,0,1-3.85-.92c-1.31-1-9.22,1.43-12.41-.33" style="fill:#fff;stroke:#263238;stroke-linecap:round;stroke-linejoin:round"></path><path d="M422.28,145.37S397,158.68,391.52,158.68c-7.36,0-29.23,12.89-29.23,12.89l-8.79-21.19s19.13-3.07,24.39-2.92c5.93.16,10.33-5.31,20-6.23,13.18-1.26,20.88-2.45,20.88-2.45" style="fill:#fff"></path><g style="clip-path:url(#freepik--clip-path-6--inject-33)"><path d="M422.28,145.37S397,158.68,391.52,158.68c-7.36,0-29.23,12.89-29.23,12.89l-8.79-21.19s6.68-1.07,13.23-1.92a24.1,24.1,0,0,1,8.42,11.64s10-3.83,11.61-4.92,0-5.11,0-5.11a13,13,0,0,1,4.61,0c2.64.45.79,4.62.79,4.62a145.14,145.14,0,0,0,30.1-9.36Z" style="fill:#7E57C2;opacity:0.4"></path></g><path d="M422.28,145.37S397,158.68,391.52,158.68c-7.36,0-29.23,12.89-29.23,12.89l-8.79-21.19s19.13-3.07,24.39-2.92c5.93.16,10.33-5.31,20-6.23,13.18-1.26,20.88-2.45,20.88-2.45" style="fill:none;stroke:#263238;stroke-linecap:round;stroke-linejoin:round"></path><path d="M368.22,171.57l-3,1.16-12.84,5s-5.06,10.77-9.67,15.83S321,201,312.18,199.26s-22.19,5.49-28.39,0-21.27-12.31-27.2-21.54c-1.81-2.82-1.2-5.78.53-8.53,3.95-6.27,13.68-11.46,13.68-11.46a128,128,0,0,1,39.87-10.39,108,108,0,0,1,31.71,2c3.38.68,5.38,1.13,5.84.73,1.78-1.55,5.16-1.08,5.82-1l.12,0s-.4-2.52,1.33-3c1.15-.34,3.24.22,7,3C372,156.12,368.22,171.57,368.22,171.57Z" style="fill:#7E57C2"></path><g style="clip-path:url(#freepik--clip-path-7--inject-33)"><path d="M365.24,172.73l-12.84,5s-5.06,10.77-9.67,15.83S321,201,312.18,199.26s-22.19,5.49-28.39,0-21.27-12.31-27.2-21.54c-1.81-2.82-1.2-5.78.53-8.53h0s-.53,11.31,8.71,15.1,10,3.63,10,3.63,8.7,9.4,11.47,10.72,21.49-4.26,23.21-3.51,7.91,5.62,18.06,2.32,19.92-12.53,19.78-18.59a84.69,84.69,0,0,1,.4-10.57s4,4,6.2,4.37c0,0,3.94-5.63,4.48-7.92,0,0,2.14,1.1.61,6.82s4.93-5.23,4.93-9.71C365,158.64,367,165,365.24,172.73Z" style="fill-opacity:0.7000000000000001;opacity:0.30000000000000004"></path><path d="M342.38,149.34c-1.56,2.47-5.95,6.1-18.32,6.45-18.93.53-20-4.37-20-4.37l6.59-4.08A108,108,0,0,1,342.38,149.34Z" style="fill-opacity:0.7000000000000001;opacity:0.30000000000000004"></path><path d="M354,149.1l.12,0s-.4-2.52,1.33-3c2.46,1.47,5.59,3.83,5.58,6.3A39.37,39.37,0,0,0,354,149.1Z" style="fill-opacity:0.7000000000000001;opacity:0.30000000000000004"></path></g><path d="M368.22,171.57l-3,1.16-12.84,5s-5.06,10.77-9.67,15.83S321,201,312.18,199.26s-22.19,5.49-28.39,0-21.27-12.31-27.2-21.54c-1.81-2.82-1.2-5.78.53-8.53,3.95-6.27,13.68-11.46,13.68-11.46a128,128,0,0,1,39.87-10.39,108,108,0,0,1,31.71,2c3.38.68,5.38,1.13,5.84.73,1.78-1.55,5.16-1.08,5.82-1l.12,0s-.4-2.52,1.33-3c1.15-.34,3.24.22,7,3C372,156.12,368.22,171.57,368.22,171.57Z" style="fill:none;stroke:#263238;stroke-linecap:round;stroke-linejoin:round"></path><path d="M323.06,181.22a28.19,28.19,0,0,1-2.65,1.87,26.85,26.85,0,0,1-5.05,2.54c-8.89,3.31-24.68,2.21-34.7-2.34a26.65,26.65,0,0,1-2.92-1.52,18.08,18.08,0,0,1-3.55-2.73c-7.74-7.91-4.4-14.41,0-17.43a27.21,27.21,0,0,1,3.78-2.12c1-.5,2.18-1,3.37-1.41,11.07-4.09,27.73-6,39.12-4.66,1.27.14,2.47.32,3.6.56,4.44.89,7.64,2.43,8.65,4.7C335.89,165.75,330.67,175.24,323.06,181.22Z" style="fill:#fff;stroke:#263238;stroke-linecap:round;stroke-linejoin:round"></path><path d="M323.06,181.22a28.19,28.19,0,0,1-2.65,1.87,42.36,42.36,0,0,1,0-29.67c1.27.14,2.47.32,3.6.56C319,164.13,321.55,176,323.06,181.22Z" style="fill:#263238"></path><path d="M280.66,183.29a26.65,26.65,0,0,1-2.92-1.52,125,125,0,0,1,.23-22.28c1-.5,2.18-1,3.37-1.41C278.92,167.83,279.93,178.28,280.66,183.29Z" style="fill:#263238"></path><path d="M438.86,131.29s.62-.62-2.57,1.47a46.76,46.76,0,0,1-4.34,2.63" style="fill:none;stroke:#263238;stroke-linecap:round;stroke-linejoin:round"></path><path d="M354.16,149.12a13.2,13.2,0,0,1,10,9c2.5,7.87,1.32,10.22,1.32,10.22" style="fill:none;stroke:#263238;stroke-linecap:round;stroke-linejoin:round"></path><path d="M348.22,150.07s-2.68,6.25-2.44,10.86,3.92,10.34,3.92,10.34" style="fill:none;stroke:#263238;stroke-linecap:round;stroke-linejoin:round"></path><path d="M334.67,170.27s-11.47,23-31.52,20.73" style="fill:none;stroke:#263238;stroke-linecap:round;stroke-linejoin:round"></path><path d="M268.05,171.27s-.9,11,16.77,17.36" style="fill:none;stroke:#263238;stroke-linecap:round;stroke-linejoin:round"></path><path d="M352.4,177.72S361,165.55,360,160.67" style="fill:none;stroke:#263238;stroke-linecap:round;stroke-linejoin:round"></path><g style="opacity:0.2"><path d="M377.83,180.71s-6.24,14.47-12.83,14.43" style="fill:none;stroke:#fff;stroke-linecap:round;stroke-linejoin:round"></path><path d="M363.29,176.22s2.11,14.26-4.75,19.53" style="fill:none;stroke:#fff;stroke-linecap:round;stroke-linejoin:round"></path></g><path d="M296.36,177.72c-1.93-4.08-6.48-5.79-10.8-6.45a38.39,38.39,0,0,0-9.7-.14l.38-.78,7.55-15.66s19.72-5.32,23.56,4" style="fill:#fff;stroke:#263238;stroke-linecap:round;stroke-linejoin:round"></path><path d="M285.56,171.27a38.39,38.39,0,0,0-9.7-.14l.38-.78c1.74-1.87,4.83-3.72,9.77-5A7.6,7.6,0,0,1,285.56,171.27Z" style="fill:#263238"></path><path d="M258.22,145.57s-2.14,5.56-9.79.44-2.51-8.81-2.51-8.81-2.5,3.14,4.09,5.79c0,0-5-2-3-8.69S258.22,145.57,258.22,145.57Z" style="fill:#263238"></path><path d="M287.33,164.43c-.84,4.91-10.14,12.48-16.89,11.74-3.14-.35-15.49-8.81-15.11-20.48.27-8.42-6.54-16.55-1.46-29.61,6.17-15.86,28.25-22.89,41.35-8.54,7.48,8.19,4.95,26.42-2.22,40.4" style="fill:#fff;stroke:#263238;stroke-linecap:round;stroke-linejoin:round"></path><path d="M268.05,140.58s5.77-2.24,9.3,1.9" style="fill:none;stroke:#263238;stroke-linecap:round;stroke-linejoin:round"></path><path d="M272,150.08c0,1.09-.53,2-1.17,2s-1.15-.9-1.14-2,.54-2,1.17-2S272,149,272,150.08Z" style="fill:#263238"></path><path d="M259.37,149.13c0,1.1-.53,2-1.17,2s-1.14-.89-1.14-2,.54-2,1.18-2S259.38,148,259.37,149.13Z" style="fill:#263238"></path><path d="M258.3,141.19s-4.13-3-5.74.28" style="fill:none;stroke:#263238;stroke-linecap:round;stroke-linejoin:round"></path><path d="M262.2,150.38c-.16,1.47-4.19,5-2.77,6.49a6.34,6.34,0,0,0,2.87,1.81" style="fill:none;stroke:#263238;stroke-linecap:round;stroke-linejoin:round"></path><path d="M261,162.45a26.46,26.46,0,0,0,12.19-.84" style="fill:none;stroke:#263238;stroke-linecap:round;stroke-linejoin:round"></path><path d="M273.17,161.61s-1.67,5.46-5.81,5.42-4.67-4.35-4.67-4.35" style="fill:none;stroke:#263238;stroke-linecap:round;stroke-linejoin:round"></path><path d="M281.75,135.09s2.36,9.12,6.29,11.65a13,13,0,0,1,5.14,6.1l1.2,6.31s9.45,6.38,14.73,2,8.24-3.84,8.24-3.84-.44-2.42-5-1.65c0,0,10,1,8.46-8S286.91,121.47,281.75,135.09Z" style="fill:#263238"></path><path d="M270.8,127.73s-5.42-1.1-11.67,6.26c-4.09,4.82-10.07,4.29-13.53.83s-3.13-14.34-7.91-14.67c0,0,4.94-2.64,8.4,1.15,0,0,2.31-2.31-.16-5.27s1.2-11,9.5-9.56c0,0-4.08,1-1.19,3.28,0,0,5.37-6.41,12.13-5.75s23.7-7.18,28,6.42c0,0,6.43-2.65,10.22-.67s6.6,12.87,10.72,15.51,9.06-2.15,12.52-1.32,6.1,4.28,6.1,4.28-3.3-1.32-5.6.33c0,0,6.75,4.95,10.05,2,0,0-1.48,14.67-14.34,16.32,0,0,5.28,2.3,12.86,0a44.31,44.31,0,0,1-19.29,7.68c-11,1.38-8.73-6.14-26.42-9.33-5.52-1-5.61-9-5.61-9a19.15,19.15,0,0,0-.44,6.29c.33,3.54,3.3,6.61,5.77,6.64,0,0-7.13,1.26-10.22-2.93-5.29-7.18-2.47-16.81-2.47-16.81s-5.53-2.75-12.19,4.45c-5.41,5.84-9.56,3.95-9.56,3.95a9.61,9.61,0,0,0,5.82-3C264.55,132.18,267.08,127.73,270.8,127.73Z" style="fill:#263238"></path><path d="M288.78,150.38s4.05-7,7.13-4.11,3.42,4.75,2.54,6.62a30.13,30.13,0,0,1-4.07,6.26,2.66,2.66,0,0,1-4.06,0" style="fill:#fff;stroke:#263238;stroke-linecap:round;stroke-linejoin:round"></path><g style="opacity:0.2"><path d="M280.6,124.27s.71-6.85-6.46-6.19c-8.57.79-13.89,14.61-21.58,14.71-7,.09-4.13-9-4.13-9" style="fill:none;stroke:#fff;stroke-linecap:round;stroke-linejoin:round"></path><path d="M284.82,124.41s-4.17,2.42-3.07,8.46,6.5,12.21,15.34,10.12,12.13-2.76,16.75,2,16.21.56,13.84-5.06" style="fill:none;stroke:#fff;stroke-linecap:round;stroke-linejoin:round"></path><path d="M286.67,120.45s3.82,14.64,16.09,13.06,20.54-9.89,25.24-7.13" style="fill:none;stroke:#fff;stroke-linecap:round;stroke-linejoin:round"></path><path d="M289.84,116.16s.92-4.41,7.12.6,9.23,8.57,13.45,6.2" style="fill:none;stroke:#fff;stroke-linecap:round;stroke-linejoin:round"></path><path d="M286,118s3.3-3.12-.79-7.07-16.22,4.61-25.32,4.22-1.6-6.6-1.6-6.6" style="fill:none;stroke:#fff;stroke-linecap:round;stroke-linejoin:round"></path><path d="M289.84,111.22s1.84-6.2-6.2-7.78" style="fill:none;stroke:#fff;stroke-linecap:round;stroke-linejoin:round"></path></g></g><g id="freepik--character-2--inject-33"><path d="M238.59,268.19a9.55,9.55,0,0,1,7.73-2,4,4,0,0,1,3.53,5.14s8.39,7.12,14.89,21S275.59,331,275.59,331l-102.06-5s15.88-25.35,19.21-30.1,10-10.64,10-10.64a5.68,5.68,0,0,1,4.36-3.61c3.56-.79,6.36-.4,7.14.79a3.24,3.24,0,0,1,0,2.82s.27,19.51,2.11,19.82,22.19-1.67,22.19-1.67,2.32-10.61,2.85-12.62L240,274.52S235.5,269.85,238.59,268.19Z" style="fill:#263238"></path><path d="M238,269.71s-2.81-4.33-2.15-5.37,6.86-2.89,8.51-2.48,3.38,7.23,1.69,7.85S238,269.71,238,269.71Z" style="fill:none;stroke:#263238;stroke-linecap:round;stroke-linejoin:round"></path><path d="M213.19,283.4s2.29-3.55,1.75-4.39-5.61-2.37-7-2-2.77,5.91-1.38,6.42S213.19,283.4,213.19,283.4Z" style="fill:none;stroke:#263238;stroke-linecap:round;stroke-linejoin:round"></path><path d="M244.34,288.89s2.37-8.52,6.46-8.61" style="fill:none;stroke:#fff;stroke-linecap:round;stroke-linejoin:round;opacity:0.4"></path><path d="M250.8,286.25s9.13,2.13,12,9.64" style="fill:none;stroke:#fff;stroke-linecap:round;stroke-linejoin:round;opacity:0.4"></path><path d="M194.09,298.55s7.26-7.55,14.91-6.23" style="fill:none;stroke:#fff;stroke-linecap:round;stroke-linejoin:round;opacity:0.4"></path><path d="M206.6,283.4s4.42-1.63,6.13,2.85" style="fill:none;stroke:#fff;stroke-linecap:round;stroke-linejoin:round;opacity:0.4"></path><path d="M241.22,271.22s2.76-3.83,6.35-1.23" style="fill:none;stroke:#fff;stroke-linecap:round;stroke-linejoin:round;opacity:0.4"></path><path d="M393.07,409.84l-8,12.05a18.38,18.38,0,0,0,.8,1.89c1.07,2.24,3.25,5.85,6.75,7.49,4.87,2.29,6.09,5.06,8.92,4.18a4,4,0,0,0,.69-.26c3.34-1.58.81-4.22,1.9-6.33s5.92-2.72,7.68-4.4.72-4,1.64-6.16-1.44-4.16-2.69-4.67-1.1-4.54-3.77-4-3.11-1.86-3.68-2.44S394.42,409.13,393.07,409.84Z" style="fill:#fff"></path><g style="clip-path:url(#freepik--clip-path-8--inject-33)"><path d="M385.86,423.78c1.07,2.24,3.25,5.85,6.75,7.49,4.87,2.29,6.09,5.06,8.92,4.18-2.39-1.52-4.35-3.67-4.94-5.27C395.76,428,390.38,425.11,385.86,423.78Z" style="fill:#7E57C2;opacity:0.4"></path></g><path d="M393.07,409.84l-8,12.05a18.38,18.38,0,0,0,.8,1.89c1.07,2.24,3.25,5.85,6.75,7.49,4.87,2.29,6.09,5.06,8.92,4.18a4,4,0,0,0,.69-.26c3.34-1.58.81-4.22,1.9-6.33s5.92-2.72,7.68-4.4.72-4,1.64-6.16-1.44-4.16-2.69-4.67-1.1-4.54-3.77-4-3.11-1.86-3.68-2.44S394.42,409.13,393.07,409.84Z" style="fill:none;stroke:#263238;stroke-linecap:round;stroke-linejoin:round"></path><path d="M396,411.28l-21.52-10.5c-5.38-2.63-16.69-7.77-22.36-10.59a13.83,13.83,0,0,0-5.3-1.58c-2.2-.14-3.66.46-5.28.26-2.63-.33-22.16-.95-22.16-.95L316,400.3l-6.85,25.15,7.2-2.41L344,413.77s10.65,4.7,21.18,4.58c8.35-.1,18.7,4.41,22.64,6.29,1,.49,1.62.8,1.62.8" style="fill:#fff"></path><g style="clip-path:url(#freepik--clip-path-9--inject-33)"><path d="M319.39,387.92,316,400.3l.35,22.74L344,413.77s10.65,4.7,21.18,4.58c8.35-.1,18.7,4.41,22.64,6.29-6.48-4.93-17.94-9.13-22.56-9.27-7.23-.21-15.57-7.32-15.57-7.32-3.5,3.85-9.78,3.64-9.78,3.64,8.72-9.94,8.35-18.3,6.91-23.08-2.2-.14-3.66.46-5.28.26C338.92,388.54,319.39,387.92,319.39,387.92Z" style="fill:#7E57C2;opacity:0.4"></path></g><path d="M396,411.28l-21.52-10.5c-5.38-2.63-16.69-7.77-22.36-10.59a13.83,13.83,0,0,0-5.3-1.58c-2.2-.14-3.66.46-5.28.26-2.63-.33-22.16-.95-22.16-.95L316,400.3l-6.85,25.15,7.2-2.41L344,413.77s10.65,4.7,21.18,4.58c8.35-.1,18.7,4.41,22.64,6.29,1,.49,1.62.8,1.62.8" style="fill:none;stroke:#263238;stroke-linecap:round;stroke-linejoin:round"></path><path d="M70,312.93V327.4a17.31,17.31,0,0,1-1.71,1.13c-2.13,1.27-6,3.07-9.77,2.5-5.32-.79-7.87.84-9.74-1.45a4.88,4.88,0,0,1-.43-.6c-1.91-3.17,1.66-4,1.92-6.33s-3.43-5.54-4-7.91,1.59-3.7,2-6,3.5-2.67,4.82-2.4,3.43-3.17,5.35-1.23,3.62.17,4.41,0S69.23,311.59,70,312.93Z" style="fill:#fff"></path><g style="clip-path:url(#freepik--clip-path-10--inject-33)"><path d="M68.25,328.53c-2.13,1.27-6,3.07-9.77,2.5-5.32-.79-7.87.84-9.74-1.45,2.83.05,5.65-.65,7-1.66C57.69,326.53,63.75,327.13,68.25,328.53Z" style="fill:#7E57C2;opacity:0.4"></path></g><path d="M70,312.93V327.4a17.31,17.31,0,0,1-1.71,1.13c-2.13,1.27-6,3.07-9.77,2.5-5.32-.79-7.87.84-9.74-1.45a4.88,4.88,0,0,1-.43-.6c-1.91-3.17,1.66-4,1.92-6.33s-3.43-5.54-4-7.91,1.59-3.7,2-6,3.5-2.67,4.82-2.4,3.43-3.17,5.35-1.23,3.62.17,4.41,0S69.23,311.59,70,312.93Z" style="fill:none;stroke:#263238;stroke-linecap:round;stroke-linejoin:round"></path><path d="M66.71,312.5l23.74,3.16c5.93.79,18.2,2.77,24.48,3.56a13.79,13.79,0,0,1,5.29,1.61c1.91,1.1,2.8,2.41,4.25,3.14,2.38,1.18,19,11.47,19,11.47l-4.05,12.18-8.21,24.74-4.66-6-17.89-23s-11.47-2-20.18-7.91c-6.9-4.7-18-6.67-22.34-7.29-1.13-.16-1.79-.23-1.79-.23" style="fill:#fff"></path><g style="clip-path:url(#freepik--clip-path-11--inject-33)"><path d="M143.46,335.44l-4.05,12.18-12.87,18.75-17.89-23s-11.47-2-20.18-7.91c-6.9-4.7-18-6.67-22.34-7.29,8.13-.52,20,2.33,23.92,4.77,6.14,3.82,17,2.52,17,2.52.79,5.14,6.13,8.44,6.13,8.44-1.76-13.11,3.18-19.86,7-23.05,1.91,1.1,2.8,2.41,4.25,3.14C126.85,325.15,143.46,335.44,143.46,335.44Z" style="fill:#7E57C2;opacity:0.4"></path></g><path d="M66.71,312.5l23.74,3.16c5.93.79,18.2,2.77,24.48,3.56a13.79,13.79,0,0,1,5.29,1.61c1.91,1.1,2.8,2.41,4.25,3.14,2.38,1.18,19,11.47,19,11.47l-4.05,12.18-8.21,24.74-4.66-6-17.89-23s-11.47-2-20.18-7.91c-6.9-4.7-18-6.67-22.34-7.29-1.13-.16-1.79-.23-1.79-.23" style="fill:none;stroke:#263238;stroke-linecap:round;stroke-linejoin:round"></path><path d="M159.93,337.61l-7.87,60-.38,2.93s-19.68-15.67-32-35.92c-.67-1.11-1.27-2.19-1.79-3.26-9-18.43,4.42-30.61,16.39-34.3,12.65-3.9,7.48,3.95,7.48,3.95C150.83,329.78,159.93,337.61,159.93,337.61Z" style="fill:#757575"></path><g style="clip-path:url(#freepik--clip-path-12--inject-33)"><path d="M152.06,397.63l-.38,2.93s-19.68-15.67-32-35.92c-.67-1.11-1.27-2.19-1.79-3.26-.94-4.9-1.44-9.35-.65-11,2.11-4.49,8.7-6.47,8.7-6.47s2.53,28.61,8.7,37.11a95.28,95.28,0,0,0,14.62,15.42Z" style="fill-opacity:0.7000000000000001;opacity:0.30000000000000004"></path></g><path d="M159.93,337.61l-7.87,60-.38,2.93s-19.68-15.67-32-35.92c-.67-1.11-1.27-2.19-1.79-3.26-9-18.43,4.42-30.61,16.39-34.3,12.65-3.9,7.48,3.95,7.48,3.95C150.83,329.78,159.93,337.61,159.93,337.61Z" style="fill:none;stroke:#263238;stroke-linecap:round;stroke-linejoin:round"></path><path d="M336.87,415.54a36.46,36.46,0,0,1-12.33,6.86c-15.88,5.35-54.85,9.6-54.85,9.6l2.23-4.28,26.35-50.64s31.64,2.79,37.9,8.87c0,0-.79-9.34,6.31,4.21C347.43,399.61,344.48,408.94,336.87,415.54Z" style="fill:#757575"></path><g style="clip-path:url(#freepik--clip-path-13--inject-33)"><path d="M336.87,415.54a36.46,36.46,0,0,1-12.33,6.86c-15.88,5.35-54.85,9.6-54.85,9.6l2.23-4.28c13.65-2.21,33.5-6.52,38.4-10.76,7-6,5,.63,5,.63s12.39-9.75,15.29-17.14,5.34-8.41,6.23-3.54A22.7,22.7,0,0,1,332,415.44C329.5,418.44,332.72,417.87,336.87,415.54Z" style="fill-opacity:0.7000000000000001;opacity:0.30000000000000004"></path></g><path d="M336.87,415.54a36.46,36.46,0,0,1-12.33,6.86c-15.88,5.35-54.85,9.6-54.85,9.6l2.23-4.28,26.35-50.64s31.64,2.79,37.9,8.87c0,0-.79-9.34,6.31,4.21C347.43,399.61,344.48,408.94,336.87,415.54Z" style="fill:none;stroke:#263238;stroke-linecap:round;stroke-linejoin:round"></path><path d="M136.14,377.08c-9-19.79,18.71-42.9,18.71-42.9L166,332.34c1.14-18.66,39.87-35.07,52.83-36.35,20.62-2,61.72,25.7,71.7,40.08s6.06,32,6.06,32,24.34,19.57,25.82,32.47-41,42.13-88,28.49S156.92,422.54,136.14,377.08Z" style="fill:#757575"></path><g style="clip-path:url(#freepik--clip-path-14--inject-33)"><path d="M232.2,318.36c-25.85-5.07-52.14,13.44-52.14,13.44-4.11-.09-11.65.48-15.9.84l1.8-.3c.4-6.57,5.46-12.86,12.41-18.3,13.83-5.54,31.74-10.58,33.16-9.59,2,1.37-12.71,8.85-16.65,10.82,19-9.14,32.66-3.65,37.32-.8S232.2,318.36,232.2,318.36Z" style="fill-opacity:0.7000000000000001;opacity:0.30000000000000004"></path><path d="M296.56,368.06c-2.74-2.22-6.64-5.11-9.92-6.44,0,0-3.4-14.44-31.89-29.82,0,0-3.25-3.9-2.74-5.73,1.21-4.37,24.47,7.82,25.09,8.14-.36-.36-8.09-8.15-2.53-8.49,4-.24,14,9.74,20.28,18.91h0A47.24,47.24,0,0,1,296.56,368.06Z" style="fill-opacity:0.7000000000000001;opacity:0.30000000000000004"></path><path d="M215,335.44s27.61,4.14,49.65,15.16c0,0-16.59-16.25-29.37-19.46s-24-2.88-24.7-.15S215,335.44,215,335.44Z" style="fill-opacity:0.7000000000000001;opacity:0.30000000000000004"></path><path d="M259.52,429.2c6.1,0,39.82-5.54,49.39-11.26-16,10.94-44.32,19.88-74.5,11.11-40.74-11.83-69.12-8-89.49-36.51,2.53,2.4,4.32,3.87,4.32,3.87l24.29,10.45s-14.15-26.08,12.5-23.23,50.71,37.85,50.71,37.85,11.82-.89,10,1.57-6.71,3.3-6.71,3.3S253.07,429.2,259.52,429.2Z" style="fill-opacity:0.7000000000000001;opacity:0.30000000000000004"></path><path d="M312.65,415.18c-.72.58-1.47,1.15-2.26,1.72A17.83,17.83,0,0,1,312.65,415.18Z" style="fill-opacity:0.7000000000000001;opacity:0.30000000000000004"></path></g><path d="M136.14,377.08c-9-19.79,18.71-42.9,18.71-42.9L166,332.34c1.14-18.66,39.87-35.07,52.83-36.35,20.62-2,61.72,25.7,71.7,40.08s6.06,32,6.06,32,24.34,19.57,25.82,32.47-41,42.13-88,28.49S156.92,422.54,136.14,377.08Z" style="fill:none;stroke:#263238;stroke-linecap:round;stroke-linejoin:round"></path><path d="M221.59,425.69s19.15,3.11,27.28-4.21" style="fill:none;stroke:#263238;stroke-linecap:round;stroke-linejoin:round"></path><path d="M296.55,368.09s-7.9-7.73-22.14-10.5" style="fill:none;stroke:#263238;stroke-linecap:round;stroke-linejoin:round"></path><path d="M253.61,315.74a175.34,175.34,0,0,1,22,15.29" style="fill:none;stroke:#263238;stroke-linecap:round;stroke-linejoin:round"></path><path d="M189.56,318.26C208,307,232,300,250.11,313.75" style="fill:none;stroke:#263238;stroke-linecap:round;stroke-linejoin:round"></path><path d="M181,323.37c1.66-1,3.32-2,5-3" style="fill:none;stroke:#263238;stroke-linecap:round;stroke-linejoin:round"></path><path d="M262.82,336.46c11.07,6.88,22.86,15.7,28.58,27.78" style="fill:none;stroke:#263238;stroke-linecap:round;stroke-linejoin:round"></path><path d="M250.8,329.8c3,1.42,5.87,3,8.72,4.67" style="fill:none;stroke:#263238;stroke-linecap:round;stroke-linejoin:round"></path><path d="M289.71,341.18s6.83,12.69,6.84,26.91" style="fill:none;stroke:#263238;stroke-linecap:round;stroke-linejoin:round"></path><path d="M192.32,333.21a58.18,58.18,0,0,1,8,2.23" style="fill:none;stroke:#263238;stroke-linecap:round;stroke-linejoin:round"></path><path d="M154.85,334.18a90.51,90.51,0,0,1,32.87-1.74" style="fill:none;stroke:#263238;stroke-linecap:round;stroke-linejoin:round"></path><path d="M208.12,319a80.54,80.54,0,0,0-28.06,12.85" style="fill:none;stroke:#263238;stroke-linecap:round;stroke-linejoin:round"></path><path d="M235.85,319.42c-7.43-2.66-16.09-2.49-23.75-1.24" style="fill:none;stroke:#263238;stroke-linecap:round;stroke-linejoin:round"></path><path d="M333.55,403.51c-6.88,11.6-18.2,19.72-30.92,23.87" style="fill:none;stroke:#263238;stroke-linecap:round;stroke-linejoin:round"></path><path d="M338,393.36a35.33,35.33,0,0,1-2.76,7.09" style="fill:none;stroke:#263238;stroke-linecap:round;stroke-linejoin:round"></path><path d="M307.59,378.15s14.55,2.52,19.3,11" style="fill:none;stroke:#263238;stroke-linecap:round;stroke-linejoin:round"></path><path d="M141.74,331s-10.54-.93-14.23,6.42" style="fill:none;stroke:#263238;stroke-linecap:round;stroke-linejoin:round"></path><path d="M128.3,355.19c-.72,15.88,6.52,30.43,18.86,40.3" style="fill:none;stroke:#263238;stroke-linecap:round;stroke-linejoin:round"></path><path d="M130.14,344a40.52,40.52,0,0,0-1.58,7.78" style="fill:none;stroke:#263238;stroke-linecap:round;stroke-linejoin:round"></path><path d="M252,389.36c-10-13.36-28-17.36-44-17" style="fill:none;stroke:#263238;stroke-linecap:round;stroke-linejoin:round"></path><path d="M258.58,400.56a36.89,36.89,0,0,0-4.4-8.3" style="fill:none;stroke:#263238;stroke-linecap:round;stroke-linejoin:round"></path><path d="M223,423.82a97.63,97.63,0,0,1-18.8-2.73q-2.59-.61-4.93-1.29C161.8,409,170.73,387.45,182.2,381c19.1-10.73,46.43-.52,60.84,13.08C258.19,408.37,251,424.81,223,423.82Z" style="fill:#fff;stroke:#263238;stroke-linecap:round;stroke-linejoin:round"></path><path d="M223,423.82a97.63,97.63,0,0,1-18.8-2.73q-2.59-.61-4.93-1.29A89.5,89.5,0,0,1,209,406.86C209.73,407.44,224.52,413.75,223,423.82Z" style="fill:#263238"></path><path d="M221.65,414.32c0,7.89-12,24.13-31.82,24-11-.06-21.82-17.69-22.77-41.87-.75-19-9.78-40.78,13.61-56.68,23.55-16,55.18-3.48,55.18,31.5,0,11.35-1.14,21.71-3.88,30.75" style="fill:#fff;stroke:#263238;stroke-linecap:round;stroke-linejoin:round"></path><path d="M188.79,382.5s10.39-3.15,17.21,3.14" style="fill:none;stroke:#263238;stroke-linecap:round;stroke-linejoin:round"></path><path d="M175.15,381.71s-4.39-4-9.82-2.09" style="fill:none;stroke:#263238;stroke-linecap:round;stroke-linejoin:round"></path><path d="M197.4,395.51c0,1.86-.91,3.36-2,3.35s-2-1.52-1.94-3.38.91-3.36,2-3.35S197.41,393.65,197.4,395.51Z" style="fill:#263238"></path><path d="M174.17,393.38c0,1.85-.91,3.35-2,3.34s-1.95-1.52-1.93-3.38.91-3.36,2-3.35S174.18,391.52,174.17,393.38Z" style="fill:#263238"></path><path d="M177.1,385.64a91.86,91.86,0,0,1,0,11.15c-.69,6.46-3.73,11-2.59,12.42,1.49,1.91,8.72,2.56,8.72,2.56" style="fill:none;stroke:#263238;stroke-linecap:round;stroke-linejoin:round"></path><path d="M178.74,416.64s13.14,2.56,23.25-1.34c0,0,2.31,3.17-4,6.46s-16.08,3.41-16.69-4" style="fill:none;stroke:#263238;stroke-linecap:round;stroke-linejoin:round"></path><path d="M206,371.14s4.55,12.85,10.07,17.53l2,6.82s4.22-7.14,9.09-3.57,3.23,14.94,3.23,14.94,15-7.14,15.28-15.26A34.51,34.51,0,0,1,248.87,378s-3.25,1.31-4.55,3.72c0,0,7.15-15.44,2.6-19.34S206,371.14,206,371.14Z" style="fill:#7E57C2"></path><g style="clip-path:url(#freepik--clip-path-15--inject-33)"><path d="M206,371.14s4.55,12.85,10.07,17.53l2,6.82s4.22-7.14,9.09-3.57,3.23,14.94,3.23,14.94,15-7.14,15.28-15.26A34.51,34.51,0,0,1,248.87,378s-3.25,1.31-4.55,3.72c0,0,7.15-15.44,2.6-19.34S206,371.14,206,371.14Z" style="fill-opacity:0.7000000000000001;opacity:0.30000000000000004"></path></g><path d="M206,371.14s4.55,12.85,10.07,17.53l2,6.82s4.22-7.14,9.09-3.57,3.23,14.94,3.23,14.94,15-7.14,15.28-15.26A34.51,34.51,0,0,1,248.87,378s-3.25,1.31-4.55,3.72c0,0,7.15-15.44,2.6-19.34S206,371.14,206,371.14Z" style="fill:none;stroke:#263238;stroke-linecap:round;stroke-linejoin:round"></path><path d="M245.3,371.46,229,377.09a57.61,57.61,0,0,1-26.57-.43c-14-3.84-21.75-10.82-23.35-12.36l-.31-.31c1,3.9,4.49,8.77,4.49,8.77-10.11-1-15.22-11-15.22-11-3.57,4.55-3,14.62-3,14.62-5.91-14.51-.29-22.09-.29-22.09-2.31-12,2-16.56,2-16.56l3.53,2.27c6.45-14.29,25.19-13.89,25.19-13.89l-2.74,3.17c15.59-7.14,48.06,0,48.06,0l1.63,13.64,5.19-1.62c.15.38.29.78.41,1.18a63.88,63.88,0,0,1,2.51,15.22c0,.1,0,.16,0,.16l1.88-1.29,3.31-2.28S256,364,245.3,371.46Z" style="fill:#7E57C2"></path><g style="clip-path:url(#freepik--clip-path-16--inject-33)"><path d="M211.53,361.62c28,3.29,36.22-18.54,36.45-19.18a63.88,63.88,0,0,1,2.51,15.22C231.35,368.46,211.53,361.62,211.53,361.62Z" style="fill-opacity:0.7000000000000001;opacity:0.30000000000000004"></path><path d="M245.3,371.46,229,377.09a57.61,57.61,0,0,1-26.57-.43c-14-3.84-21.75-10.82-23.35-12.36a17.6,17.6,0,0,1-1.55-2.64c.41.73,6.72,11.23,34,14.86,28.29,3.76,44.16-22.27,44.16-22.27S256,364,245.3,371.46Z" style="fill-opacity:0.7000000000000001;opacity:0.30000000000000004"></path><path d="M183.23,341.18s3.13-7.64,16-11.38c0,0-11.62.5-17.16,8.67,0,0-.24-3.65,1.13-5.55,0,0-8.16-.42-9.7,11.11,0,0-4.55.86-6.35-1.6,0,0-2,6.34,5,8.17,0,0-4.51,5.71,2.06,13.72,0,0-.86-7.25,2-12.06,0,0,.59,8.13,14.27,11.15,0,0-11.87-6.12-9.53-16.35,0,0,3.78,9.72,20.51,9.13,0,0-15.28-4.48-17.32-12.31a20.3,20.3,0,0,1,12.07-1.45S188.85,339.66,183.23,341.18Z" style="fill-opacity:0.7000000000000001;opacity:0.30000000000000004"></path></g><path d="M245.3,371.46,229,377.09a57.61,57.61,0,0,1-26.57-.43c-14-3.84-21.75-10.82-23.35-12.36l-.31-.31c1,3.9,4.49,8.77,4.49,8.77-10.11-1-15.22-11-15.22-11-3.57,4.55-3,14.62-3,14.62-5.91-14.51-.29-22.09-.29-22.09-2.31-12,2-16.56,2-16.56l3.53,2.27c6.45-14.29,25.19-13.89,25.19-13.89l-2.74,3.17c15.59-7.14,48.06,0,48.06,0l1.63,13.64,5.19-1.62c.15.38.29.78.41,1.18a63.88,63.88,0,0,1,2.51,15.22c0,.1,0,.16,0,.16l1.88-1.29,3.31-2.28S256,364,245.3,371.46Z" style="fill:none;stroke:#263238;stroke-linecap:round;stroke-linejoin:round"></path><path d="M221.59,393.36s5.2-11.09,10.72-7.72,4.81,9.78,3.54,13.06-7.11,18.55-12.31,9.78" style="fill:#fff;stroke:#263238;stroke-linecap:round;stroke-linejoin:round"></path><path d="M174.26,350.6c-2.82,1.63-4,10.24,2,16.22" style="fill:none;stroke:#263238;stroke-linecap:round;stroke-linejoin:round"></path><path d="M178.74,349.29c0,11.38,19.91,21.16,42.85,19.18s25.12-7.63,25.12-7.63" style="fill:none;stroke:#263238;stroke-linecap:round;stroke-linejoin:round"></path><path d="M185.79,347.31c7.12,11.4,46.46,14.24,52.8-6.13" style="fill:none;stroke:#263238;stroke-linecap:round;stroke-linejoin:round"></path><path d="M178.74,343.88c-2.79-.88-1-9.1,5.86-12.85" style="fill:none;stroke:#263238;stroke-linecap:round;stroke-linejoin:round"></path><path d="M167.33,339.79c-1,2.7,1.14,9.69,6.54,8.31" style="fill:none;stroke:#263238;stroke-linecap:round;stroke-linejoin:round"></path><path d="M252.38,356.53l3.31-2.28C254.59,355.08,253.49,355.84,252.38,356.53Z" style="fill-opacity:0.7000000000000001;opacity:0.30000000000000004"></path></g></svg>
