<svg width="450" height="443" viewBox="0 0 450 443" fill="none" xmlns="http://www.w3.org/2000/svg">
<path d="M447.7 215.51C442.7 257.51 423.57 306.31 385.28 328.73C327.44 362.62 332.28 414.73 219.37 437.41C202.904 440.792 186.118 442.375 169.31 442.13C161.086 441.989 152.879 441.321 144.74 440.13C73 429.65 24.69 379.77 7.00001 319.56C-16.32 240.37 30.24 188.56 61.1 157.29C91.96 126.02 114.52 28.73 225.35 5.58C242.255 1.97975 259.519 0.33893 276.8 0.689999C316.23 1.69 359.24 14.6 389 41.63C391.233 43.63 393.407 45.73 395.52 47.93C436.88 90.39 454.46 158.28 447.7 215.51Z" fill="#92E3A9"/>
<path opacity="0.7" d="M447.7 215.51C442.7 257.51 423.57 306.31 385.28 328.73C327.44 362.62 332.28 414.73 219.37 437.41C202.904 440.792 186.118 442.375 169.31 442.13C161.086 441.989 152.879 441.321 144.74 440.13C73 429.65 24.69 379.77 7.00001 319.56C-16.32 240.37 30.24 188.56 61.1 157.29C91.96 126.02 114.52 28.73 225.35 5.58C242.255 1.97975 259.519 0.33893 276.8 0.689999C316.23 1.69 359.24 14.6 389 41.63C391.233 43.63 393.407 45.73 395.52 47.93C436.88 90.39 454.46 158.28 447.7 215.51Z" fill="white"/>
</svg>
