<svg width="498" height="125" viewBox="0 0 498 125" fill="none" xmlns="http://www.w3.org/2000/svg">
<path d="M27.6635 121.837C27.5233 121.777 27.4107 121.667 27.3478 121.528C27.2849 121.389 27.2762 121.232 27.3235 121.087C31.4589 108.528 38.7419 97.2365 48.4782 88.2896C58.2146 79.3428 70.0799 73.0383 82.9435 69.9771C83.1011 69.944 83.2654 69.9735 83.4016 70.0593C83.5379 70.1452 83.6354 70.2807 83.6735 70.4371C83.7096 70.5935 83.6826 70.7579 83.5984 70.8946C83.5142 71.0312 83.3794 71.1292 83.2235 71.1671C70.5664 74.1757 58.8905 80.3752 49.3083 89.1749C39.7261 97.9747 32.5568 109.081 28.4835 121.437C28.4309 121.589 28.3212 121.715 28.1775 121.788C28.0337 121.861 27.8673 121.875 27.7135 121.827L27.6635 121.837Z" fill="#263238"/>
<path d="M48.0934 105.537C42.3434 100.777 33.2434 108.667 33.3834 108.947C32.7434 110.047 32.1234 111.177 31.5334 112.327C32.7934 111.157 36.9634 110.497 42.4534 111.727C47.9334 112.737 53.7334 109.857 48.0934 105.537Z" fill="#263238"/>
<path d="M30.8835 92.5871C25.0735 88.1271 22.2435 97.8071 26.0235 102.317C29.5935 106.867 31.5135 110.577 31.4335 112.317C31.9535 111.137 32.4935 109.967 33.0635 108.807C32.7735 108.737 36.2135 96.9771 30.8835 92.5871Z" fill="#263238"/>
<path d="M55.4634 97.2871C50.5934 91.6471 40.3734 97.7971 40.4634 98.0771C39.6501 99.0438 38.8601 100.044 38.0934 101.077C39.5234 100.167 43.7234 100.257 48.9034 102.407C54.0934 104.327 60.3034 102.507 55.4634 97.2871Z" fill="#263238"/>
<path d="M40.6734 81.6372C35.6734 76.2672 31.3334 85.2672 34.3234 90.3272C37.0834 95.3872 38.3734 99.3272 38.0134 100.987C38.7134 99.9172 39.4334 98.8771 40.1834 97.8471C39.9034 97.7771 45.1934 86.9072 40.6734 81.6372Z" fill="#263238"/>
<path d="M64.0935 90.4272C60.2335 84.0572 49.1634 88.3771 49.2234 88.6671C48.2234 89.4771 47.3235 90.3172 46.4135 91.1772C47.9635 90.5272 52.0735 91.3372 56.8135 94.3272C61.5935 97.1372 67.9735 96.3772 64.0935 90.4272Z" fill="#263238"/>
<path d="M52.0935 72.5172C48.0935 66.3972 42.3035 74.5172 44.4135 80.0072C46.2935 85.4472 46.9035 89.5471 46.2935 91.0971C47.1535 90.1771 48.0334 89.2772 48.9334 88.3972C48.6834 88.2872 55.6835 78.4772 52.0935 72.5172Z" fill="#263238"/>
<path d="M73.7334 85.0871C70.9834 78.1671 59.3334 80.5871 59.3434 80.8771C58.2634 81.5171 57.2034 82.1871 56.1534 82.8771C57.7934 82.4971 61.7034 83.9871 65.8834 87.7271C70.1434 91.3071 76.5734 91.6071 73.7334 85.0871Z" fill="#263238"/>
<path d="M64.9435 65.4272C62.0135 58.7272 54.9435 65.7871 56.0835 71.5371C57.0835 77.2271 56.9535 81.3671 56.0835 82.7871C57.0835 82.0271 58.0835 81.2871 59.0835 80.5671C58.8935 80.4171 67.4435 71.9072 64.9435 65.4272Z" fill="#263238"/>
<path d="M84.2334 81.4272C82.6834 74.1372 70.6934 74.5871 70.6734 74.8771C69.4934 75.3271 68.3334 75.8172 67.1834 76.3272C68.8634 76.2272 72.4834 78.3271 75.9834 82.7271C79.5834 86.9771 85.9234 88.3272 84.2334 81.4272Z" fill="#263238"/>
<path d="M78.8935 60.5571C77.1235 53.4571 68.8934 59.2472 69.0434 65.1172C69.0434 70.8872 68.2235 74.9671 67.1335 76.2271C68.2435 75.6371 69.3835 75.0771 70.5235 74.5371C70.2935 74.3471 80.2535 67.3671 78.8935 60.5571Z" fill="#263238"/>
<path d="M77.4734 72.1172C77.3034 72.0172 86.3434 65.9271 92.2334 64.9671C97.9934 63.8571 100.233 67.9172 99.2334 70.2972C98.2334 72.6772 94.2334 73.2972 90.8434 73.1072C87.4834 72.6372 77.5234 71.9772 77.4734 72.1172Z" fill="#263238"/>
<path d="M77.3234 72.4872C77.2507 72.444 77.1926 72.3798 77.1569 72.3031C77.1213 72.2264 77.1096 72.1406 77.1234 72.0571C77.1317 72.0001 77.1558 71.9464 77.1929 71.9023C77.23 71.8581 77.2786 71.8251 77.3334 71.8071C78.7834 70.4171 87.1534 65.4571 92.2134 64.6271C95.0434 64.0871 97.4734 64.7271 98.8634 66.4071C99.3448 66.9603 99.6714 67.6309 99.8101 68.3509C99.9488 69.0709 99.8948 69.8148 99.6534 70.5072C98.4234 73.7572 92.6534 73.6772 90.8734 73.5772C87.5834 73.1172 78.5134 72.4872 77.6534 72.5772C77.5952 72.5868 77.5356 72.5837 77.4786 72.5682C77.4217 72.5527 77.3687 72.525 77.3234 72.4872ZM96.4534 65.6072C95.1262 65.1258 93.6874 65.0424 92.3134 65.3672C87.6634 66.1272 81.1134 70.0672 78.7034 71.6972C79.5534 71.6972 80.8834 71.8171 82.9534 71.9671C85.6134 72.1571 89.1034 72.4572 90.9534 72.7072C94.2334 72.8972 98.0734 72.3372 98.9534 70.1472C99.1392 69.5897 99.1751 68.9932 99.0575 68.4175C98.9399 67.8417 98.673 67.3071 98.2834 66.8672C97.7925 66.2962 97.162 65.8621 96.4534 65.6072Z" fill="#263238"/>
<path d="M21.3434 123.287C21.0978 123.289 20.86 123.2 20.6756 123.038C20.4911 122.876 20.3729 122.651 20.3434 122.407C18.8513 101.957 22.6208 81.4663 31.2928 62.8865C39.9648 44.3066 53.2504 28.257 69.8834 16.2671C69.9839 16.1949 70.0976 16.1432 70.2181 16.1149C70.3385 16.0866 70.4634 16.0823 70.5855 16.1023C70.7076 16.1222 70.8245 16.1661 70.9297 16.2312C71.0349 16.2964 71.1262 16.3817 71.1984 16.4821C71.2707 16.5826 71.3224 16.6963 71.3507 16.8168C71.379 16.9372 71.3832 17.0621 71.3633 17.1842C71.3433 17.3063 71.2995 17.4233 71.2343 17.5284C71.1691 17.6336 71.0839 17.7249 70.9834 17.7971C54.6231 29.6052 41.5584 45.4053 33.0336 63.6924C24.5088 81.9795 20.8079 102.145 22.2834 122.267C22.2855 122.511 22.1982 122.748 22.0379 122.932C21.8777 123.116 21.6555 123.235 21.4134 123.267L21.3434 123.287Z" fill="#92E3A9"/>
<path d="M40.9634 87.8171C29.9634 84.4071 21.5335 101.097 21.9035 101.417C21.6301 103.417 21.4134 105.397 21.2534 107.357C22.3734 104.937 27.9534 101.527 36.5434 100.037C45.0034 98.2471 51.6134 90.6771 40.9634 87.8171Z" fill="#92E3A9"/>
<path d="M8.62345 79.4471C-2.37655 76.4471 -0.666551 92.0471 7.43345 96.2771C15.2334 100.687 20.1835 104.857 21.0835 107.347C21.0835 105.347 21.2035 103.347 21.3335 101.347C20.9035 101.477 18.8935 82.6371 8.62345 79.4471Z" fill="#92E3A9"/>
<path d="M46.6534 71.6371C36.3334 66.4371 25.3234 81.2971 25.6534 81.6371C25.0634 83.4971 24.5234 85.3871 24.0234 87.2871C25.5334 85.1371 31.6034 82.7771 40.3134 82.7971C48.9134 82.5171 56.6734 76.2471 46.6534 71.6371Z" fill="#92E3A9"/>
<path d="M16.1834 57.9771C5.87343 53.2371 4.94343 68.7171 12.1834 74.2071C19.1834 79.8271 23.3234 84.7271 23.7934 87.2971C24.1534 85.3571 24.5734 83.4371 25.0334 81.5171C24.6334 81.5471 25.7734 62.8271 16.1834 57.9771Z" fill="#92E3A9"/>
<path d="M54.9334 56.6971C45.6234 49.8571 32.3234 62.6071 32.5634 62.9871C31.6701 64.7205 30.8234 66.4738 30.0234 68.2471C31.8634 66.3971 38.2334 65.1171 46.8034 66.6071C55.3534 67.7871 64.0334 62.9771 54.9334 56.6971Z" fill="#92E3A9"/>
<path d="M27.1835 38.1071C17.8135 31.7071 14.3335 46.7871 20.6035 53.3871C26.5235 60.0871 29.8335 65.5871 29.8735 68.1771C30.5401 66.3505 31.2635 64.5371 32.0435 62.7371C31.6035 62.7371 35.8235 44.5371 27.1835 38.1071Z" fill="#92E3A9"/>
<path d="M65.6135 43.3272C57.6135 35.0372 42.3035 45.4071 42.4935 45.8071C41.3235 47.3671 40.2035 48.9571 39.1135 50.5671C41.2335 49.0571 47.7235 48.8672 55.9235 51.7672C64.1535 54.3672 73.5435 50.9772 65.6135 43.3272Z" fill="#92E3A9"/>
<path d="M41.3735 20.3571C33.2035 12.4771 27.2135 26.7971 32.3035 34.3571C37.0135 41.9471 39.3635 47.9171 38.9735 50.4771C39.9401 48.7905 40.9401 47.1238 41.9735 45.4771C41.5735 45.4271 48.7935 28.1471 41.3735 20.3571Z" fill="#92E3A9"/>
<path d="M78.5034 31.8571C71.9534 22.3271 55.0534 30.0771 55.1834 30.5071C53.7634 31.8405 52.3801 33.2205 51.0334 34.6471C53.3834 33.5071 59.8234 34.3871 67.4334 38.6471C75.0934 42.5471 85.0134 40.7571 78.5034 31.8571Z" fill="#92E3A9"/>
<path d="M58.4834 5.11715C51.7534 -4.02285 43.3234 9.17715 47.0934 17.4871C50.4634 25.7771 51.7634 32.0771 50.9434 34.5371C52.1834 33.0271 53.4734 31.5371 54.8034 30.1071C54.3234 29.9771 64.4634 14.0672 58.4834 5.11715Z" fill="#92E3A9"/>
<path d="M63.2935 22.5172C62.9935 22.5172 72.3535 8.39716 80.2235 3.51716C87.8235 -1.48284 93.3735 3.02715 93.4235 7.00715C93.4735 10.9871 88.0935 14.2872 83.0935 15.9772C77.9635 17.3372 63.2635 22.2372 63.2935 22.5172Z" fill="#92E3A9"/>
<path d="M63.2935 23.1472H63.2135C63.0829 23.1295 62.961 23.072 62.8644 22.9825C62.7678 22.893 62.7011 22.7759 62.6735 22.6472C62.6679 22.6276 62.6679 22.6068 62.6735 22.5871C62.6488 22.5036 62.649 22.4148 62.6738 22.3314C62.6987 22.248 62.7472 22.1736 62.8135 22.1172C64.0935 19.2472 73.0935 7.17715 79.8935 2.97715C83.6335 0.517153 87.4935 -0.0228622 90.4835 1.58714C91.507 2.08743 92.3801 2.84955 93.0141 3.79615C93.6481 4.74276 94.0205 5.84019 94.0935 6.97715C94.2435 12.3772 85.8835 15.6872 83.3135 16.5772C78.3135 17.8672 64.9535 22.3272 63.7635 22.9472C63.6394 23.0733 63.4704 23.1452 63.2935 23.1472ZM86.6535 1.97715C84.4631 2.06582 82.3479 2.79989 80.5735 4.08714C74.3635 7.91714 67.3035 17.4572 64.8035 21.2072C66.0535 20.7472 68.0035 20.0872 71.0535 19.0772C74.9935 17.7772 80.1735 16.1372 82.9135 15.4272C87.7335 13.7672 92.9135 10.6771 92.7935 7.05714C92.7334 6.14542 92.4324 5.26602 91.9211 4.50877C91.4098 3.75152 90.7067 3.14358 89.8835 2.74714C88.8894 2.22106 87.778 1.95612 86.6535 1.97715Z" fill="#92E3A9"/>
<path d="M470.833 122.837C470.975 122.779 471.09 122.67 471.155 122.531C471.22 122.392 471.23 122.233 471.183 122.087C467.045 109.528 459.759 98.2373 450.021 89.2907C440.284 80.3441 428.418 74.0395 415.553 70.9771C415.396 70.9413 415.23 70.9697 415.093 71.056C414.956 71.1422 414.859 71.2793 414.823 71.4371C414.788 71.5949 414.816 71.7605 414.902 71.8974C414.989 72.0343 415.126 72.1313 415.283 72.1671C427.94 75.1775 439.615 81.3776 449.197 90.1771C458.779 98.9766 465.948 110.082 470.023 122.437C470.048 122.513 470.088 122.584 470.14 122.645C470.192 122.706 470.256 122.756 470.328 122.792C470.399 122.828 470.477 122.85 470.557 122.856C470.637 122.862 470.717 122.852 470.793 122.827L470.833 122.837Z" fill="#263238"/>
<path d="M450.413 106.537C456.153 101.777 465.253 109.667 465.113 109.947C465.753 111.047 466.373 112.177 466.963 113.327C465.703 112.157 461.533 111.497 456.053 112.727C450.573 113.737 444.763 110.857 450.413 106.537Z" fill="#263238"/>
<path d="M467.623 93.5871C473.423 89.1271 476.263 98.8071 472.473 103.317C468.903 107.867 466.983 111.577 467.063 113.317C466.55 112.137 466.01 110.967 465.443 109.807C465.723 109.737 462.283 97.9771 467.623 93.5871Z" fill="#263238"/>
<path d="M443.033 98.2871C447.903 92.6471 458.123 98.7971 458.033 99.0771C458.853 100.044 459.643 101.044 460.403 102.077C458.973 101.167 454.773 101.257 449.593 103.407C444.363 105.327 438.203 103.507 443.033 98.2871Z" fill="#263238"/>
<path d="M457.823 82.6372C462.823 77.2672 467.163 86.2672 464.173 91.3272C461.413 96.3872 460.173 100.327 460.483 101.987C459.783 100.917 459.063 99.8771 458.323 98.8471C458.593 98.7771 453.303 87.9072 457.823 82.6372Z" fill="#263238"/>
<path d="M434.423 91.4272C438.283 85.0572 449.353 89.3771 449.303 89.6671C450.303 90.4771 451.193 91.3172 452.113 92.1772C450.553 91.5272 446.443 92.3372 441.703 95.3272C436.903 98.1372 430.533 97.3772 434.423 91.4272Z" fill="#263238"/>
<path d="M446.383 73.5172C450.383 67.3972 456.183 75.5172 454.073 81.0072C452.183 86.4472 451.573 90.5471 452.183 92.0971C451.337 91.1771 450.457 90.2772 449.543 89.3972C449.813 89.2872 442.813 79.4772 446.383 73.5172Z" fill="#263238"/>
<path d="M424.763 86.0871C427.523 79.1671 439.173 81.5871 439.153 81.8771C440.233 82.5171 441.293 83.1871 442.343 83.8771C440.703 83.4971 436.793 84.9871 432.613 88.7271C428.353 92.3071 421.933 92.6071 424.763 86.0871Z" fill="#263238"/>
<path d="M433.553 66.4272C436.493 59.7272 443.553 66.7871 442.413 72.5371C441.463 78.2271 441.543 82.3671 442.413 83.7871C441.413 83.0271 440.413 82.2871 439.363 81.5671C439.613 81.4171 431.093 72.9072 433.553 66.4272Z" fill="#263238"/>
<path d="M414.263 82.4272C415.823 75.1372 427.803 75.5871 427.833 75.8771C429.003 76.3271 430.163 76.8172 431.313 77.3272C429.643 77.2272 426.013 79.3271 422.523 83.7271C418.913 87.9771 412.573 89.3272 414.263 82.4272Z" fill="#263238"/>
<path d="M419.613 61.5571C421.373 54.4571 429.613 60.2472 429.453 66.1172C429.453 71.8872 430.273 75.9671 431.363 77.2271C430.253 76.6371 429.123 76.0771 427.973 75.5371C428.213 75.3471 418.253 68.3671 419.613 61.5571Z" fill="#263238"/>
<path d="M421.023 73.1172C421.193 73.0172 412.153 66.9271 406.263 65.9671C400.503 64.8571 398.263 68.9172 399.263 71.2972C400.263 73.6772 404.263 74.2972 407.653 74.1072C411.013 73.6372 420.973 72.9772 421.023 73.1172Z" fill="#263238"/>
<path d="M421.183 73.4872C421.258 73.4462 421.318 73.3824 421.354 73.305C421.39 73.2276 421.4 73.1408 421.383 73.0571C421.376 73.0012 421.353 72.9484 421.318 72.9043C421.283 72.8603 421.236 72.8267 421.183 72.8071C419.723 71.4171 411.363 66.4571 406.303 65.6271C403.463 65.0871 401.033 65.7271 399.653 67.4071C399.169 67.9583 398.839 68.6284 398.698 69.3489C398.558 70.0693 398.611 70.8142 398.853 71.5072C400.093 74.7572 405.853 74.6772 407.633 74.5772C410.923 74.1172 419.993 73.4872 420.863 73.5772C420.92 73.5847 420.978 73.5806 421.033 73.5652C421.088 73.5497 421.139 73.5231 421.183 73.4872ZM402.093 66.6072C403.421 66.1258 404.86 66.0424 406.233 66.3672C410.883 67.1272 417.443 71.0672 419.843 72.6972C418.993 72.6972 417.673 72.8171 415.603 72.9671C412.933 73.1571 409.443 73.4572 407.603 73.7072C404.323 73.8972 400.483 73.3372 399.653 71.1472C399.468 70.5897 399.432 69.9932 399.549 69.4175C399.667 68.8417 399.934 68.3071 400.323 67.8672C400.798 67.3045 401.407 66.8711 402.093 66.6072Z" fill="#263238"/>
<path d="M477.163 124.287C477.399 124.275 477.622 124.18 477.794 124.019C477.966 123.858 478.076 123.641 478.103 123.407C479.608 102.961 475.849 82.4707 467.185 63.89C458.522 45.3093 445.242 29.258 428.613 17.2671C428.513 17.1949 428.399 17.1432 428.279 17.1149C428.158 17.0866 428.034 17.0823 427.911 17.1023C427.789 17.1222 427.672 17.1661 427.567 17.2312C427.462 17.2964 427.371 17.3817 427.298 17.4821C427.226 17.5826 427.174 17.6963 427.146 17.8168C427.118 17.9372 427.114 18.0621 427.134 18.1842C427.154 18.3063 427.197 18.4233 427.263 18.5284C427.328 18.6336 427.413 18.7249 427.513 18.7971C443.874 30.6052 456.939 46.4053 465.463 64.6924C473.988 82.9795 477.689 103.145 476.213 123.267C476.211 123.511 476.299 123.748 476.459 123.932C476.619 124.116 476.841 124.235 477.083 124.267L477.163 124.287Z" fill="#92E3A9"/>
<path d="M457.533 88.8171C468.593 85.4071 476.963 102.097 476.593 102.417C476.86 104.417 477.08 106.397 477.253 108.357C476.123 105.937 470.543 102.527 461.953 101.037C453.493 99.2471 446.883 91.6771 457.533 88.8171Z" fill="#92E3A9"/>
<path d="M489.873 80.4471C500.873 77.4471 499.173 93.0471 491.063 97.2771C483.263 101.687 478.313 105.857 477.413 108.347C477.413 106.347 477.33 104.347 477.163 102.347C477.593 102.477 479.603 83.6371 489.873 80.4471Z" fill="#92E3A9"/>
<path d="M451.843 72.6371C462.163 67.4371 473.173 82.2971 472.843 82.6371C473.433 84.4971 473.973 86.3871 474.473 88.2871C472.963 86.1371 466.893 83.7771 458.193 83.7971C449.593 83.5171 441.833 77.2471 451.843 72.6371Z" fill="#92E3A9"/>
<path d="M482.313 58.9771C492.623 54.2371 493.553 69.7171 486.313 75.2071C479.363 80.8271 475.183 85.7271 474.713 88.2971C474.343 86.3571 473.923 84.4371 473.463 82.5171C473.863 82.5471 472.723 63.8271 482.313 58.9771Z" fill="#92E3A9"/>
<path d="M443.563 57.6971C452.873 50.8571 466.173 63.6071 465.933 63.9871C466.827 65.7205 467.673 67.4738 468.473 69.2471C466.633 67.3971 460.263 66.1171 451.693 67.6071C443.143 68.7871 434.463 63.9771 443.563 57.6971Z" fill="#92E3A9"/>
<path d="M471.313 39.1071C480.683 32.7071 484.163 47.7871 477.903 54.3871C471.983 61.0871 468.673 66.5871 468.633 69.1771C467.967 67.3505 467.24 65.5371 466.453 63.7371C466.893 63.7371 462.673 45.5371 471.313 39.1071Z" fill="#92E3A9"/>
<path d="M432.883 44.3272C440.883 36.0372 456.193 46.4071 456.003 46.8071C457.17 48.3671 458.297 49.9538 459.383 51.5671C457.263 50.0571 450.773 49.8672 442.573 52.7672C434.353 55.3672 424.953 51.9772 432.883 44.3272Z" fill="#92E3A9"/>
<path d="M457.093 21.3571C465.273 13.4771 471.253 27.7971 466.173 35.3571C461.453 42.9471 459.103 48.9171 459.493 51.4771C458.52 49.7905 457.503 48.1238 456.443 46.4771C456.923 46.4271 449.703 29.1471 457.093 21.3571Z" fill="#92E3A9"/>
<path d="M420.003 32.8571C426.543 23.3271 443.453 31.0771 443.323 31.5071C444.73 32.8405 446.11 34.2205 447.463 35.6471C445.113 34.5071 438.673 35.3871 431.063 39.6471C423.383 43.5471 413.493 41.7571 420.003 32.8571Z" fill="#92E3A9"/>
<path d="M440.013 6.11715C446.743 -3.02285 455.173 10.1771 451.433 18.4871C448.073 26.7771 446.773 33.0771 447.593 35.5371C446.343 34.0271 445.053 32.5371 443.723 31.1071C444.183 30.9771 434.033 15.0672 440.013 6.11715Z" fill="#92E3A9"/>
<path d="M435.203 23.5172C435.503 23.5172 426.143 9.39716 418.273 4.51716C410.673 -0.482841 405.123 4.02715 405.073 8.00715C405.023 11.9871 410.403 15.2671 415.433 17.0071C420.533 18.3371 435.233 23.2372 435.203 23.5172Z" fill="#92E3A9"/>
<path d="M435.203 24.1471H435.283C435.415 24.1324 435.538 24.0759 435.636 23.9859C435.733 23.8959 435.799 23.7772 435.823 23.6471C435.823 23.6471 435.823 23.6471 435.823 23.5871C435.847 23.5027 435.845 23.4132 435.819 23.3297C435.792 23.2462 435.741 23.1724 435.673 23.1171C434.413 20.2571 425.363 8.18713 418.593 4.00713C414.853 1.54713 410.993 1.00715 408.013 2.61715C406.993 3.12395 406.125 3.89108 405.496 4.84102C404.868 5.79097 404.501 6.89003 404.433 8.02712C404.283 13.4271 412.643 16.7371 415.213 17.6271C420.213 18.9171 433.573 23.3771 434.773 23.9971C434.893 24.099 435.046 24.1525 435.203 24.1471ZM411.843 2.97713C414.034 3.06462 416.15 3.7988 417.923 5.08712C424.133 8.91712 431.203 18.4571 433.693 22.2071C432.453 21.7471 430.493 21.0871 427.443 20.0771C423.503 18.7771 418.323 17.1371 415.583 16.4271C410.773 14.7671 405.583 11.6771 405.703 8.05712C405.763 7.1454 406.065 6.266 406.576 5.50875C407.087 4.7515 407.79 4.14356 408.613 3.74712C409.608 3.22228 410.719 2.95741 411.843 2.97713Z" fill="#92E3A9"/>
</svg>
