<svg width="573" height="194" viewBox="0 0 573 194" fill="none" xmlns="http://www.w3.org/2000/svg">
<path d="M3.98344 38.3871C4.10588 38.2323 4.28309 38.1304 4.47849 38.1025C4.67389 38.0746 4.87255 38.1228 5.03344 38.2371C18.925 47.9853 30.0891 61.128 37.4621 76.4133C44.8352 91.6985 48.1716 108.617 47.1534 125.557C47.1227 125.752 47.0206 125.928 46.867 126.051C46.7133 126.174 46.5193 126.235 46.3229 126.222C46.1265 126.21 45.9418 126.124 45.805 125.983C45.6682 125.841 45.5892 125.654 45.5834 125.457C46.5825 108.781 43.2937 92.1278 36.0308 77.0837C28.7678 62.0396 17.7726 49.1065 4.09344 39.5171C4.00914 39.4582 3.93732 39.3833 3.8821 39.2965C3.82689 39.2098 3.78938 39.113 3.77172 39.0117C3.75406 38.9104 3.75661 38.8066 3.77921 38.7062C3.80182 38.6059 3.84404 38.5111 3.90344 38.4271C3.90344 38.4271 3.96344 38.3971 3.98344 38.3871Z" fill="#263238"/>
<path d="M16.4334 69.5371C24.4334 64.2371 18.0934 50.1271 17.7034 50.1971C16.5834 48.9971 15.4268 47.8205 14.2334 46.6671C15.2334 48.6671 14.4634 54.0171 10.9234 60.3071C7.63345 66.6671 9.02345 74.8671 16.4334 69.5371Z" fill="#263238"/>
<path d="M38.7335 53.1971C46.3735 47.7171 35.5335 40.6371 28.5735 43.6171C21.6635 46.3071 16.3935 47.2971 14.3235 46.6171C15.5968 47.6838 16.8335 48.7838 18.0335 49.9171C18.1935 49.5271 31.3135 58.1071 38.7335 53.1971Z" fill="#263238"/>
<path d="M23.8234 81.6571C32.5634 77.7671 28.8234 62.9271 28.4234 62.9371C27.5301 61.6038 26.6068 60.2705 25.6534 58.9371C26.2434 61.0371 24.5734 66.1571 20.0034 71.7371C15.6734 77.4071 15.6234 85.6671 23.8234 81.6571Z" fill="#263238"/>
<path d="M48.5535 69.2971C57.0035 65.1771 47.5535 56.4671 40.2335 58.2971C32.9835 59.8071 27.6535 59.9171 25.7635 58.8771C26.7635 60.1271 27.8235 61.3971 28.7635 62.6971C29.0035 62.3571 40.4035 72.8871 48.5535 69.2971Z" fill="#263238"/>
<path d="M29.0934 94.7971C38.3534 92.4071 37.1534 77.2071 36.7834 77.1571C36.1168 75.6838 35.4501 74.2238 34.7834 72.7771C35.0034 74.9271 32.4834 79.6771 27.0434 84.3971C21.7334 89.2471 20.3034 97.3671 29.0934 94.7971Z" fill="#263238"/>
<path d="M55.5134 86.7471C64.5134 84.0871 56.6834 73.9571 49.1634 74.5171C41.7734 74.8071 36.5134 74.0471 34.8334 72.7071C35.6534 74.1071 36.4334 75.5238 37.1734 76.9571C37.4134 76.6671 46.8634 88.9071 55.5134 86.7471Z" fill="#263238"/>
<path d="M32.0334 108.637C41.5634 107.827 42.9134 92.6371 42.5534 92.5171C42.1734 90.9571 41.7434 89.4071 41.2834 87.8671C41.0934 89.9771 37.8634 94.2771 31.7034 97.9771C25.7334 101.917 22.9634 109.707 32.0334 108.637Z" fill="#263238"/>
<path d="M59.4635 105.137C68.7935 104.027 62.7435 92.6871 55.2435 91.9871C47.9035 90.9871 42.8435 89.4071 41.4135 87.8171C41.9801 89.3238 42.5135 90.8471 43.0135 92.3871C43.2935 92.1371 50.5735 105.807 59.4635 105.137Z" fill="#263238"/>
<path d="M32.6434 122.907C42.1734 123.707 46.0634 108.807 45.7234 108.667C45.6034 107.057 45.4434 105.447 45.2434 103.847C44.7434 105.947 40.8034 109.607 34.1034 112.277C27.5634 115.137 23.5234 122.417 32.6434 122.907Z" fill="#263238"/>
<path d="M60.2635 124.087C69.6535 124.557 65.6035 112.247 58.2635 110.287C51.1935 108.097 46.4735 105.637 45.3235 103.817C45.6335 105.407 45.9135 107.007 46.1435 108.617C46.5135 108.397 51.3935 123.227 60.2635 124.087Z" fill="#263238"/>
<path d="M46.5935 118.057C46.7735 117.877 50.8935 131.257 49.8835 138.847C49.1135 146.337 43.3135 147.527 40.7435 145.477C38.1735 143.427 38.8735 138.267 40.4035 134.127C42.2335 130.167 46.7835 118.177 46.5935 118.057Z" fill="#263238"/>
<path d="M46.1834 117.727V117.677C46.2622 117.603 46.362 117.554 46.4693 117.538C46.5766 117.522 46.6862 117.539 46.7834 117.587H46.8334C46.9151 117.612 46.9857 117.665 47.0331 117.736C47.0805 117.807 47.1018 117.892 47.0934 117.977C48.2734 120.287 51.2634 132.407 50.3934 138.977C50.0134 142.667 48.3234 145.407 45.7434 146.487C44.8849 146.876 43.9386 147.032 43.0007 146.937C42.0627 146.842 41.1666 146.5 40.4034 145.947C36.8634 143.217 39.1234 136.117 39.9034 134.007C41.6834 130.147 45.8234 119.227 46.0634 118.137C46.0512 118.064 46.0556 117.989 46.0764 117.918C46.0972 117.847 46.1338 117.782 46.1834 117.727ZM47.5334 143.797C48.6244 142.347 49.2643 140.608 49.3734 138.797C50.1634 132.797 47.7534 123.277 46.6534 119.717C46.2934 120.717 45.6534 122.357 44.7434 124.837C43.5134 128.047 41.8534 132.227 40.8734 134.347C39.4134 138.347 38.6934 143.237 41.0634 145.067C41.6801 145.505 42.4015 145.773 43.1547 145.843C43.9079 145.913 44.6664 145.784 45.3534 145.467C46.2053 145.096 46.9537 144.523 47.5334 143.797Z" fill="#263238"/>
<path d="M0.0934605 15.0371C0.243955 14.6919 0.518794 14.4159 0.863383 14.264C1.20797 14.1121 1.5971 14.0954 1.95346 14.2171C32.4522 24.9358 59.6984 43.2851 81.0963 67.5171C102.494 91.7491 117.331 121.056 124.193 152.647C124.276 153.034 124.201 153.438 123.985 153.77C123.769 154.102 123.431 154.335 123.043 154.417C122.656 154.499 122.252 154.424 121.92 154.209C121.588 153.993 121.356 153.654 121.273 153.267C114.525 122.181 99.9283 93.3403 78.8752 69.4934C57.8221 45.6465 31.0134 27.5875 1.00346 17.0371C0.818084 16.9731 0.647175 16.8731 0.500536 16.7428C0.353898 16.6126 0.234415 16.4547 0.148942 16.2782C0.0634677 16.1016 0.0136845 15.91 0.00244759 15.7142C-0.00878928 15.5184 0.0187417 15.3223 0.0834603 15.1371C0.0851155 15.1037 0.0884533 15.0703 0.0934605 15.0371Z" fill="#92E3A9"/>
<path d="M39.0035 65.7471C50.9035 51.9771 32.0935 29.2971 31.3735 29.6271C28.7068 28.0071 25.9801 26.4438 23.1935 24.9371C25.9835 28.0871 27.3935 38.3071 24.1435 51.6571C21.3935 64.9771 28.1635 79.3371 39.0035 65.7471Z" fill="#92E3A9"/>
<path d="M71.4834 24.2871C82.6734 10.3171 59.0934 2.91714 47.9234 11.9771C36.6334 20.4771 27.4834 24.9771 23.3134 24.7271C26.1868 26.0605 29.0201 27.4405 31.8134 28.8671C31.9234 28.1471 60.4134 37.1271 71.4834 24.2871Z" fill="#92E3A9"/>
<path d="M58.8134 84.1671C72.8134 72.5271 58.2934 47.2571 57.6034 47.4771C55.2768 45.4771 52.8934 43.5005 50.4534 41.5471C52.6134 45.0871 52.1934 55.3471 46.6834 67.9171C41.6634 80.5671 45.8234 95.7371 58.8134 84.1671Z" fill="#92E3A9"/>
<path d="M97.7934 48.7571C111.153 36.8571 89.3534 25.7571 76.7934 32.8171C64.2834 39.3171 54.5734 42.2771 50.5634 41.3371C53.1568 43.0971 55.6934 44.9105 58.1734 46.7771C58.3634 46.0971 84.6934 59.5471 97.7934 48.7571Z" fill="#92E3A9"/>
<path d="M75.1734 105.557C90.9234 96.4071 80.8934 69.1471 80.1734 69.2671C78.2334 66.8871 76.2334 64.5538 74.1734 62.2671C75.6834 66.0871 73.5134 76.0971 65.9634 87.5571C58.8834 99.1671 60.4334 114.787 75.1734 105.557Z" fill="#92E3A9"/>
<path d="M119.533 77.1671C134.683 67.6571 115.093 53.1671 101.593 58.0171C88.1935 62.3571 78.1535 63.6671 74.3835 62.0871C76.6035 64.2271 78.7668 66.4205 80.8735 68.6671C81.1535 68.0271 104.793 85.5971 119.533 77.1671Z" fill="#92E3A9"/>
<path d="M87.7635 129.417C104.823 123.017 99.4535 94.4171 98.7635 94.4171C97.2435 91.7505 95.6635 89.1238 94.0235 86.5371C94.8635 90.5371 91.0235 100.047 81.6935 110.077C72.7435 120.337 71.6835 136.037 87.7635 129.417Z" fill="#92E3A9"/>
<path d="M136.253 108.867C152.783 102.017 135.853 84.3371 121.733 86.9271C107.793 88.9271 97.6735 88.5771 94.2335 86.4071C96.0535 88.8738 97.8168 91.3905 99.5235 93.9571C99.8935 93.3471 120.303 114.677 136.253 108.867Z" fill="#92E3A9"/>
<path d="M96.2234 155.267C114.123 151.817 113.573 122.497 112.873 122.417C111.823 119.517 110.703 116.657 109.503 113.817C109.663 117.927 104.333 126.677 93.4334 135.017C82.9134 143.637 79.2534 159.057 96.2234 155.267Z" fill="#92E3A9"/>
<path d="M147.483 143.197C164.933 139.197 151.173 118.737 136.803 118.897C122.713 118.537 112.803 116.437 109.743 113.707C111.13 116.46 112.463 119.25 113.743 122.077C114.183 121.507 130.783 146.197 147.483 143.197Z" fill="#92E3A9"/>
<path d="M119.303 139.177C119.553 138.767 133.993 161.177 136.063 175.617C138.503 189.747 128.473 194.927 122.703 192.487C116.933 190.047 115.573 180.217 116.233 171.847C117.543 163.637 119.733 139.307 119.303 139.177Z" fill="#92E3A9"/>
<path d="M118.393 138.787L118.453 138.667C118.561 138.49 118.72 138.351 118.91 138.269C119.1 138.186 119.311 138.165 119.513 138.207H119.613C119.75 138.228 119.878 138.286 119.982 138.377C120.087 138.467 120.163 138.585 120.203 138.717C123.543 142.337 135.273 163.027 137.043 175.447C138.253 182.397 136.553 188.307 132.383 191.617C131.01 192.771 129.356 193.54 127.589 193.848C125.822 194.155 124.006 193.989 122.323 193.367C114.423 190.187 114.903 176.007 115.243 171.747C116.523 163.747 118.493 141.587 118.363 139.467C118.294 139.244 118.304 139.003 118.393 138.787ZM134.293 185.907C135.293 183.577 135.863 180.307 135.083 175.787C133.453 164.387 124.083 148.167 120.273 142.207C120.153 144.287 119.873 147.527 119.413 152.577C118.803 159.087 117.913 167.577 117.213 172.007C116.583 180.007 117.783 189.427 123.073 191.567C124.431 192.053 125.894 192.172 127.312 191.912C128.731 191.652 130.056 191.023 131.153 190.087C132.53 188.975 133.609 187.539 134.293 185.907Z" fill="#92E3A9"/>
<path d="M554.487 21.7691C554.341 21.637 554.15 21.5639 553.952 21.5639C553.755 21.5639 553.564 21.637 553.417 21.7691C541.289 33.6412 532.404 48.4214 527.607 64.7012C522.811 80.981 522.263 98.2179 526.017 114.769C526.039 114.87 526.08 114.965 526.138 115.049C526.197 115.133 526.272 115.205 526.358 115.26C526.445 115.315 526.542 115.352 526.643 115.369C526.744 115.386 526.848 115.383 526.947 115.359C527.15 115.311 527.325 115.186 527.435 115.01C527.546 114.834 527.582 114.622 527.537 114.419C523.85 98.1282 524.395 81.1642 529.121 65.1437C533.848 49.1232 542.598 34.5798 554.537 22.8992C554.683 22.753 554.764 22.5553 554.764 22.3491C554.764 22.143 554.683 21.9453 554.537 21.7991C554.537 21.7991 554.497 21.7791 554.487 21.7691Z" fill="#263238"/>
<path d="M547.247 54.5292C538.517 50.5892 542.457 35.6491 542.857 35.6491C543.771 34.2825 544.721 32.9491 545.707 31.6491C545.077 33.7691 546.707 38.9492 551.187 44.5692C555.457 50.2692 555.427 58.5792 547.247 54.5292Z" fill="#263238"/>
<path d="M522.587 42.0091C514.167 37.8491 523.717 29.0991 531.067 30.9191C538.317 32.4491 543.677 32.5691 545.597 31.5191C544.527 32.7791 543.477 34.0691 542.477 35.3691C542.267 35.0591 530.707 45.6591 522.587 42.0091Z" fill="#263238"/>
<path d="M541.917 67.6891C532.657 65.2591 533.967 50.0092 534.347 49.9592C534.997 48.4792 535.697 46.9592 536.427 45.5592C536.187 47.7192 538.657 52.5091 544.077 57.2591C549.277 62.1591 550.657 70.3091 541.917 67.6891Z" fill="#263238"/>
<path d="M515.507 59.4991C506.507 56.7991 514.417 46.6791 521.937 47.2591C529.327 47.5791 534.607 46.8292 536.307 45.4892C535.474 46.8892 534.677 48.3125 533.917 49.7591C533.677 49.4791 524.137 61.7191 515.507 59.4991Z" fill="#263238"/>
<path d="M538.917 81.4991C529.387 80.6391 528.117 65.4991 528.467 65.3391C528.867 63.7791 529.297 62.2291 529.777 60.6891C529.907 62.8391 533.157 67.1191 539.297 70.8991C545.207 74.8391 547.917 82.6091 538.917 81.4991Z" fill="#263238"/>
<path d="M511.467 77.8391C502.147 76.6791 508.247 65.4091 515.747 64.7491C523.087 63.8291 528.157 62.2292 529.607 60.6392C529.027 62.1492 528.477 63.6392 527.977 65.2092C527.697 64.9692 520.357 78.5791 511.467 77.8391Z" fill="#263238"/>
<path d="M538.187 95.6391C528.647 96.3791 524.857 81.6391 525.187 81.4391C525.317 79.8391 525.487 78.2292 525.697 76.6392C526.187 78.7292 530.107 82.4092 536.787 85.0992C543.317 87.9892 547.307 95.2191 538.187 95.6391Z" fill="#263238"/>
<path d="M510.557 96.6292C501.167 97.0392 505.297 84.8791 512.557 82.9691C519.637 80.8391 524.377 78.4191 525.557 76.6191C525.237 78.1991 524.957 79.7892 524.717 81.3792C524.407 81.1592 519.437 95.8492 510.557 96.6292Z" fill="#263238"/>
<path d="M539.917 109.819C530.637 112.149 524.387 98.0791 524.707 97.8891C524.557 96.2791 524.457 94.6591 524.397 93.0491C525.237 95.0491 529.717 98.0492 536.757 99.5692C543.647 101.329 548.817 107.859 539.917 109.819Z" fill="#263238"/>
<path d="M512.827 115.459C503.647 117.459 505.647 104.639 512.517 101.529C519.147 98.2191 523.397 95.0191 524.237 93.0491C524.191 94.6691 524.191 96.2891 524.237 97.9091C523.857 97.7491 521.447 113.159 512.827 115.459Z" fill="#263238"/>
<path d="M525.347 107.289C525.137 107.149 523.237 121.009 525.467 128.339C527.467 135.609 533.357 135.849 535.567 133.409C537.777 130.969 536.237 125.979 534.067 122.149C531.617 118.539 525.177 107.449 525.347 107.289Z" fill="#263238"/>
<path d="M525.697 106.899H525.637C525.548 106.836 525.442 106.803 525.332 106.803C525.223 106.803 525.117 106.836 525.027 106.899C524.97 106.94 524.924 106.997 524.896 107.062C524.868 107.127 524.858 107.199 524.867 107.269C524.077 109.739 523.087 122.189 525.007 128.489C526.007 132.059 528.087 134.489 530.807 135.139C531.706 135.372 532.649 135.367 533.545 135.125C534.441 134.883 535.259 134.413 535.917 133.759C538.967 130.489 535.597 123.849 534.487 121.889C532.097 118.369 526.247 108.269 525.837 107.229C525.826 107.107 525.777 106.992 525.697 106.899ZM528.587 132.849C527.275 131.596 526.363 129.981 525.967 128.209C524.207 122.419 525.047 112.639 525.557 108.939C526.077 109.939 526.927 111.389 528.267 113.689C529.997 116.689 532.267 120.509 533.627 122.439C535.707 126.119 537.227 130.859 535.177 133.049C534.643 133.584 533.977 133.969 533.247 134.164C532.516 134.359 531.747 134.357 531.017 134.159C530.112 133.93 529.277 133.48 528.587 132.849Z" fill="#263238"/>
<path d="M529.827 29.5091C529.901 29.3252 529.903 29.1203 529.832 28.935C529.762 28.7498 529.625 28.5978 529.447 28.5091C514.194 21.0732 497.291 17.6665 480.348 18.6135C463.405 19.5605 446.987 24.8297 432.657 33.9192C432.482 34.0305 432.359 34.2069 432.314 34.4094C432.269 34.612 432.306 34.8241 432.417 34.9991C432.529 35.1742 432.705 35.2978 432.908 35.3428C433.11 35.3878 433.322 35.3505 433.497 35.2392C447.6 26.2915 463.759 21.1048 480.435 20.1735C497.11 19.2422 513.746 22.5974 528.757 29.9192C528.85 29.9651 528.951 29.9923 529.054 29.999C529.157 30.0058 529.26 29.992 529.358 29.9586C529.455 29.9251 529.545 29.8725 529.623 29.8039C529.7 29.7354 529.763 29.6522 529.807 29.5592C529.807 29.5592 529.827 29.5291 529.827 29.5091Z" fill="#263238"/>
<path d="M496.537 33.6891C497.317 24.1391 512.717 22.8392 512.847 23.2192C514.447 23.6192 516.037 24.0591 517.617 24.5391C515.417 24.6591 511.077 27.9091 507.287 34.0491C503.317 39.9991 495.467 42.7491 496.537 33.6891Z" fill="#263238"/>
<path d="M500.047 6.25915C501.147 -3.07085 512.587 2.98915 513.347 10.5191C514.347 17.8691 516.027 22.9591 517.667 24.4091C516.117 23.8191 514.547 23.2691 512.977 22.7591C513.197 22.4691 499.337 15.1591 500.047 6.25915Z" fill="#263238"/>
<path d="M482.357 33.0891C481.527 23.5591 496.357 19.6591 496.507 19.9991C498.127 20.1191 499.737 20.2792 501.357 20.4892C499.237 20.9792 495.557 24.9291 492.897 31.6191C490.027 38.1591 482.817 42.1591 482.357 33.0891Z" fill="#263238"/>
<path d="M481.197 5.45915C480.717 -3.92085 492.917 0.159147 494.917 7.40915C497.097 14.4791 499.577 19.1991 501.407 20.3491C499.807 20.0391 498.197 19.7591 496.587 19.5291C496.747 19.2091 482.007 14.3391 481.197 5.45915Z" fill="#263238"/>
<path d="M468.327 34.8591C465.917 25.5991 479.817 19.2991 480.037 19.5991C481.637 19.4491 483.247 19.3391 484.857 19.2591C482.857 20.1091 479.927 24.6091 478.437 31.6591C476.727 38.5891 470.317 43.7691 468.327 34.8591Z" fill="#263238"/>
<path d="M462.567 7.81915C460.567 -1.35085 473.187 0.609146 476.337 7.45915C479.667 14.0591 482.877 18.2991 484.857 19.1191C483.237 19.1191 481.627 19.1191 480.007 19.1191C480.147 18.7791 464.857 16.4291 462.567 7.81915Z" fill="#263238"/>
<path d="M454.767 38.9592C450.867 30.2292 463.537 21.6791 463.767 21.9591C465.317 21.5391 466.887 21.1691 468.457 20.8191C466.647 21.9891 464.507 26.9191 464.207 34.1191C463.697 41.2191 458.227 47.4092 454.767 38.9592Z" fill="#263238"/>
<path d="M444.567 13.2692C441.027 4.55915 453.867 4.36915 458.107 10.5991C462.497 16.5991 466.367 20.1892 468.457 20.6792C466.857 20.9092 465.267 21.1792 463.677 21.4892C463.767 21.1592 448.277 21.3692 444.567 13.2692Z" fill="#263238"/>
<path d="M441.997 45.3391C436.677 37.3391 447.837 26.7691 448.127 26.9991C449.587 26.3191 451.127 25.6791 452.577 25.0791C450.987 26.5391 449.677 31.7591 450.577 38.9091C451.247 46.0191 446.837 53.0791 441.997 45.3391Z" fill="#263238"/>
<path d="M427.597 21.7291C422.597 13.7291 435.367 11.3291 440.597 16.7291C445.937 21.8591 450.377 24.7991 452.517 24.9191C450.977 25.4191 449.447 25.9558 447.927 26.5291C447.977 26.1591 432.637 29.0791 427.597 21.7291Z" fill="#263238"/>
<path d="M439.487 30.7792C439.547 30.5292 425.857 33.3992 419.697 37.9592C413.517 42.2592 415.277 47.9592 418.317 49.1692C421.357 50.3792 425.537 47.3092 428.417 43.9792C430.997 40.4592 439.287 30.6692 439.487 30.7792Z" fill="#263238"/>
<path d="M439.967 30.9691V30.9091C439.993 30.803 439.985 30.6918 439.946 30.59C439.907 30.4883 439.837 30.4008 439.747 30.3391H439.697C439.636 30.3011 439.565 30.2809 439.492 30.2809C439.42 30.2809 439.349 30.3011 439.287 30.3391C436.707 30.4291 424.647 33.6792 419.357 37.5992C416.357 39.7192 414.727 42.5292 415.037 45.3092C415.11 46.2473 415.43 47.1493 415.966 47.9226C416.502 48.6958 417.234 49.3125 418.087 49.7092C422.197 51.4892 427.307 46.0792 428.777 44.3792C431.297 40.9492 438.847 32.0392 439.687 31.3092C439.757 31.2783 439.819 31.2314 439.868 31.1724C439.916 31.1133 439.951 31.0437 439.967 30.9691ZM416.497 42.4091C417.247 40.7615 418.464 39.3705 419.997 38.4091C424.847 34.8091 434.347 32.3091 437.997 31.5491C437.267 32.3691 436.157 33.6592 434.447 35.6992C432.237 38.3292 429.377 41.7992 427.997 43.6992C425.237 46.8892 421.277 49.9092 418.527 48.6992C417.847 48.3746 417.264 47.8765 416.838 47.255C416.411 46.6336 416.156 45.9107 416.097 45.1591C416.001 44.2235 416.139 43.2787 416.497 42.4091Z" fill="#263238"/>
<path d="M572.077 13.2192C571.927 12.8739 571.652 12.598 571.308 12.446C570.963 12.2941 570.574 12.2774 570.217 12.3992C539.723 23.1204 512.482 41.4711 491.09 65.7031C469.697 89.935 454.865 119.241 448.007 150.829C447.925 151.216 448 151.62 448.216 151.952C448.432 152.284 448.77 152.517 449.157 152.599C449.545 152.681 449.949 152.606 450.281 152.391C450.613 152.175 450.845 151.836 450.927 151.449C457.676 120.363 472.273 91.5223 493.326 67.6754C514.379 43.8285 541.187 25.7696 571.197 15.2192C571.383 15.1551 571.554 15.0551 571.7 14.9249C571.847 14.7946 571.966 14.6367 572.052 14.4602C572.137 14.2837 572.187 14.092 572.198 13.8962C572.21 13.7004 572.182 13.5043 572.117 13.3192C572.106 13.2851 572.093 13.2517 572.077 13.2192Z" fill="#92E3A9"/>
<path d="M533.197 63.9291C521.297 50.1091 540.137 27.4792 540.827 27.8092C543.494 26.1892 546.221 24.6258 549.007 23.1191C546.217 26.2691 544.797 36.4891 548.057 49.8391C550.807 63.1591 544.037 77.5191 533.197 63.9291Z" fill="#92E3A9"/>
<path d="M500.707 22.4691C489.527 8.46915 513.057 1.09915 524.277 10.1391C535.567 18.6391 544.717 23.1391 548.887 22.8891C546.014 24.2225 543.177 25.6025 540.377 27.0291C540.277 26.3291 511.787 35.3091 500.707 22.4691Z" fill="#92E3A9"/>
<path d="M513.387 82.3492C499.387 70.7092 513.897 45.4391 514.597 45.6591C516.924 43.6591 519.307 41.6825 521.747 39.7291C519.587 43.2691 520.007 53.5292 525.517 66.0992C530.537 78.7492 526.367 93.9192 513.387 82.3492Z" fill="#92E3A9"/>
<path d="M474.407 46.9391C461.047 35.0391 482.837 23.9391 495.357 30.9991C507.867 37.4991 517.577 40.4591 521.587 39.5191C519.021 41.2725 516.501 43.0858 514.027 44.9592C513.837 44.2792 487.507 57.7291 474.407 46.9391Z" fill="#92E3A9"/>
<path d="M497.017 103.739C481.267 94.5892 491.307 67.3292 492.017 67.4492C493.957 65.0691 495.957 62.7358 498.017 60.4492C496.507 64.2692 498.667 74.2792 506.227 85.7392C513.317 97.3492 511.757 112.969 497.017 103.739Z" fill="#92E3A9"/>
<path d="M452.667 75.3491C437.507 65.8391 457.107 51.3491 470.597 56.1991C484.007 60.5391 494.047 61.8491 497.817 60.2691C495.597 62.4091 493.434 64.6025 491.327 66.8492C491.047 66.2092 467.407 83.7792 452.667 75.3491Z" fill="#92E3A9"/>
<path d="M484.437 127.599C467.377 121.199 472.747 92.5992 473.437 92.5992C474.951 89.9325 476.531 87.3058 478.177 84.7191C477.337 88.7191 481.177 98.2292 490.507 108.259C499.457 118.519 500.517 134.219 484.437 127.599Z" fill="#92E3A9"/>
<path d="M435.917 107.049C419.387 100.199 436.317 82.5191 450.427 85.1091C464.377 87.1091 474.497 86.7591 477.937 84.5891C476.117 87.0558 474.354 89.5725 472.647 92.1392C472.307 91.5292 451.917 112.859 435.917 107.049Z" fill="#92E3A9"/>
<path d="M475.977 153.449C458.077 149.999 458.627 120.679 459.327 120.599C460.327 117.699 461.497 114.839 462.697 111.999C462.527 116.159 467.917 124.859 478.767 133.159C489.287 141.819 492.917 157.239 475.977 153.449Z" fill="#92E3A9"/>
<path d="M424.717 141.379C407.257 137.379 421.027 116.919 435.397 117.079C449.487 116.719 459.397 114.619 462.457 111.889C461.064 114.642 459.731 117.432 458.457 120.259C458.017 119.689 441.417 144.379 424.717 141.379Z" fill="#92E3A9"/>
<path d="M452.917 137.359C452.667 136.949 438.217 159.359 436.157 173.799C433.717 187.929 443.747 193.109 449.517 190.669C455.287 188.229 456.647 178.399 455.987 170.029C454.657 161.819 452.467 137.489 452.917 137.359Z" fill="#92E3A9"/>
<path d="M453.807 136.969L453.747 136.849C453.639 136.67 453.478 136.53 453.286 136.447C453.094 136.365 452.881 136.344 452.677 136.389H452.587C452.451 136.41 452.323 136.468 452.219 136.559C452.114 136.649 452.037 136.767 451.997 136.899C448.657 140.519 436.927 161.209 435.157 173.629C433.947 180.579 435.647 186.489 439.817 189.799C441.192 190.965 442.851 191.744 444.626 192.057C446.401 192.37 448.227 192.205 449.917 191.579C457.817 188.399 457.337 174.219 456.997 169.959C455.717 161.959 453.747 139.799 453.877 137.679C453.942 137.442 453.917 137.189 453.807 136.969ZM437.917 184.089C436.917 181.759 436.357 178.489 437.137 173.969C438.767 162.569 448.137 146.349 451.947 140.389C452.067 142.469 452.347 145.709 452.807 150.759C453.407 157.269 454.307 165.759 455.007 170.189C455.637 178.189 454.427 187.609 449.137 189.749C447.781 190.235 446.321 190.354 444.903 190.094C443.486 189.834 442.163 189.205 441.067 188.269C439.691 187.155 438.609 185.72 437.917 184.089Z" fill="#92E3A9"/>
</svg>
