<svg xmlns="http://www.w3.org/2000/svg" viewBox="0 0 500 500"><g id="freepik--background-simple--inject-8"><path d="M412.94,103.67a204.67,204.67,0,0,0-55.83-39.18c-30.78-14.4-64.69-21.33-98.6-21.75C159.4,41.54,151.86,158,121.39,174.15S35.69,192.24,33.78,257c-1.19,40.73,8.31,82.61,35.05,114.34,24.48,29.06,60.46,43.79,95.9,54.67,39.79,12.22,82,24.21,123.86,16,43-8.46,73.15-42.48,108.43-65.46,22.21-14.48,42.15-29.72,55.86-52.94q2.46-4.17,4.64-8.48c18.36-36.09,22-77.72,11.84-116.77C460.27,163.27,439.76,129.89,412.94,103.67Z" style="fill:#92E3A9"></path><path d="M412.94,103.67a204.67,204.67,0,0,0-55.83-39.18c-30.78-14.4-64.69-21.33-98.6-21.75C159.4,41.54,151.86,158,121.39,174.15S35.69,192.24,33.78,257c-1.19,40.73,8.31,82.61,35.05,114.34,24.48,29.06,60.46,43.79,95.9,54.67,39.79,12.22,82,24.21,123.86,16,43-8.46,73.15-42.48,108.43-65.46,22.21-14.48,42.15-29.72,55.86-52.94q2.46-4.17,4.64-8.48c18.36-36.09,22-77.72,11.84-116.77C460.27,163.27,439.76,129.89,412.94,103.67Z" style="fill:#fff;opacity:0.7000000000000001"></path></g><g id="freepik--Floor--inject-8"><line x1="15.38" y1="463.2" x2="478.82" y2="463.2" style="fill:none;stroke:#263238;stroke-linecap:round;stroke-linejoin:round"></line></g><g id="freepik--Plants--inject-8"><path d="M411.63,392.56c2.23,1,7.67.85,7.68.85s-1.17-3.56-1.28-3.78c-1.19-2.5-5-6.63-8-6.21A3.67,3.67,0,0,0,407,388C407.55,390.15,409.73,391.73,411.63,392.56Z" style="fill:#263238"></path><path d="M413.51,408.34c2.31.33,7.17-1.07,7.56-1.19a63.06,63.06,0,0,0,2.95,8.16c.66,1.55,1.39,3.08,2.13,4.62-.44-.65-.85-1.23-.91-1.3-1.81-2.1-6.55-5.08-9.4-3.87a3.68,3.68,0,0,0-1.63,5.22c1.05,1.92,3.58,2.87,5.63,3.16s6.24-.81,7.34-1.12l.87,1.75c1.41,2.81,2.83,5.6,4.13,8.38.46,1,.88,2,1.3,2.94-.39-.58-.73-1.06-.79-1.13-1.81-2.09-6.55-5.08-9.4-3.86a3.67,3.67,0,0,0-1.63,5.21c1,1.92,3.58,2.87,5.63,3.17s5.84-.71,7.15-1.07c.4,1,.8,2,1.14,3,.22.69.48,1.34.66,2s.39,1.39.58,2.07c.32,1.32.65,2.69.93,4,.2.9.37,1.77.55,2.64-.45-1-1.36-2.88-1.46-3-1.47-2.35-5.7-6-8.71-5.25a3.67,3.67,0,0,0-2.39,4.91c.75,2.06,3.1,3.38,5.08,4,2.18.66,7,.05,7.61,0,.28,1.44.55,2.85.78,4.18.48,2.7.85,5.14,1.13,7.24h2c-.35-2.18-.79-4.74-1.35-7.58-.29-1.46-.62-3-1-4.62a41.44,41.44,0,0,0,4.24-2c1.59,1.72,5.66,3.74,6.18,4-.55,1.36-1.1,2.68-1.64,3.92-1,2.35-2,4.46-2.88,6.29h2.18c.75-1.66,1.55-3.53,2.39-5.57.57-1.39,1.15-2.87,1.73-4.4.58.12,5.36,1.09,7.58.59,2-.46,4.47-1.6,5.37-3.6a3.66,3.66,0,0,0-2-5.07c-2.94-1-7.43,2.35-9.07,4.58-.1.13-1,1.68-1.54,2.66.23-.63.47-1.23.7-1.88.47-1.28.9-2.57,1.37-4,.2-.68.41-1.36.61-2.05s.37-1.43.56-2.15c.4-1.68.72-3.4,1-5.15,1.12.41,5.12,1.81,7.2,1.66s4.65-.9,5.85-2.74a3.67,3.67,0,0,0-1.24-5.32c-2.76-1.43-7.7,1.2-9.66,3.15-.13.12-1.38,1.68-2.05,2.55.17-1,.34-2.09.47-3.16.38-3.07.67-6.2,1-9.31l.3-2.86c.4.15,5.12,1.91,7.44,1.74,2.07-.14,4.66-.9,5.85-2.74a3.67,3.67,0,0,0-1.23-5.32c-2.76-1.42-7.7,1.2-9.67,3.15-.14.15-1.94,2.4-2.37,3,.22-2.09.46-4.18.78-6.23a64.23,64.23,0,0,1,1.79-8.19c.18.07,5.1,1.93,7.48,1.76,2.07-.14,4.66-.9,5.85-2.74a3.66,3.66,0,0,0-1.23-5.32c-2.76-1.42-7.7,1.2-9.67,3.15-.15.16-2.08,2.58-2.4,3,0-.16.07-.32.12-.48a47.18,47.18,0,0,1,3.25-7.75c.7-1.38,1.46-2.66,2.21-3.89.89.44,4.93,2.4,7.09,2.49s4.73-.39,6.12-2.08a3.67,3.67,0,0,0-.65-5.43c-2.58-1.71-7.78.35-9.95,2.08-.12.09-1.21,1.18-2,2,.35-.55.7-1.12,1.05-1.64,1.3-2,2.6-3.67,3.78-5.17.67-.85,1.29-1.61,1.89-2.31,1.09,0,5.48-.15,7.4-1.05s4-2.52,4.47-4.67A3.68,3.68,0,0,0,483,374c-3.08-.33-6.75,3.9-7.87,6.43-.1.22-1.23,3.82-1.17,3.81H474c-.58.67-1.2,1.38-1.86,2.18-1.21,1.48-2.56,3.17-3.9,5.11a65.22,65.22,0,0,0-4.05,6.44,48,48,0,0,0-3.45,7.78.38.38,0,0,0,0,.1c0-.91,0-3.45-.05-3.65-.36-2.74-2.66-7.84-5.71-8.41a3.68,3.68,0,0,0-4.24,3.45c-.18,2.19,1.41,4.37,2.95,5.75,1.74,1.56,6.57,3.06,7,3.18a64.43,64.43,0,0,0-2,8.43c-.3,1.66-.55,3.34-.77,5,0-.79,0-1.49,0-1.59-.36-2.75-2.66-7.85-5.71-8.41a3.68,3.68,0,0,0-4.24,3.45c-.18,2.19,1.4,4.37,2.95,5.75s5.66,2.77,6.75,3.11c-.08.65-.17,1.3-.25,2-.37,3.11-.73,6.22-1.17,9.26-.16,1.07-.35,2.12-.54,3.17,0-.7,0-1.29,0-1.38-.36-2.74-2.66-7.84-5.71-8.41a3.67,3.67,0,0,0-4.23,3.46c-.18,2.18,1.4,4.36,2.94,5.74s5.26,2.63,6.56,3.05c-.23,1.07-.46,2.14-.72,3.17-.2.7-.35,1.38-.58,2.07s-.44,1.37-.66,2c-.47,1.28-.94,2.6-1.43,3.84-.33.87-.66,1.68-1,2.51.17-1.07.45-3.16.45-3.33a14.19,14.19,0,0,0-1.91-6.94,4.41,4.41,0,0,0-.05-.81,3.68,3.68,0,0,0-4.49-3.12c-3,.8-4.9,6.06-5,8.83,0,.16.1,1.95.18,3.07-.15-.65-.29-1.29-.45-2-.31-1.32-.67-2.64-1-4.05-.21-.68-.41-1.36-.62-2.06s-.49-1.39-.73-2.09c-.59-1.62-1.27-3.24-2-4.85,1.16-.28,5.27-1.32,6.92-2.59s3.38-3.32,3.36-5.51a3.66,3.66,0,0,0-4-3.76c-3.09.33-5.76,5.25-6.32,8,0,.17-.22,2.16-.3,3.26-.44-1-.88-1.93-1.35-2.89-1.38-2.78-2.86-5.55-4.33-8.31-.45-.85-.89-1.7-1.33-2.55.41-.1,5.32-1.23,7.17-2.65,1.64-1.26,3.38-3.32,3.37-5.51a3.68,3.68,0,0,0-4-3.76c-3.08.33-5.76,5.25-6.32,8,0,.2-.3,3.07-.33,3.8-1-1.87-1.92-3.74-2.79-5.62a64.44,64.44,0,0,1-3-7.82c.19-.05,5.32-1.21,7.21-2.67,1.64-1.26,3.38-3.32,3.37-5.51a3.68,3.68,0,0,0-4-3.76c-3.08.34-5.76,5.25-6.32,8,0,.21-.32,3.29-.33,3.86-.05-.16-.12-.31-.16-.47a46.62,46.62,0,0,1-1.57-8.26c-.17-1.54-.25-3-.3-4.46,1-.12,5.44-.72,7.29-1.84s3.73-2.93,4-5.1a3.68,3.68,0,0,0-3.53-4.18c-3.1,0-6.3,4.59-7.16,7.22,0,.15-.35,1.66-.57,2.76,0-.65,0-1.33,0-1.95,0-2.35.16-4.5.3-6.4.1-1.08.2-2,.31-3,.9-.62,4.49-3.16,5.59-5s2-4.31,1.15-6.35a3.67,3.67,0,0,0-5-2.08c-2.76,1.43-3.48,7-3,9.71,0,.24,1.08,3.86,1.13,3.83l.06,0c-.13.87-.25,1.81-.36,2.84-.18,1.91-.38,4.06-.44,6.41a64,64,0,0,0,.19,7.61,48.92,48.92,0,0,0,1.4,8.4l0,.09c-.49-.76-1.93-2.86-2.06-3-1.81-2.1-6.54-5.08-9.4-3.87a3.68,3.68,0,0,0-1.63,5.22C408.94,407.09,411.46,408,413.51,408.34Z" style="fill:#263238"></path><path d="M466.72,393.76s1-3.62,1-3.86c.38-2.74-.49-8.27-3.28-9.62a3.68,3.68,0,0,0-5,2.21c-.75,2.06.2,4.59,1.32,6.33C462.11,390.86,466.72,393.76,466.72,393.76Z" style="fill:#263238"></path><path d="M371,298c1.59.7,5.49.61,5.49.61s-.84-2.55-.91-2.7c-.86-1.79-3.56-4.74-5.75-4.44a2.62,2.62,0,0,0-2.11,3.29C368.1,296.23,369.66,297.36,371,298Z" style="fill:#263238"></path><path d="M372.36,309.22c1.65.24,5.12-.76,5.4-.84a44.73,44.73,0,0,0,2.1,5.82c.48,1.11,1,2.21,1.53,3.31-.32-.47-.61-.88-.65-.93-1.3-1.5-4.68-3.63-6.72-2.77a2.64,2.64,0,0,0-1.17,3.73c.76,1.37,2.56,2,4,2.26s4.46-.58,5.25-.8c.2.42.41.84.62,1.25,1,2,2,4,2.95,6,.33.7.62,1.4.93,2.1l-.57-.81c-1.29-1.49-4.68-3.62-6.72-2.76a2.63,2.63,0,0,0-1.16,3.73c.75,1.37,2.56,2.05,4,2.26a16.66,16.66,0,0,0,5.11-.76c.29.72.57,1.45.82,2.17.16.49.34,1,.47,1.46s.27,1,.41,1.48c.23.94.47,1.92.67,2.85.14.64.26,1.26.39,1.88-.32-.7-1-2-1-2.16-1-1.68-4.07-4.3-6.22-3.75a2.63,2.63,0,0,0-1.72,3.51c.54,1.47,2.22,2.41,3.64,2.85s5,0,5.43,0c.21,1,.4,2,.56,3,.34,1.93.61,3.67.81,5.18H393c-.25-1.56-.56-3.39-1-5.42-.2-1.05-.44-2.16-.7-3.3a27.58,27.58,0,0,0,3-1.43,19.32,19.32,0,0,0,4.42,2.85c-.39,1-.79,1.92-1.18,2.8-.73,1.68-1.42,3.19-2.05,4.5h1.56c.53-1.19,1.11-2.52,1.71-4,.4-1,.82-2.05,1.23-3.14.42.09,3.83.78,5.42.42s3.19-1.14,3.84-2.57a2.62,2.62,0,0,0-1.45-3.62c-2.1-.71-5.31,1.68-6.49,3.27-.07.1-.71,1.2-1.1,1.9.17-.45.34-.88.5-1.34.34-.92.65-1.84,1-2.83.15-.49.29-1,.44-1.47s.26-1,.4-1.53c.28-1.2.51-2.43.72-3.68.8.29,3.66,1.29,5.14,1.18s3.33-.64,4.18-1.95a2.63,2.63,0,0,0-.88-3.81c-2-1-5.5.86-6.91,2.26-.08.08-1,1.2-1.46,1.82.12-.75.24-1.5.34-2.26.27-2.19.48-4.43.69-6.66l.21-2c.29.11,3.66,1.37,5.32,1.25,1.48-.1,3.33-.65,4.18-2a2.62,2.62,0,0,0-.88-3.8c-2-1-5.5.86-6.91,2.25-.1.11-1.39,1.71-1.69,2.14.16-1.5.33-3,.56-4.45a46.75,46.75,0,0,1,1.27-5.86c.14.05,3.65,1.38,5.35,1.26,1.48-.1,3.33-.65,4.18-2a2.62,2.62,0,0,0-.88-3.8c-2-1-5.5.85-6.91,2.25-.11.11-1.49,1.84-1.71,2.17,0-.11,0-.23.08-.34a34.23,34.23,0,0,1,2.32-5.54c.51-1,1-1.9,1.59-2.78.63.31,3.52,1.72,5.06,1.78s3.38-.28,4.37-1.49a2.62,2.62,0,0,0-.46-3.87c-1.84-1.23-5.56.24-7.11,1.48-.08.07-.86.84-1.43,1.42.26-.4.51-.81.76-1.18.92-1.39,1.86-2.62,2.7-3.69.48-.61.92-1.15,1.35-1.65.78,0,3.91-.11,5.28-.75s2.87-1.8,3.2-3.34a2.63,2.63,0,0,0-2.2-3.23c-2.2-.23-4.82,2.79-5.63,4.6-.07.15-.87,2.72-.83,2.72h0l-1.33,1.56c-.86,1.06-1.82,2.26-2.78,3.64a46.47,46.47,0,0,0-2.9,4.61,35.27,35.27,0,0,0-2.47,5.56.19.19,0,0,1,0,.07c0-.65,0-2.47,0-2.61-.26-2-1.9-5.6-4.08-6a2.63,2.63,0,0,0-3,2.47c-.13,1.56,1,3.12,2.11,4.11s4.69,2.18,5,2.27a46,46,0,0,0-1.46,6c-.21,1.19-.39,2.39-.55,3.6,0-.56,0-1.07,0-1.14-.25-2-1.9-5.61-4.08-6a2.62,2.62,0,0,0-3,2.47c-.13,1.56,1,3.12,2.1,4.11s4,2,4.82,2.22c-.05.46-.12.93-.17,1.39-.27,2.22-.52,4.45-.84,6.62-.11.76-.25,1.51-.38,2.26,0-.5,0-.92,0-1-.26-2-1.9-5.61-4.08-6a2.63,2.63,0,0,0-3,2.47c-.13,1.56,1,3.12,2.11,4.1a16.65,16.65,0,0,0,4.68,2.18c-.16.77-.32,1.53-.51,2.27-.15.49-.25,1-.42,1.47s-.31,1-.47,1.46c-.33.92-.67,1.86-1,2.75-.23.62-.47,1.2-.71,1.79.12-.76.33-2.25.33-2.38a10.21,10.21,0,0,0-1.37-5,2.82,2.82,0,0,0,0-.58,2.62,2.62,0,0,0-3.21-2.22c-2.15.57-3.5,4.33-3.61,6.3,0,.12.07,1.39.14,2.2-.11-.47-.21-.92-.33-1.4-.22-.95-.47-1.89-.74-2.9q-.23-.72-.45-1.47c-.13-.49-.34-1-.51-1.49-.43-1.16-.91-2.32-1.43-3.47.83-.2,3.77-.94,4.94-1.85s2.42-2.37,2.41-3.94a2.61,2.61,0,0,0-2.83-2.68c-2.21.24-4.12,3.75-4.52,5.69,0,.12-.16,1.54-.21,2.32-.32-.69-.63-1.38-1-2.06-1-2-2-4-3.09-5.94-.32-.61-.64-1.21-.95-1.82.29-.07,3.8-.88,5.12-1.9s2.42-2.37,2.41-3.93a2.63,2.63,0,0,0-2.84-2.69c-2.2.24-4.11,3.75-4.51,5.69,0,.15-.22,2.19-.24,2.72-.69-1.34-1.37-2.68-2-4a45.88,45.88,0,0,1-2.16-5.59c.13,0,3.8-.87,5.15-1.9,1.17-.9,2.42-2.38,2.41-3.94a2.63,2.63,0,0,0-2.84-2.69c-2.2.24-4.11,3.75-4.51,5.69,0,.15-.23,2.36-.24,2.76,0-.11-.08-.22-.11-.33a33.25,33.25,0,0,1-1.13-5.9c-.12-1.11-.18-2.16-.21-3.2.7-.08,3.89-.51,5.21-1.31s2.66-2.09,2.82-3.65a2.62,2.62,0,0,0-2.52-3c-2.22,0-4.5,3.28-5.11,5.16,0,.11-.26,1.18-.41,2,0-.46,0-1,0-1.39,0-1.68.11-3.21.21-4.57.07-.77.14-1.47.22-2.12.64-.44,3.21-2.25,4-3.55s1.4-3.08.83-4.54a2.62,2.62,0,0,0-3.61-1.48c-2,1-2.49,5-2.16,6.93,0,.17.77,2.76.8,2.74l0,0c-.09.63-.17,1.3-.25,2-.14,1.36-.28,2.9-.32,4.58a48.32,48.32,0,0,0,.13,5.44,34.83,34.83,0,0,0,1,6,.19.19,0,0,1,0,.07c-.35-.55-1.37-2-1.46-2.15-1.3-1.5-4.68-3.63-6.72-2.77a2.64,2.64,0,0,0-1.17,3.73C369.09,308.33,370.89,309,372.36,309.22Z" style="fill:#263238"></path><path d="M410.38,298.81s.71-2.59.73-2.76c.27-2-.35-5.91-2.35-6.87a2.62,2.62,0,0,0-3.57,1.58c-.54,1.47.14,3.27.95,4.51C407.08,296.73,410.38,298.81,410.38,298.81Z" style="fill:#263238"></path><path d="M93.15,392.56c-2.22,1-7.67.85-7.67.85s1.17-3.56,1.27-3.78c1.2-2.5,5-6.63,8-6.21a3.67,3.67,0,0,1,3,4.6C97.24,390.15,95.05,391.73,93.15,392.56Z" style="fill:#263238"></path><path d="M91.27,408.34c-2.3.33-7.17-1.07-7.55-1.19a66.18,66.18,0,0,1-3,8.16c-.67,1.55-1.39,3.08-2.13,4.62.44-.65.84-1.23.91-1.3,1.81-2.1,6.54-5.08,9.4-3.87A3.68,3.68,0,0,1,90.58,420c-1.06,1.92-3.58,2.87-5.63,3.16s-6.25-.81-7.35-1.12c-.29.58-.57,1.17-.87,1.75-1.4,2.81-2.82,5.6-4.13,8.38-.46,1-.87,2-1.29,2.94.39-.58.73-1.06.79-1.13,1.81-2.09,6.54-5.08,9.4-3.86a3.67,3.67,0,0,1,1.63,5.21c-1.06,1.92-3.59,2.87-5.63,3.17s-5.84-.71-7.15-1.07c-.4,1-.81,2-1.15,3-.22.69-.48,1.34-.66,2L68,444.56c-.32,1.32-.66,2.69-.93,4-.2.9-.38,1.77-.56,2.64.45-1,1.37-2.88,1.46-3,1.48-2.35,5.7-6,8.71-5.25a3.67,3.67,0,0,1,2.4,4.91c-.75,2.06-3.11,3.38-5.08,4-2.18.66-7,.05-7.61,0-.29,1.44-.56,2.85-.79,4.18-.47,2.7-.84,5.14-1.13,7.24h-2c.34-2.18.78-4.74,1.34-7.58.29-1.46.63-3,1-4.62a41.44,41.44,0,0,1-4.24-2c-1.59,1.72-5.66,3.74-6.19,4,.56,1.36,1.11,2.68,1.65,3.92,1,2.35,2,4.46,2.87,6.29H56.66c-.74-1.66-1.55-3.53-2.38-5.57-.57-1.39-1.15-2.87-1.73-4.4-.59.12-5.36,1.09-7.59.59-2-.46-4.46-1.6-5.37-3.6a3.67,3.67,0,0,1,2-5.07c2.94-1,7.43,2.35,9.08,4.58.09.13,1,1.68,1.54,2.66-.24-.63-.47-1.23-.71-1.88-.47-1.28-.9-2.57-1.36-4-.21-.68-.41-1.36-.62-2.05s-.36-1.43-.55-2.15c-.4-1.68-.73-3.4-1-5.15-1.12.41-5.13,1.81-7.2,1.66s-4.66-.9-5.85-2.74a3.67,3.67,0,0,1,1.23-5.32c2.76-1.43,7.71,1.2,9.67,3.15.12.12,1.37,1.68,2,2.55-.16-1-.33-2.09-.46-3.16-.38-3.07-.68-6.2-1-9.31-.09-1-.2-1.91-.3-2.86-.39.15-5.12,1.91-7.44,1.74-2.06-.14-4.65-.9-5.85-2.74a3.67,3.67,0,0,1,1.24-5.32c2.75-1.42,7.7,1.2,9.66,3.15.15.15,2,2.4,2.38,3-.23-2.09-.46-4.18-.79-6.23a64.22,64.22,0,0,0-1.78-8.19c-.19.07-5.11,1.93-7.49,1.76-2.06-.14-4.65-.9-5.85-2.74a3.67,3.67,0,0,1,1.24-5.32c2.75-1.42,7.7,1.2,9.66,3.15.16.16,2.09,2.58,2.41,3-.05-.16-.08-.32-.13-.48a47.16,47.16,0,0,0-3.24-7.75c-.71-1.38-1.46-2.66-2.22-3.89-.88.44-4.93,2.4-7.09,2.49s-4.72-.39-6.11-2.08a3.68,3.68,0,0,1,.64-5.43c2.59-1.71,7.79.35,10,2.08.12.09,1.21,1.18,2,2-.35-.55-.71-1.12-1-1.64-1.3-2-2.61-3.67-3.78-5.17-.67-.85-1.3-1.61-1.89-2.31-1.09,0-5.48-.15-7.4-1.05s-4-2.52-4.47-4.67A3.68,3.68,0,0,1,21.81,374c3.09-.33,6.75,3.9,7.88,6.43.1.22,1.23,3.82,1.17,3.81h-.07c.59.67,1.21,1.38,1.87,2.18,1.2,1.48,2.55,3.17,3.9,5.11a63.4,63.4,0,0,1,4,6.44,48.05,48.05,0,0,1,3.46,7.78l0,.1c0-.91,0-3.45,0-3.65.35-2.74,2.66-7.84,5.71-8.41a3.66,3.66,0,0,1,4.23,3.45c.18,2.19-1.4,4.37-2.94,5.75-1.74,1.56-6.58,3.06-7,3.18a66.08,66.08,0,0,1,2,8.43c.3,1.66.54,3.34.77,5,0-.79,0-1.49,0-1.59.36-2.75,2.66-7.85,5.71-8.41A3.66,3.66,0,0,1,57,413.1c.18,2.19-1.4,4.37-2.94,5.75s-5.66,2.77-6.75,3.11c.08.65.17,1.3.24,2,.38,3.11.73,6.22,1.18,9.26.15,1.07.35,2.12.54,3.17,0-.7,0-1.29,0-1.38.36-2.74,2.66-7.84,5.72-8.41A3.68,3.68,0,0,1,59.22,430c.18,2.18-1.4,4.36-2.95,5.74s-5.26,2.63-6.55,3.05c.23,1.07.45,2.14.72,3.17.2.7.34,1.38.58,2.07s.44,1.37.66,2c.46,1.28.94,2.6,1.42,3.84.33.87.67,1.68,1,2.51-.17-1.07-.45-3.16-.46-3.33a14.3,14.3,0,0,1,1.91-6.94,5.51,5.51,0,0,1,.05-.81,3.68,3.68,0,0,1,4.49-3.12c3,.8,4.9,6.06,5,8.83,0,.16-.1,1.95-.19,3.07.15-.65.29-1.29.46-2,.31-1.32.66-2.64,1-4.05.2-.68.41-1.36.62-2.06s.48-1.39.72-2.09q.9-2.43,2-4.85c-1.17-.28-5.27-1.32-6.92-2.59s-3.38-3.32-3.37-5.51a3.67,3.67,0,0,1,4-3.76c3.08.33,5.76,5.25,6.32,8,0,.17.22,2.16.3,3.26.44-1,.87-1.93,1.35-2.89,1.38-2.78,2.86-5.55,4.33-8.31.45-.85.88-1.7,1.33-2.55-.42-.1-5.33-1.23-7.17-2.65-1.65-1.26-3.39-3.32-3.37-5.51a3.66,3.66,0,0,1,4-3.76c3.09.33,5.76,5.25,6.32,8,0,.2.31,3.07.34,3.8,1-1.87,1.92-3.74,2.78-5.62a66.22,66.22,0,0,0,3-7.82c-.19-.05-5.32-1.21-7.21-2.67-1.65-1.26-3.39-3.32-3.37-5.51a3.67,3.67,0,0,1,4-3.76c3.09.34,5.77,5.25,6.33,8,0,.21.32,3.29.33,3.86,0-.16.11-.31.16-.47a48.5,48.5,0,0,0,1.57-8.26c.17-1.54.25-3,.29-4.46-1-.12-5.44-.72-7.28-1.84s-3.73-2.93-4-5.1a3.68,3.68,0,0,1,3.52-4.18c3.11,0,6.31,4.59,7.16,7.22,0,.15.36,1.66.57,2.76,0-.65,0-1.33,0-1.95,0-2.35-.15-4.5-.3-6.4-.09-1.08-.2-2-.3-3-.9-.62-4.49-3.16-5.59-5s-2-4.31-1.16-6.35A3.68,3.68,0,0,1,82.81,368c2.75,1.43,3.48,7,3,9.71,0,.24-1.08,3.86-1.13,3.83l0,0c.12.87.24,1.81.35,2.84.19,1.91.39,4.06.44,6.41a66.1,66.1,0,0,1-.18,7.61,48,48,0,0,1-1.41,8.4l0,.09c.49-.76,1.92-2.86,2.05-3,1.82-2.1,6.55-5.08,9.41-3.87a3.68,3.68,0,0,1,1.62,5.22C95.85,407.09,93.32,408,91.27,408.34Z" style="fill:#263238"></path><path d="M38.07,393.76s-1-3.62-1-3.86c-.38-2.74.5-8.27,3.29-9.62a3.68,3.68,0,0,1,5,2.21c.74,2.06-.2,4.59-1.33,6.33C42.68,390.86,38.07,393.76,38.07,393.76Z" style="fill:#263238"></path><path d="M133.77,298c-1.59.7-5.48.61-5.48.61s.83-2.55.91-2.7c.85-1.79,3.55-4.74,5.75-4.44a2.62,2.62,0,0,1,2.1,3.29C136.69,296.23,135.13,297.36,133.77,298Z" style="fill:#263238"></path><path d="M132.43,309.22c-1.65.24-5.12-.76-5.4-.84a46.32,46.32,0,0,1-2.11,5.82c-.47,1.11-1,2.21-1.52,3.31.32-.47.6-.88.65-.93,1.29-1.5,4.68-3.63,6.72-2.77a2.63,2.63,0,0,1,1.16,3.73c-.75,1.37-2.56,2-4,2.26s-4.46-.58-5.25-.8c-.21.42-.41.84-.62,1.25-1,2-2,4-3,6-.33.7-.63,1.4-.93,2.1l.56-.81c1.3-1.49,4.68-3.62,6.72-2.76a2.64,2.64,0,0,1,1.17,3.73c-.76,1.37-2.56,2.05-4,2.26a16.59,16.59,0,0,1-5.1-.76c-.29.72-.58,1.45-.82,2.17-.16.49-.34,1-.47,1.46l-.42,1.48c-.22.94-.46,1.92-.66,2.85-.14.64-.27,1.26-.4,1.88.32-.7,1-2,1.05-2.16,1-1.68,4.07-4.3,6.22-3.75a2.62,2.62,0,0,1,1.71,3.51c-.53,1.47-2.22,2.41-3.63,2.85-1.56.47-5,0-5.43,0-.21,1-.4,2-.57,3-.34,1.93-.6,3.67-.8,5.18h-1.45c.24-1.56.56-3.39,1-5.42.21-1.05.45-2.16.71-3.3a28.32,28.32,0,0,1-3-1.43,18.9,18.9,0,0,1-4.42,2.85c.4,1,.79,1.92,1.18,2.8.73,1.68,1.43,3.19,2.06,4.5H107.7q-.81-1.79-1.71-4c-.41-1-.82-2.05-1.24-3.14-.41.09-3.82.78-5.42.42-1.44-.32-3.18-1.14-3.83-2.57A2.62,2.62,0,0,1,97,335.53c2.1-.71,5.31,1.68,6.48,3.27.07.1.71,1.2,1.1,1.9-.16-.45-.33-.88-.5-1.34-.33-.92-.64-1.84-1-2.83-.14-.49-.29-1-.44-1.47s-.26-1-.39-1.53c-.29-1.2-.52-2.43-.72-3.68-.8.29-3.66,1.29-5.15,1.18s-3.32-.64-4.18-1.95a2.64,2.64,0,0,1,.89-3.81c2-1,5.5.86,6.9,2.26.09.08,1,1.2,1.46,1.82-.11-.75-.24-1.5-.33-2.26-.27-2.19-.48-4.43-.7-6.66-.06-.68-.14-1.36-.21-2-.28.11-3.66,1.37-5.32,1.25-1.47-.1-3.32-.65-4.18-2a2.62,2.62,0,0,1,.88-3.8c2-1,5.51.86,6.91,2.25.11.11,1.39,1.71,1.7,2.14-.16-1.5-.33-3-.56-4.45A45,45,0,0,0,98.33,308c-.13.05-3.65,1.38-5.35,1.26-1.47-.1-3.32-.65-4.18-2a2.62,2.62,0,0,1,.88-3.8c2-1,5.51.85,6.91,2.25.11.11,1.49,1.84,1.72,2.17,0-.11,0-.23-.09-.34A34.23,34.23,0,0,0,95.9,302c-.5-1-1-1.9-1.58-2.78-.63.31-3.52,1.72-5.07,1.78s-3.37-.28-4.37-1.49a2.62,2.62,0,0,1,.46-3.87c1.85-1.23,5.57.24,7.12,1.48.08.07.86.84,1.42,1.42-.25-.4-.5-.81-.75-1.18-.93-1.39-1.86-2.62-2.7-3.69-.48-.61-.93-1.15-1.35-1.65-.78,0-3.92-.11-5.29-.75s-2.87-1.8-3.19-3.34a2.62,2.62,0,0,1,2.19-3.23c2.21-.23,4.83,2.79,5.63,4.6.07.15.88,2.72.84,2.72h-.05c.42.48.86,1,1.33,1.56.86,1.06,1.83,2.26,2.79,3.64a48.39,48.39,0,0,1,2.89,4.61,34.38,34.38,0,0,1,2.47,5.56s0,.05,0,.07c0-.65,0-2.47,0-2.61.25-2,1.9-5.6,4.08-6a2.62,2.62,0,0,1,3,2.47c.13,1.56-1,3.12-2.1,4.11-1.25,1.11-4.7,2.18-5,2.27a46,46,0,0,1,1.45,6c.22,1.19.39,2.39.55,3.6,0-.56,0-1.07,0-1.14.26-2,1.9-5.61,4.08-6a2.63,2.63,0,0,1,3,2.47c.13,1.56-1,3.12-2.11,4.11s-4,2-4.82,2.22l.18,1.39c.26,2.22.52,4.45.84,6.62.11.76.25,1.51.38,2.26,0-.5,0-.92,0-1,.25-2,1.9-5.61,4.08-6a2.62,2.62,0,0,1,3,2.47c.13,1.56-1,3.12-2.1,4.1a16.65,16.65,0,0,1-4.68,2.18c.16.77.32,1.53.51,2.27.14.49.24,1,.41,1.47s.32,1,.47,1.46c.34.92.67,1.86,1,2.75.24.62.48,1.2.71,1.79-.12-.76-.32-2.25-.32-2.38a10.19,10.19,0,0,1,1.36-5,3.77,3.77,0,0,1,0-.58,2.61,2.61,0,0,1,3.21-2.22c2.14.57,3.5,4.33,3.6,6.3,0,.12-.07,1.39-.13,2.2.11-.47.21-.92.32-1.4.23-.95.48-1.89.75-2.9.14-.48.29-1,.44-1.47s.35-1,.52-1.49c.42-1.16.91-2.32,1.42-3.47-.83-.2-3.76-.94-4.94-1.85s-2.42-2.37-2.41-3.94a2.62,2.62,0,0,1,2.84-2.68c2.2.24,4.12,3.75,4.52,5.69,0,.12.15,1.54.21,2.32.31-.69.62-1.38,1-2.06,1-2,2-4,3.09-5.94l1-1.82c-.3-.07-3.81-.88-5.13-1.9s-2.41-2.37-2.4-3.93a2.62,2.62,0,0,1,2.83-2.69c2.21.24,4.12,3.75,4.52,5.69,0,.15.21,2.19.23,2.72.7-1.34,1.38-2.68,2-4a46,46,0,0,0,2.17-5.59c-.14,0-3.8-.87-5.16-1.9-1.17-.9-2.41-2.38-2.4-3.94a2.62,2.62,0,0,1,2.83-2.69c2.21.24,4.12,3.75,4.52,5.69,0,.15.23,2.36.24,2.76,0-.11.08-.22.11-.33a34.12,34.12,0,0,0,1.12-5.9c.13-1.11.18-2.16.21-3.2-.69-.08-3.88-.51-5.2-1.31s-2.67-2.09-2.83-3.65a2.64,2.64,0,0,1,2.53-3c2.21,0,4.5,3.28,5.11,5.16,0,.11.26,1.18.41,2,0-.46,0-1,0-1.39,0-1.68-.11-3.21-.22-4.57-.06-.77-.14-1.47-.21-2.12-.65-.44-3.21-2.25-4-3.55s-1.4-3.08-.82-4.54a2.62,2.62,0,0,1,3.61-1.48c2,1,2.49,5,2.16,6.93,0,.17-.77,2.76-.81,2.74l0,0c.08.63.17,1.3.25,2,.13,1.36.27,2.9.31,4.58a48.32,48.32,0,0,1-.13,5.44,33.89,33.89,0,0,1-1,6,.19.19,0,0,1,0,.07c.35-.55,1.38-2,1.47-2.15,1.29-1.5,4.68-3.63,6.72-2.77a2.63,2.63,0,0,1,1.16,3.73C135.7,308.33,133.89,309,132.43,309.22Z" style="fill:#263238"></path><path d="M94.41,298.81s-.71-2.59-.73-2.76c-.28-2,.35-5.91,2.34-6.87a2.63,2.63,0,0,1,3.58,1.58c.53,1.47-.15,3.27-.95,4.51C97.7,296.73,94.41,298.81,94.41,298.81Z" style="fill:#263238"></path></g><g id="freepik--Stairs--inject-8"><polygon points="286.16 110.27 218.29 110.27 207.45 159.56 297 159.56 286.16 110.27" style="fill:#f0f0f0;stroke:#263238;stroke-linecap:round;stroke-linejoin:round"></polygon><polygon points="307.81 158.66 196.64 158.66 178.89 232.21 325.56 232.21 307.81 158.66" style="fill:#e3e3e3;stroke:#263238;stroke-linecap:round;stroke-linejoin:round"></polygon><rect x="218.37" y="158.79" width="67.72" height="8.93" style="fill:#fff;stroke:#263238;stroke-linecap:round;stroke-linejoin:round"></rect><rect x="216.54" y="166.89" width="71.37" height="9.12" style="fill:#fff;stroke:#263238;stroke-linecap:round;stroke-linejoin:round"></rect><rect x="214.72" y="175.46" width="75.02" height="9.3" style="fill:#fff;stroke:#263238;stroke-linecap:round;stroke-linejoin:round"></rect><rect x="212.89" y="184.27" width="78.67" height="9.49" style="fill:#fff;stroke:#263238;stroke-linecap:round;stroke-linejoin:round"></rect><rect x="211.07" y="193.31" width="82.32" height="9.67" style="fill:#fff;stroke:#263238;stroke-linecap:round;stroke-linejoin:round"></rect><rect x="209.24" y="202.58" width="85.97" height="9.86" style="fill:#fff;stroke:#263238;stroke-linecap:round;stroke-linejoin:round"></rect><rect x="207.41" y="212.32" width="89.62" height="10.05" style="fill:#fff;stroke:#263238;stroke-linecap:round;stroke-linejoin:round"></rect><rect x="205.59" y="221.83" width="93.27" height="10.23" style="fill:#fff;stroke:#263238;stroke-linecap:round;stroke-linejoin:round"></rect><rect x="236.4" y="110.39" width="31.65" height="5.9" style="fill:#fff;stroke:#263238;stroke-linecap:round;stroke-linejoin:round"></rect><rect x="235.55" y="115.75" width="33.36" height="6.02" style="fill:#fff;stroke:#263238;stroke-linecap:round;stroke-linejoin:round"></rect><rect x="234.69" y="121.41" width="35.06" height="6.14" style="fill:#fff;stroke:#263238;stroke-linecap:round;stroke-linejoin:round"></rect><rect x="233.84" y="127.22" width="36.77" height="6.27" style="fill:#fff;stroke:#263238;stroke-linecap:round;stroke-linejoin:round"></rect><rect x="232.99" y="133.19" width="38.48" height="6.39" style="fill:#fff;stroke:#263238;stroke-linecap:round;stroke-linejoin:round"></rect><rect x="232.13" y="139.32" width="40.18" height="6.51" style="fill:#fff;stroke:#263238;stroke-linecap:round;stroke-linejoin:round"></rect><rect x="231.28" y="145.75" width="41.89" height="6.64" style="fill:#fff;stroke:#263238;stroke-linecap:round;stroke-linejoin:round"></rect><rect x="230.43" y="152.03" width="43.59" height="6.76" style="fill:#fff;stroke:#263238;stroke-linecap:round;stroke-linejoin:round"></rect><polygon points="345.94 231.7 158.51 231.7 128.59 342.12 375.86 342.12 345.94 231.7" style="fill:#c7c7c7;stroke:#263238;stroke-linecap:round;stroke-linejoin:round"></polygon><polygon points="415.78 338.66 88.67 338.66 57.08 463.2 447.37 463.2 415.78 338.66" style="fill:#c7c7c7;stroke:#263238;stroke-linecap:round;stroke-linejoin:round"></polygon><polygon points="375.33 351.15 129.12 351.15 129.96 338.85 374.49 338.85 375.33 351.15" style="fill:#fff;stroke:#263238;stroke-linecap:round;stroke-linejoin:round"></polygon><polygon points="378.46 363.99 125.99 363.99 126.87 351.28 377.58 351.28 378.46 363.99" style="fill:#fff;stroke:#263238;stroke-linecap:round;stroke-linejoin:round"></polygon><polygon points="381.64 377.01 122.81 377.01 123.74 363.89 380.71 363.89 381.64 377.01" style="fill:#fff;stroke:#263238;stroke-linecap:round;stroke-linejoin:round"></polygon><polygon points="384.86 390.22 119.59 390.22 120.56 376.68 383.89 376.68 384.86 390.22" style="fill:#fff;stroke:#263238;stroke-linecap:round;stroke-linejoin:round"></polygon><polygon points="388.13 403.62 116.32 403.62 117.34 389.65 387.11 389.65 388.13 403.62" style="fill:#fff;stroke:#263238;stroke-linecap:round;stroke-linejoin:round"></polygon><polygon points="391.52 418.17 112.93 418.17 114 403.74 390.45 403.74 391.52 418.17" style="fill:#fff;stroke:#263238;stroke-linecap:round;stroke-linejoin:round"></polygon><polygon points="394.96 432.94 109.49 432.94 110.61 418.05 393.84 418.05 394.96 432.94" style="fill:#fff;stroke:#263238;stroke-linecap:round;stroke-linejoin:round"></polygon><polygon points="398.46 447.95 105.99 447.95 107.17 432.57 397.28 432.57 398.46 447.95" style="fill:#fff;stroke:#263238;stroke-linecap:round;stroke-linejoin:round"></polygon><polygon points="402.01 463.2 102.44 463.2 103.68 447.33 400.77 447.33 402.01 463.2" style="fill:#fff;stroke:#263238;stroke-linecap:round;stroke-linejoin:round"></polygon><rect x="187.26" y="231.66" width="129.93" height="13.07" style="fill:#fff;stroke:#263238;stroke-linecap:round;stroke-linejoin:round"></rect><rect x="183.76" y="243.51" width="136.93" height="13.34" style="fill:#fff;stroke:#263238;stroke-linecap:round;stroke-linejoin:round"></rect><rect x="180.26" y="256.05" width="143.94" height="13.61" style="fill:#fff;stroke:#263238;stroke-linecap:round;stroke-linejoin:round"></rect><rect x="176.75" y="268.94" width="150.94" height="13.88" style="fill:#fff;stroke:#263238;stroke-linecap:round;stroke-linejoin:round"></rect><rect x="173.25" y="282.16" width="157.95" height="14.15" style="fill:#fff;stroke:#263238;stroke-linecap:round;stroke-linejoin:round"></rect><rect x="169.75" y="295.73" width="164.95" height="14.43" style="fill:#fff;stroke:#263238;stroke-linecap:round;stroke-linejoin:round"></rect><rect x="166.25" y="309.98" width="171.96" height="14.7" style="fill:#fff;stroke:#263238;stroke-linecap:round;stroke-linejoin:round"></rect><rect x="162.74" y="323.9" width="178.96" height="14.97" style="fill:#fff;stroke:#263238;stroke-linecap:round;stroke-linejoin:round"></rect></g><g id="freepik--Shine--inject-8"><line x1="155.77" y1="159.31" x2="146.82" y2="167.17" style="fill:none;stroke:#263238;stroke-linecap:round;stroke-linejoin:round"></line><line x1="235.42" y1="89.28" x2="161.28" y2="154.46" style="fill:none;stroke:#263238;stroke-linecap:round;stroke-linejoin:round"></line><line x1="227.63" y1="87.34" x2="177" y2="105.83" style="fill:none;stroke:#263238;stroke-linecap:round;stroke-linejoin:round"></line><line x1="181.26" y1="79.76" x2="148.77" y2="82.47" style="fill:none;stroke:#263238;stroke-linecap:round;stroke-linejoin:round"></line><line x1="218.86" y1="76.63" x2="184.89" y2="79.46" style="fill:none;stroke:#263238;stroke-linecap:round;stroke-linejoin:round"></line><line x1="131.87" y1="33.53" x2="123.45" y2="30.87" style="fill:none;stroke:#263238;stroke-linecap:round;stroke-linejoin:round"></line><line x1="204.46" y1="56.45" x2="134.3" y2="34.29" style="fill:none;stroke:#263238;stroke-linecap:round;stroke-linejoin:round"></line><line x1="215.94" y1="60.08" x2="209.17" y2="57.94" style="fill:none;stroke:#263238;stroke-linecap:round;stroke-linejoin:round"></line><line x1="352.06" y1="159.31" x2="361.01" y2="167.17" style="fill:none;stroke:#263238;stroke-linecap:round;stroke-linejoin:round"></line><line x1="272.41" y1="89.28" x2="346.55" y2="154.46" style="fill:none;stroke:#263238;stroke-linecap:round;stroke-linejoin:round"></line><line x1="280.2" y1="87.34" x2="330.83" y2="105.83" style="fill:none;stroke:#263238;stroke-linecap:round;stroke-linejoin:round"></line><line x1="326.57" y1="79.76" x2="359.06" y2="82.47" style="fill:none;stroke:#263238;stroke-linecap:round;stroke-linejoin:round"></line><line x1="288.96" y1="76.63" x2="322.94" y2="79.46" style="fill:none;stroke:#263238;stroke-linecap:round;stroke-linejoin:round"></line><line x1="375.96" y1="33.53" x2="384.38" y2="30.87" style="fill:none;stroke:#263238;stroke-linecap:round;stroke-linejoin:round"></line><line x1="303.37" y1="56.45" x2="373.53" y2="34.29" style="fill:none;stroke:#263238;stroke-linecap:round;stroke-linejoin:round"></line><line x1="291.88" y1="60.08" x2="298.66" y2="57.94" style="fill:none;stroke:#263238;stroke-linecap:round;stroke-linejoin:round"></line></g><g id="freepik--Character--inject-8"><path d="M241.84,213.92s-4-1.18-3.77,2.36,4.47,5.89,4.47,5.89Z" style="fill:#fff;stroke:#263238;stroke-linecap:round;stroke-linejoin:round"></path><path d="M266.34,213.92s3.3-1.65,3.3,1.42-3.53,6.12-3.53,6.12Z" style="fill:#fff;stroke:#263238;stroke-linecap:round;stroke-linejoin:round"></path><path d="M241.37,204.26s.23,16.73,1.17,19.8,3.77,7.07,6.37,7.07,11.31-.71,13-1.65a10.22,10.22,0,0,0,4.24-8c0-3.77.47-13.19.47-13.19a7.65,7.65,0,0,0,2.36-3.07c.94-2.12-2.36-5.18-3.07-5.42s-3.3-.94-3.3-.94,1.65-1.41,1.18-2.59-4.95-1.89-6.83-1.89a10.24,10.24,0,0,0-4.24,1.42s-7.54-.24-9.9,2.59A6.65,6.65,0,0,0,241.37,204.26Z" style="fill:#263238;stroke:#263238;stroke-linecap:round;stroke-linejoin:round"></path><path d="M267.76,234.42l-30.17.48s1.42-4.48,3.07-5,18.61-.95,22.15-.47S267.76,234.42,267.76,234.42Z" style="fill:#92E3A9;stroke:#263238;stroke-linecap:round;stroke-linejoin:round"></path><path d="M257.25,433.45s-1.28,13.7-.19,14.13,4.35,2,12.18,0c2.08-.52-1.74-14.57-1.74-14.57S262.44,436.07,257.25,433.45Z" style="fill:#263238;stroke:#263238;stroke-linecap:round;stroke-linejoin:round"></path><path d="M221,327.37,225,387s-2.4,11-.2,20.74,5.78,44.07,5.78,44.07,1.79-3.39,7.78-4,7.17,1.79,7.17,1.79-.39-25.92-.39-28.91,2.39-21.93,2.19-27.72a83.93,83.93,0,0,0-1.6-12.36l1.4-36.09,3.19-.4s-2.19,29.71-.8,36.49,4.79,27.92,5,29.71,2.79,23.13,2.79,23.13,5.18,1.4,7.58,1.2a6.64,6.64,0,0,0,4-2s4.38-32.11,4-37.09-5-16.95-5-17.95-1.2-7.78-1.2-7.78,8.38-23.33,9.77-31.7S278,326,278,326s-23.73,3.79-35.5,3.79A101.15,101.15,0,0,1,221,327.37Z" style="fill:#92E3A9;stroke:#263238;stroke-linecap:round;stroke-linejoin:round"></path><path d="M231.69,386.68a78.5,78.5,0,0,1,10-7.1" style="fill:none;stroke:#263238;stroke-linecap:round;stroke-linejoin:round"></path><path d="M226.89,390.91s1-1,2.76-2.49" style="fill:none;stroke:#263238;stroke-linecap:round;stroke-linejoin:round"></path><line x1="231.24" y1="382.78" x2="243.73" y2="374.36" style="fill:none;stroke:#263238;stroke-linecap:round;stroke-linejoin:round"></line><path d="M278,326s-23.73,3.79-35.5,3.79A101.15,101.15,0,0,1,221,327.37l.24,3.55c3.45,2.6,9.59,7.36,14.63,12,5.94,5.44,9.7,7.73,11,8.43l.26-6.81,3.19-.4s-2.19,29.71-.8,36.49c.65,3.12,1.71,9.29,2.69,15.22,1.47-4.63,4.28-10.17,9.44-10.7a14.61,14.61,0,0,1,9.3,2.32c-1.42-4.64-3.08-9.23-3.08-9.83,0-1-1.2-7.78-1.2-7.78s8.38-23.33,9.77-31.7S278,326,278,326Z" style="fill:#263238;stroke:#263238;stroke-linecap:round;stroke-linejoin:round"></path><path d="M214,315.67s1.47,2.78,2.45,3.11,1.8,3.27,1.8,6.21-1,3.27-1,3.27a4.58,4.58,0,0,1,.81,3.93c-.65,2.12-4.9,3.59-6.7,4.25s-4.58-2.29-5.72-3.76-.33-13.25-.33-13.25S213.35,317.31,214,315.67Z" style="fill:#fff;stroke:#263238;stroke-linecap:round;stroke-linejoin:round"></path><path d="M217.28,328.26s-3.27,1.31-3.76,1.64-2.29-1.8-1.64-2.45a33,33,0,0,1,3.11-2.29" style="fill:none;stroke:#263238;stroke-linecap:round;stroke-linejoin:round"></path><path d="M210.57,322.38s3.44.81,2.29,3.92" style="fill:none;stroke:#263238;stroke-linecap:round;stroke-linejoin:round"></path><path d="M212.53,329.41s-3.43,1.31-3.43,2.61,1.64,3,2.62,2.78-.17-1.47-.17-1.47" style="fill:none;stroke:#263238;stroke-linecap:round;stroke-linejoin:round"></path><path d="M294.29,322.38a32.69,32.69,0,0,0-3.6,5.07c-.81,1.79-2.45,3.43-2.12,4.57s.49,2,.49,2-1.47,3.43,0,4.41a5.91,5.91,0,0,0,3.27,1.15c.65,0,3.27,2.12,5.07,1.79s4.41-1.14,4.58-6.7.81-11.94.81-11.94S296.91,322.38,294.29,322.38Z" style="fill:none;stroke:#263238;stroke-linecap:round;stroke-linejoin:round"></path><path d="M289.06,334s4.41,2.78,5.72,2.78,2.29-2,1.31-2.95a33.82,33.82,0,0,0-3.76-2.78" style="fill:none;stroke:#263238;stroke-linecap:round;stroke-linejoin:round"></path><path d="M297.72,327.61s-2.61,2.94-1.63,6.21" style="fill:none;stroke:#263238;stroke-linecap:round;stroke-linejoin:round"></path><path d="M296.58,334.8s3.11.82,3.27,1.8-.16,2.62-.82,2.62-1-1.15-1-1.15" style="fill:none;stroke:#263238;stroke-linecap:round;stroke-linejoin:round"></path><path d="M305.23,321.15a9.25,9.25,0,0,1-4,4.24c-2.84,1.41-7.78-2.36-7.78-2.36l-5.19-30.4-11.31-17L276,300.41s4.48,27.33,3.78,27.81-11.08,5.18-28.52,7.07-32.75-6.36-32.75-6.36l7.3-28.29-3.3-21-8.13,12.74,1.06,21.9s-1.88,4.95-5.18,5.66a16.58,16.58,0,0,1-6.37,0,.45.45,0,0,0,0-.08c0-.14-.07-.46-.15-.93,0-.21-.07-.46-.12-.74-.06-.43-.15-.94-.24-1.5s-.14-.89-.22-1.38-.16-1-.25-1.54h0c-1.27-7.92-3.32-20.73-3.48-21.87v-.05c0-2.21,15.32-41.67,16.25-42.6s1-4,4.25-6.13,21-9.42,21-9.42c6.82-2.13,25.68.7,25.68.7s7.31,4.24,8.25,4.72,11.07,6.59,13.43,8,2.59,4,3.53,7.07,7.78,25.69,9.9,29.69S305.23,321.15,305.23,321.15Z" style="fill:#92E3A9;stroke:#263238;stroke-linecap:round;stroke-linejoin:round"></path><path d="M214.38,292.41l1.06,21.9s-1.88,4.95-5.18,5.66a16.58,16.58,0,0,1-6.37,0,.45.45,0,0,0,0-.08c0-.14-.07-.46-.15-.93,0-.21-.07-.47-.12-.74-.06-.43-.15-.94-.24-1.5s-.14-.89-.22-1.38-.16-1-.25-1.54h0c-1.27-7.92-3.32-20.73-3.48-21.87v-.05c1.36.77,3.89,2,5.51,1.73,1.23-.23,2.72-1.87,3.81-3.31.22-.66.4-1.15.5-1.44,1.18-3.17,8.09-22.38,8.09-22.38l5.18,13.2Z" style="fill:#263238;stroke:#263238;stroke-linecap:round;stroke-linejoin:round"></path><line x1="218.27" y1="257.75" x2="222.51" y2="279.67" style="fill:none;stroke:#263238;stroke-linecap:round;stroke-linejoin:round"></line><polyline points="280.33 260.46 276.95 275.66 284.02 260.58" style="fill:none;stroke:#263238;stroke-linecap:round;stroke-linejoin:round"></polyline><line x1="281.66" y1="254.46" x2="281.12" y2="256.88" style="fill:none;stroke:#263238;stroke-linecap:round;stroke-linejoin:round"></line><path d="M249.61,262.7s13.67,25,16.26,26.63" style="fill:none;stroke:#263238;stroke-linecap:round;stroke-linejoin:round"></path><line x1="264.25" y1="291.45" x2="266.11" y2="293.1" style="fill:none;stroke:#263238;stroke-linecap:round;stroke-linejoin:round"></line><line x1="253.62" y1="282.03" x2="262.32" y2="289.75" style="fill:none;stroke:#263238;stroke-linecap:round;stroke-linejoin:round"></line><path d="M305.23,321.15s-.38-8.94-1.05-18.11c-4.08-1.4-8.77-3.36-10.5-5.46-3.3-4-15.32-20.27-15.32-20.27l0,.51,9.87,14.81,5.18,30.4s4.95,3.77,7.78,2.36A9.24,9.24,0,0,0,305.23,321.15Z" style="fill:#263238;stroke:#263238;stroke-linecap:round;stroke-linejoin:round"></path><path d="M230.53,451.8l-.44,7.09s-3.48,4.79-2.61,7.4,4.35,2.17,9.57,2.17,8.92-3.69,8.92-7-.49-11.9-.49-11.9-2.22-2-7.17-1.79A11,11,0,0,0,230.53,451.8Z" style="fill:#263238;stroke:#263238;stroke-linecap:round;stroke-linejoin:round"></path><path d="M244.7,464.91a7.07,7.07,0,0,0-6.56-1.23c-3.82,1.27-6.12,3.6-8.93,4.33,1.68.64,4.37.45,7.84.45A9.55,9.55,0,0,0,244.7,464.91Z" style="fill:#fff;stroke:#263238;stroke-linecap:round;stroke-linejoin:round"></path></g><g id="freepik--Trophy--inject-8"><rect x="249.53" y="80.85" width="5.36" height="22.82" style="fill:#92E3A9;stroke:#263238;stroke-linecap:round;stroke-linejoin:round"></rect><polygon points="260.13 108.56 244.29 108.56 246.16 99.71 258.26 99.71 260.13 108.56" style="fill:#92E3A9;stroke:#263238;stroke-linecap:round;stroke-linejoin:round"></polygon><polygon points="269.68 112.29 234.75 112.29 238.47 104.14 265.95 104.14 269.68 112.29" style="fill:#92E3A9;stroke:#263238;stroke-linecap:round;stroke-linejoin:round"></polygon><path d="M234.51,56.7a12.57,12.57,0,1,0,12.35,12.57A12.46,12.46,0,0,0,234.51,56.7Zm0,22a9.38,9.38,0,1,1,9.21-9.38A9.29,9.29,0,0,1,234.51,78.65Z" style="fill:#92E3A9;stroke:#263238;stroke-linecap:round;stroke-linejoin:round"></path><path d="M271.77,56.7a12.57,12.57,0,1,0,12.34,12.57A12.46,12.46,0,0,0,271.77,56.7Zm0,22A9.38,9.38,0,1,1,281,69.27,9.29,9.29,0,0,1,271.77,78.65Z" style="fill:#92E3A9;stroke:#263238;stroke-linecap:round;stroke-linejoin:round"></path><path d="M252.21,87.14h0a15.6,15.6,0,0,1-15.6-15.6V55.47h31.2V71.54A15.6,15.6,0,0,1,252.21,87.14Z" style="fill:#92E3A9;stroke:#263238;stroke-linecap:round;stroke-linejoin:round"></path><polygon points="241.34 64.04 247.94 75.71 249.69 71.8 253.97 72.5 245.02 61.27 241.34 64.04" style="fill:#263238;stroke:#263238;stroke-linecap:round;stroke-linejoin:round"></polygon><polygon points="240.99 62.66 238.69 75.87 242.52 73.95 245.39 77.21 245.58 62.85 240.99 62.66" style="fill:#263238;stroke:#263238;stroke-linecap:round;stroke-linejoin:round"></polygon><path d="M250.75,59.21a6.7,6.7,0,1,0-6.7,6.7A6.69,6.69,0,0,0,250.75,59.21Z" style="fill:#fff;stroke:#263238;stroke-linecap:round;stroke-linejoin:round"></path><path d="M249.22,59.21a5.17,5.17,0,1,0-5.17,5.17A5.16,5.16,0,0,0,249.22,59.21Z" style="fill:#fff;stroke:#263238;stroke-linecap:round;stroke-linejoin:round"></path><path d="M242.54,56.61a1,1,0,0,0,1.16-.84h.71V62.5h-1V57.36h-.82Z" style="fill:#263238"></path></g><g id="freepik--Clouds--inject-8"><path d="M299.44,220.72c-.8-4.54-2-15.82,4.9-21.35,8.71-7,14.89,5.62,22.48-4.21s9.83-31.19,32.3-30.91,24.16,12.93,24.16,17.14,6.74,7.3,8.15,7.3,9.27-3.65,12.08,4.5.9,12.86,5.37,13,10-5.92,16.08-2.87,6.08,9.5,8.61,11.75,6.74-1.68,12.36.56c3.4,1.36,4.43,3.55,4.71,5.06Z" style="fill:#fff;stroke:#000;stroke-miterlimit:10"></path><path d="M309.92,70.84c-.26-1.49-.64-5.2,1.61-7,2.87-2.31,4.9,1.84,7.39-1.39s3.23-10.24,10.61-10.15,7.94,4.24,7.94,5.63,2.22,2.4,2.68,2.4,3.05-1.2,4,1.48.3,4.22,1.76,4.28,3.29-2,5.29-1,2,3.13,2.83,3.87,2.21-.56,4.06.18a2.28,2.28,0,0,1,1.55,1.66Z" style="fill:#fff;stroke:#000;stroke-miterlimit:10"></path><path d="M298,134.13c-.49-2.78-1.19-9.65,3-13,5.31-4.28,9.08,3.43,13.71-2.57s6-19,19.71-18.85,14.74,7.88,14.74,10.45,4.11,4.46,5,4.46,5.65-2.23,7.36,2.74.56,7.85,3.28,8,6.1-3.61,9.81-1.75,3.71,5.8,5.25,7.17,4.11-1,7.54.34a4.19,4.19,0,0,1,2.88,3.09Z" style="fill:#fff;stroke:#000;stroke-miterlimit:10"></path><path d="M221.52,50.87c.35-2,.86-7-2.16-9.4-3.84-3.1-6.56,2.47-9.9-1.86S205.13,25.88,195.23,26s-10.64,5.69-10.64,7.55-3,3.22-3.59,3.22-4.08-1.61-5.32,2-.4,5.66-2.36,5.73-4.41-2.6-7.09-1.26-2.68,4.19-3.79,5.18-3-.75-5.44.24a3,3,0,0,0-2.08,2.23Z" style="fill:#fff;stroke:#000;stroke-miterlimit:10"></path><path d="M238.56,189.38c1-5.59,2.41-19.47-6-26.28-10.72-8.65-18.33,6.91-27.67-5.19s-12.11-38.4-39.78-38-29.75,15.91-29.75,21.1-8.3,9-10,9-11.41-4.5-14.87,5.54-1.12,15.83-6.61,16S91.48,164.25,84,168s-7.48,11.71-10.59,14.48-8.31-2.08-15.22.69c-4.2,1.67-5.46,4.36-5.81,6.22Z" style="fill:#fff;stroke:#000;stroke-miterlimit:10"></path><path d="M168.88,132.72c.31-1.77.76-6.17-1.91-8.32-3.4-2.74-5.81,2.19-8.77-1.65s-3.83-12.16-12.59-12-9.42,5-9.42,6.69-2.63,2.84-3.18,2.84-3.61-1.42-4.71,1.76-.35,5-2.09,5.08-3.9-2.31-6.27-1.12-2.37,3.7-3.36,4.58-2.63-.66-4.82.22a2.66,2.66,0,0,0-1.84,2Z" style="fill:#fff;stroke:#000;stroke-miterlimit:10"></path></g></svg>